<mxfile host="app.diagrams.net" modified="2021-11-26T08:33:18.825Z" agent="5.0 (Windows NT 10.0; Win64; x64) AppleWebKit/537.36 (KHTML, like Gecko) Chrome/96.0.4664.45 Safari/537.36" etag="MvuYEOw_ZMDLrrXDjQLT" version="15.8.2" type="github">
  <diagram id="9t82ZQccoUW2ToVFGUOD" name="Page-1">
    <mxGraphModel dx="1185" dy="662" grid="1" gridSize="10" guides="1" tooltips="1" connect="1" arrows="1" fold="1" page="1" pageScale="1" pageWidth="827" pageHeight="1169" math="0" shadow="0">
      <root>
        <mxCell id="0" />
        <mxCell id="1" parent="0" />
        <mxCell id="JCZ9FJtGvqnMU7huJ6hj-28" value="" style="whiteSpace=wrap;html=1;aspect=fixed;labelBackgroundColor=#FFFFFF;fontSize=14;fontColor=#006633;" vertex="1" parent="1">
          <mxGeometry x="480" y="1840" width="400" height="400" as="geometry" />
        </mxCell>
        <mxCell id="QhBDd5DWaKf9dE4gqBnc-1" value="&lt;h1&gt;&lt;span&gt;ResourceService&lt;/span&gt;&lt;/h1&gt;&lt;h1&gt;&lt;br&gt;&lt;/h1&gt;" style="text;html=1;strokeColor=none;fillColor=none;spacing=5;spacingTop=-20;whiteSpace=wrap;overflow=hidden;rounded=0;" parent="1" vertex="1">
          <mxGeometry x="40" y="40" width="210" height="40" as="geometry" />
        </mxCell>
        <mxCell id="QhBDd5DWaKf9dE4gqBnc-2" value="GenM3U8" style="swimlane;" parent="1" vertex="1">
          <mxGeometry x="40" y="160" width="1080" height="580" as="geometry" />
        </mxCell>
        <mxCell id="QhBDd5DWaKf9dE4gqBnc-3" value="&lt;b&gt;/data/www/ts/92099D66D4E7FAA2/F417ED28275DAE820000000000000002/211115-10-41-26-848/&lt;/b&gt;" style="text;html=1;align=center;verticalAlign=middle;resizable=0;points=[];autosize=1;strokeColor=none;fillColor=none;" parent="QhBDd5DWaKf9dE4gqBnc-2" vertex="1">
          <mxGeometry x="30" y="40" width="560" height="20" as="geometry" />
        </mxCell>
        <mxCell id="QhBDd5DWaKf9dE4gqBnc-4" value="" style="shape=curlyBracket;whiteSpace=wrap;html=1;rounded=1;" parent="QhBDd5DWaKf9dE4gqBnc-2" vertex="1">
          <mxGeometry x="40" y="80" width="20" height="120" as="geometry" />
        </mxCell>
        <mxCell id="QhBDd5DWaKf9dE4gqBnc-8" value="" style="endArrow=classic;html=1;rounded=0;" parent="QhBDd5DWaKf9dE4gqBnc-2" edge="1">
          <mxGeometry width="50" height="50" relative="1" as="geometry">
            <mxPoint x="90" y="139.57999999999998" as="sourcePoint" />
            <mxPoint x="210" y="139.57999999999998" as="targetPoint" />
          </mxGeometry>
        </mxCell>
        <mxCell id="QhBDd5DWaKf9dE4gqBnc-12" style="edgeStyle=orthogonalEdgeStyle;rounded=0;orthogonalLoop=1;jettySize=auto;html=1;exitX=1;exitY=0.5;exitDx=0;exitDy=0;entryX=0;entryY=0.5;entryDx=0;entryDy=0;" parent="QhBDd5DWaKf9dE4gqBnc-2" source="QhBDd5DWaKf9dE4gqBnc-9" target="QhBDd5DWaKf9dE4gqBnc-11" edge="1">
          <mxGeometry relative="1" as="geometry" />
        </mxCell>
        <mxCell id="QhBDd5DWaKf9dE4gqBnc-13" style="edgeStyle=orthogonalEdgeStyle;rounded=0;orthogonalLoop=1;jettySize=auto;html=1;entryX=0;entryY=0.5;entryDx=0;entryDy=0;" parent="QhBDd5DWaKf9dE4gqBnc-2" source="QhBDd5DWaKf9dE4gqBnc-9" target="QhBDd5DWaKf9dE4gqBnc-10" edge="1">
          <mxGeometry relative="1" as="geometry" />
        </mxCell>
        <mxCell id="QhBDd5DWaKf9dE4gqBnc-9" value="" style="shape=image;verticalLabelPosition=bottom;labelBackgroundColor=#ffffff;verticalAlign=top;aspect=fixed;imageAspect=0;image=data:image/png,iVBORw0KGgoAAAANSUhEUgAAAmwAAACzCAYAAAA0YkD2AAAgAElEQVR4Ae1dUZqzLA+dPfXmW0wX4166FpfSVfwX/k/ASEICRqftYN9zMY8djYHkHEJEhJ+fn58Ff/ABOAAOgAPgADgADoADQ3OgXbnb/bHMz+fypL/5sUw3KzuSzO12Xx7znOub6jwvj/utnZDeH0l2nqxMyK5J+Oc5Lw9HzxXJH7J9IG5EcL9NghfM6edsOZ04tHJ+D9MOf4D7++PGPu735bFhzZjy8bHc14fVfT057kXaBXAfAfcVr258jnEj4XkkJmAApN3fwjev8I1NwjJJp2WmDm1NeChYPesO7jaSTG6A82Na7pxYUkN7PhcvIfv5oeQuBxdzPWBXTgBEEpvueS6Pe8OfXbLelmlu1fOMvl/cE7D9ZyiZGO4Jr3labl0cmC/3Ve623CeBsbq3wx8l18MCuFOsORdbYrjbBCr7/Pm4r8EzqCfCeeD+gf4ihte5+Fxzg9rukZjQa+t0baD2Hubqnk24bmPMW33iK78/nksJaiRjyTaWzH2ZnBGuVkdN5+fp7iZK+3Z5Dftnsff5vrUAW99amaiu38lZG2zdxpKJ4d7igfRzsms3qcv+7fFH6uz/tr7ty/8O257usTD12lLtqxjuxmZOvPih7iemJ+IfU1azU6xteR+ue3WK2DWWTASv7F/df3mcqvxuuLHeE4wJe772+tD9e6o6NjkFuX/Elx7QfkDRnd5oMp4dP4uu8yqTGia9EvFs8M7VerLM4YBgGlt+ekuvnOtXN9sIwM/yY171PrYn2deSNG57PSqp/fxJPTHcdf28e/w6u/7t8sfTXZ8D7r/nT+3T/P8ezin5CHTAWo/PDS3j10fzB7h/BveM19H4bLnh464xvSLukTpD5jjOH/GZV0gOLOn1XnoV+kivGXWAGk3Gs8NrcPKc/M33R+z6WX5Wv/C8vtt9fT28PbmzvsjRqwffl69R8Nle593uy0Svfk0CyPecPUZsH03Gs9X6M3FXJsVzPb+R7SqvOmkKAI3C6oYrdcvfXj32zvXuz9eAO03F8OKP59ueP0k+Y1wnDRpfkqv1MDdKu6dpFzoeevVpnav1Szng3u93pK/4t+PPw/HZ4wbjvhcTuB57R6eeWwz/JO579cR1GxOG8YlXESYqB6g8OTt3ejxZdzQZa4d9Ylrt2Z6wvQYUsSuXdasntfY+cNgapq2n7SCkTK7Pficj7zn7O2L7aDLWVg93Sqh5PiY1xjxvSs45zHbRxzVlDiQl4dXcQuoIuvyx9Wk3fo9/fD9wLx23F3/YT+Xo4S59r+NXuU/K0G+rJ8L5tr5aP9p7mQ+tMTnnZ4tXxuJIfNb1YCyDMaEb21kXHUdp77JO+G3b59A+8SonGo4gYyL11lmNJqPt6DXA8mGA14AidlFQn1PHXTr3fN+5xMqrR7EnlZVGh+ZlfuTXodtom8Dn98SL2D6aTPET2e/jrmXYTzrQ+/j1Od/HjctpH/v3A3eNm8bCuUYjcc32kH1dvyarsfH5E+G8rk+tV/8P3NkfGtPjfvbxOhqfW9yIxIQr4n6kzpBlrg5y9ADxA4puXKPJFDu2RmxeT+YG6M4Z24J9xK7jgaUPtl+mvue23GmUiBJFSt7kHLdmJ1V8onW1zvv1uD7uvr0bT5L/Ophu3Ijwxy/L97/vby0L3NkfmofFzxuOpr0XmfxlsxxRFdfW9tPW4+PUqg/Xt3309Wl54M7+aPm5jVenLW8DDgL/NCfV40ZHzxYThJ7dODwK7kfqDFnm4SBHH5A0+qCSAku20WTIobkRO+truY3J2kQ69u36i4ZccNoClWtTkTtDsH3bI/75rMxx3LOPkq0igNP/9Qhpq7PIvvX5E/f7sfuBewOferkhp13UWNcY7cWNSLuodbb/B+7ZN9YPUT/38ToWn3vcoGvHYkIv/lp72xzhvqw3atwrC9d6vr3wtQaw/InzZdZhY4JHkzWyu9GAArZzI69fiXojXzm42IYvScP67KvO9QODbfQg17nMo2rg53Rasrzm74DtY63DFsG99mGew0bz08rrcZ6vuTOHTfm1wZ9VBrjzXMGqTb6IY/1OW7aL3IHXHS+3gZCeSJ2B+zZP9NzaevRF/P7anhG8OJ7ux+c+N/jjsqLHmdd6RdxVHJNtBb85Lgx6bANEje46Ox3khtd/3Vnb2u5w922/5Xls25eHNL9MfMkpGkSk46ZAxQv51q88acK8vEaLA9vErrbt/P/7tpeEJ9X1T3fBiOGebFoXSt7q7Hwkomzf2+mglfAfCODA/ewuKjHcKej2O/gDegLxsJTXf0AD7u/GPRaf+9zIMTQaE64W5wdNSKqv8s/3Y19qHxzypcCC+CJpBsZo5+AAOAAOgAMX5wAAvDiASMyQmIED4AA4AA6AA9/PASRsSNjAAXAAHAAHwAFwABwYnAMAaHCA8NT0/U9NwBgYgwPgADgADuxxAAkbEjZwABwAB8ABcAAcAAcG5wAAGhygvYwb1/FUBg6AA+AAOAAOfD8HkLAhYQMHwAFwABwAB8ABcGBwDgCgwQHCU9P3PzUBY2AMDoAD4AA4sMeBdsKmFgz808VRcx336nO73ZfHvO61SQvazvPycBZH3RK0+yPty+mtgL5XFu2SUDbnbi8CuZV1ISLu2z7Swrk/SwR3XtRSL6xcrcBPGCUOPfN+rc7CuWE9F8KbOfp9uMcWxY3wh3yk5NS2fe0Yyr4d+fh9uK/9xSQWfjdtOcKNiMy1sR+Zl6ibyy33ZGiLkMg2Ip+TyY2LdgEo24is56abk7VScpc7ZpOwBbZHSVuf0AbA65ZRtBvBHNjT0Cdhe8cFX76B2SuShIDtn8M0slVNDPeUaIl9Q32/Ml94x4rbcp8ey7RtC7aumr+rJ4oPcCccKGF41m1nl4cx3C3O2edlC7mgnrQTCbV3elB7LuX+KNZSDri/G/f8YCXabuJTtRWdiZc1NyRm/Dsiw7L1cSDcje11XfG/jR1D+MSvhA1KlmxjydyXyUnMWh01nZ+n+zLNdguZfbu4Y9eJYCrr1JO39e1fkWXf9s9u7L5fnxjuLR5IP6eydpKxiB6ps/8buGf/WD+8Cnfjf04EtyQ8xh+px9bNj6HyHv3b2quvH9V3Xt7aYus2lkwEr2xDnVRbOyq/GW5U1ynJicg0kyHr27/CHeU62DZxG0rWq4xPLN1ZjSbj2dEYEUmN7rHc3b0gI3blhE1tHM57Fu50+LqhZD36Nd36Ok4mfuZV72PbZFnr830Ql4nYPpqMb7PmaoMHqoH6dtW+q/XW12P/A/d6VFv71cdCy8Rwr/FInXagjfbK2u34Fa9kPYH7Z3DP/DmasEW4EZGpOffzMxrukpP4bfEa2ide5TLBUkKSXlfkV386iI0m49nhBX55Tv7m++N29YMP64scvXrwffkaBZ9tw/fbfZno1W+zY+B7jx7jto/DDc9G68/EXZrXyH9mfiPbXl6V02s6GoWVDXpfj1ef1jlbz1IWcO9zzPNpz58knzGu223xOevs6zmfsEX0A/eX4L72WzydYX/KSoQbERnG2Dv2ePVJ3L264ZyNA0P6xKsUd14/y4+YX5I7KxqZontGk7F2uE9DZM/2hO01oIhd62tBM4eNEgL2j61PmxBePfj+3wYJ1hM5RmwfTcba5eFOAXsSH6DkeVNyTku26zmXeYn59Yd+Zb6vx9YHuNOHQNwuXsUf62cPd+l7Hb/s/Sy7pyddlyPghx+c0N55zqLGJMINi1sLr1v90YFo/4w1H3U9bBkkF5Fhff5xFNx9+/w6Q3Ywv3iAiIYjglEi7JbsjCaj7fAbV11nrwHVMlmvtp3O6a9E08cO0yySQV2fPuhePcr95WvUeZkf+XXoNtom8OmXUfS15SK2jyaj7fJx1zJsvw702a569MXibnVpPfY6l2ePwJ19ov0c4Zj28z7u2df1azIun4/7erw5nLourKt9BO7sm3fhnmLmHP0ALcKNiMweD0bBfa+euM78HPDogeMTSzeu0WSKHVvQ3SYW87XcEWyvxfj1WDryCEDELtanj+/quDNpbsudRoke67Ilv3rC1/UupIzYPppMsaWNe5EpttZPzJ0kYRsdiujxZWS55bfvy3KddAF39oeOP8XPIdzTvFU5olruV/rFqDmfr4+pnf+q/QF39qnG1PeLlim4tXHvtOVtwKHo4ZH09Cq29QAc4A/b1D769mn5T7R3YXvLXpxXU2E0Rn/qP79wG5Qs2UaTIafmRuysr+US0NpEOiJ2WQBzkKhHaKyc52+/Hq17t0Dl2uTpj5+L2D6aDPnpGO7ZH8kOEcDp/xq/pFfIeJjUejwZ/xxwz36xfohwjO6N4r6HUVQPlWnrFm9fLXvzeV9Prhs/UPoyvft716wt57D4pB6yp49XJ2FzHr72uEHlRWR6fs7XrG9797wT9165uPbaNvZifzYqx58vr+/9z62VJD6D/oCefiP27Gw0oIjt90ksyruuzeQEAwIr18smAxLIdkBYPzDYRgtzncs8PM+uX5yL2D6YzD7utQ/Lwr/qqVp8YJOwSXZK3IJ61kQauJ9dYy0WN/Zx53bQf5iK68n6bHLC5eQjcP973Dme8jqZaUFsepNiRkb73MgxOiJzsTj/hod92Z/ht44JL/RHW/G1VsDOjar/urO2tZGwUZJ1F6tku7s8OHPYtqRKlxMJ4DQszwv5JhtEYKGJ7vIazZd7zxy2XO992yP++ZRMDPdk07pQcvIvYepMQla2m9XRV5sCeqiBAvf2DiDKz2772uNPDPeCQ2vUPaqnJWdHvoD7CLjr+Jy++JZf2quHqhY31nhIc5PrhZ2dhOdquL8wiRj19eE31ksnFwAR/gAHwAFwABwAB8ABcGA4DgxXoW/MimGT80SKYIC2Bw6AA+AAOAAOhDkQFkTSgaQDHAAHwAFwABwAB8CBv+EAEjZk9+AAOAAOgAPgADgADgzOAQA0OEB4kvmbJxn4HX4HB8ABcAAcGIkDSNiQsIED4AA4AA6AA+AAODA4BwDQ4ACNlN2jLnjaBAfAAXAAHAAH/oYDSNiQsIED4AA4AA6AA+AAODA4B9oA/X5xy6z7U3put/vymNe9NmlV63kWuxE4dqaV7eVK9kVG6RKL2EowI3ZJ+av8jtg1kozCqoE7L2qpF1Z2FsxMHHouWW5eHtPNPklGZP7m6cvW9UA9RsKU2speffZxby12S/iWBW/39fwsEZmrtO+6nnt+jmDxSZkoFrdJLH5uFsGOcSPZ1dVT+ozar/gfvnkDBxpOHWz7obxB77ytTk9BRq8+nRsg7QJQb0dS7w+ZnUjJXe6YzfW068Bjud/WLae8hC3in3Bn2d5x4Q2A9zv1iF1DycRwTwnbzp6gPz+rrum+7iRxW+7TY5nUDhYRmUabMnwA7sRv25YjW1PFcLftZ93abWvTET0RmSjmJAfc3417fkATbTfFrOeitqJrtEe5fdU5PS0uDIS7sb1VZ5y3MeRPfeIXbvfLs2QbS+a+TM5oSKujpvPzdF+m2R9hY5Csjdlf9rz1D+vYP/7mXh+//TL9+yJ2jSUTw73FA+mnZNdOUheRkTr7v4F79o/1wz7HYrgb//PDxpaER/REZPz2ZMpPHaW115c7ovOc7L6fvc3ubf0/pyeCRa6fTLzIv7aOlc8MN07qaSZD1m9/hTvKrbBvYjacnFchn1i60xtNxrNj3c+x7oRTw6RXIr4Nksx+I/fv0/7x6yN184iOfk23vo7bRgBotKF+1evvg6l1R8qvZSJ2jSZT25D/r7Go/7e+8u3SchEZvz5aTx6xAe7FVxof389aptwrfbsnk9pzHQ+cYL2nh8qMyMi6ob3bh2Ptw1fhnvUcTdgsN87p0ZgTT0dr737bsfWG3IA+8UDJBEvDx+nVI70erAPUaDKeHV4AkOfkb+/+1lNZxHZfn0+AXj3yNQo+24bvt/sy0atfp6Px9UfrErFrNBnPNuvP1DHQ/Db+M/Mb2a7yqjxtGD3dxSvkiIxXn9Y5W8+CH3Dvxx/Ppz1/knzGz0yBMO1oTw/pish4ddy7F7i/BPe13+LpDLf7tMzdDdwb3Disp4X5SLj36ohrJQYP6QuvUtwx/Sw/Yq5Y7vR4su5oMtYO+8S02rM9Ye8HXX+ELWK7rU+bCL16NAKJ6WSOlNeSjdg1moy1xcOdAvZ0Lx8Q5HlTck5Ltus554eThNU676V08BEZWx/gTh8CvTpuWD97uEvf6/hl72fZPT0kF5FhffaI9s7zjzUmkdhicWthYT46EO2/xkTXQ5dxRE+tV/8/Cu7aPl1HXBvcHx5AouGIxCCRekt2RpPRdvgNsK5zrwFlfSkYyNeTyR+1niyr/aPr0ydBvx73B3/5Oi/zI78O3UbbBD79MiL1idg1moy2y8ddy7CfdKDPdpXkLN+jMY3I+GVxmfoI3Nkfnp/rCeJaRvt5H/fs6/o1GZfPx30965uGLQHV9WA9/SNwZ/9oTCOxRfu7hVeKmXP0A7Q2N47p0XVjG8txFNz36onrBbPhfOFVyCeWblyjyRQ7tka8TSzmazkgbK/F+PVYOvIIAMvmo5+wRWzXevoE8PXpe27LnUaJOHkzSeSR8lqyfj2uj7tv78aTvSR865w7Hcom45elsWQZ399aFrizPzQP2YcigTLtvcjkr8zliKq4tj70bHzo6InIcH3bR+DOvtGY+n7RMgW3NhaddroNOBQ9bW4c1LP78Ozbx77Ix0+0d2H7bp0hq/H5c3/4FbCJiiXbaDLk2NyInfW1XGJam2pwrI3ZX/b8vq5ad/n/2L1boHJt8vEsZfWvR+waTYZsO4a7wFAEcLKrP8KWX4XtyUR9fXQeFHBv4NOdm+RjXWMU4U9Eptbr/4/2nv1i/RCJLXRvH4tOouU8WKUyRRwomB3TU+5rxVhrb++ed7b3Xrm41sJviPONSvAnzut7/3NrJUXWU3qdTL8Re3buNyAbQFY9Ef+sCVWul+1sZMPoBY30gcH21J/r/HQDjGfjwXMRuwaT2cd9/Uhj82FZlFW9dhMf2CRskp0VbhEZ4L7NF3xn3NjHnbmfO9460eb2F9ETkdH6Kt5UD1do72fX39tL1jLm7N96TU77SrzPjbgertdFcK/4yNzFkWPGsMd2xSjYzvzacBaLEAqwx5HJDe/I6872CEdLl35tGrGdGkAO9v2GTMPyvJBvskG88qQJ8/IaLQ78njlsmQsRu8aRaWFVrWZPXF4XSk7+JT47k5CVXWZ1dMc/DRngvn6R+7a4EcO94NAadY/oiciUOIr2TrvMvKu/iGJBi57z3F/iIs3/FV/aq4eqFjcI05iewrPrxHmqM/4u54PLVRgkQ0MDB8ABcAAcAAfAgX+NA0jY8JQBDoAD4AA4AA6AA+DA4BwAQIMD9K89QcBePDWDA+AAOAAOgAOWA0jYkLCBA+AAOAAOgAPgADgwOAcA0OAA4SnDPmXAJ/AJOAAOgAPgwL/GASRsSNjAAXAAHAAHwAFwABwYnAMAaHCA/rUnCNiLp2ZwABwAB8ABcMByAAkbEjZwABwAB8ABcAAcAAcG50AbILWI6NsWQszlv6Ks2+2+PGaxWOI8Lw9ncdQNkLRqvb/QodIlFrHd7qUFcWV5DRkpf5Xfr8CCbP2UHoUDLfTs4M6LmeqFlZ0FMxOm66KvZlHc6KKd7TY1Mgc+hderuLGPewyvfT20GwvtliFji7/w8sj4tur2fbivfcokFn4/3ZarhXMb/WDLtzh/zVg4MG4Nhw62/VDeoHfeVqenIEOrV0/bdkM5ONMuAPV2JP6WNJTc5Y7ZXE+7DjyW+40a63Ox25nk7bQe846MHc5sDPHub5H1MQJ9Ke4pYdvdzmvl0MQrot+W++Sv2F7wWLcKO5WwA3fyo23Lke3qjrZ3jnM1XhE9t2V66ASNkxy1tRnaeyc+RzCNyETw4t1lRNtdt5nr41VzI+8d/KT9R9d+hnadmVW/w7yKHAdq72GuRuyCTOkP3u4LvwCbqFiyjSVzX6bpZhKiVkdN5+fpvkyzP8LGAFgbrb8iMqzPP1rf+nK27FfLWVts3caSieHe4oH0X7JrN6mrMOAEd3twqK53A6P1razPJ3+PhenaUaokuPZVDHfjQ4PXST0/Xh2j2Ne2RO97vdx34p79Wz9oW1srfzrceDxt/5BiieJmpafZ5sfB3bSLZp2jtkHuQz71HO0TS3d6o8l4dqxPWnUnnBom7Qvq2yAdv9vIfxW489Oifk23vo6TAUG+ek2v/PTTvqzv7377/vgG3LUNHld82/f8mfhR82s3+AH3elRb4+NjoWU8DBvtXeARxStSViQ2aP4A98/gnvlzNGGz3Mh41aNyEW6MjbvfdnSdITOoPzxgBFHTq8c8JKyJOpqMZ4cX+OU5+du7P/YUfTxw12X16pGvUfDZNnxP82mm5S46oteQazRMI/WpfUn/W38m7lKyy39mnhuXVV6Vpw2jp7sZtS2+zvfUnVC57tVNnrP1LPcC99RRNuOP9CP/7vmTZKJ47enh17jPpe7MC35cJ+/Y0w/cX4L7yhueMrP/KtPjhndu/6GgzYFRcPc4iXNt3IbyjVeZTNTScPJcsdzp0cgU3TOajLXDPjH9LD/UkLcRkV4DyvoiyVhEpk+GXj38oNHXZ30Rkx8N00h9rK0e7hSwJ/EBSp43JTvcXNYzzUtcdaaRWPtKhH2p24OtB8u1j8Cd56FqX74Od+l7XUYbL48/Sc/Kh5z073zQ1H2YAu6fwP1Wf3Qg2r/kBf1ucSNxwcxhowc/7gfbPKrL8B4ki0zm/PmHvyP1gGzx++V84VVYBEwReBKpt2RnNBlth98A6zr3AmfWF0nGIjJ9gvTrcd++TpuXeZ38vI22CXz6ZWj/+LK1f/I918fdt113zNn2OmBq26WejFn92sX3q7xP/gbu7C/t5wgPpR/bHS7r585yDy8/buiySGcesWkn86Vcey/XpeYa34P2rn2mueFcc5Kn5MM5+gFary3rr0TTR23TLB76dX0YQ/84Sns/UmfI+lj+mV+8gn1i6YYzmkyxYwu6ZiJ47gi212L8eiwd/SemSDIWkemD7vtS33Nb7jRKxMmbnOP2sqTNr8f1cS/ckD7deJL810kSnA4hf7UsR+j8MmR59rfvby0H3NkfmofF3xuOpr0XmQheIT2irbXqw/VtH4E7+0b70PeLlimYtvHqtOVtwKHoiXCD60tH/aAn9AhuSPny27evXCddn2jvR+oMWY3Pn/vDr4BNQizZRpMhx+ZGLJf78O3LIFibanCsjVZfRKbWq//fr4eU3wLVboCwdZV6vN/WFlu30WTIjmO4Z78kO0QAp//rUY+kV8iwz+p7+fyxo/Vt737g3sAnsMzCHl5n+NPiRg/DfA24t/yQcFIPo76v+nh1Ejbn4WuPGxrPrLuOE1qmFXd9W1r3vrO9t8rE+RZ2w5xvVIQ/cV7f+59bKymyrs7rZPqN2LNzvwHZAGL17MnketnORjaOdtCgBTvF0P46ob7Mw7P1kXoP//5K3GsflkV91aRxMcE9+a05hy0WtIE7T86vHqBexLF4e+/jta/H4w+tx+W3aeD+97hzPOX102jhY1qiw74S73Pj5z6JxdfXdTmdpI/ixaVwf8PD/uG+BnXofNDW7NebFz62Un0i+12sSt1YTZoXq0yvNI3M2iDVa07+KtB/3dmeS9LSJfVEZLJvIw2ZhuV5Id9kn3jKpPky8hrNo3jPHLa1vr/G4pN6WjjoicGJO+tCyRt/nEnIimNmdXSJZ5WEOMEHuNOuE2LxUuEj5edTMjHcS0fawiumJ7dBsdNBgxulPD+Z2zo1tPeT3IjhlV4t8vSR1CfQ/F/xpf3KxdxGW9yg9u7MYWu8er9ae9+4KNolzuUYP7Afhq/gmSwU96ARggPgADgADoAD4MA3cQAJ28DZ9DcRDbYgcIID4AA4AA6AA+c5gIQNCRs4AA6AA+AAOAAOgAODcwAADQ4QnkbOP43Ad/AdOAAOgAPgwLdwAAkbEjZwABwAB8ABcAAcAAcG5wAAGhygb3kygB14ygUHwAFwABwAB85zAAkbEjZwABwAB8ABcAAcAAcG5wAAGhwgPI2cfxqB7+A7cAAcAAfAgW/hQDth+/3illn3p/TcaDXrWSxuOc9ilWrHzrSyvb/ApdIlFrHl5E5dp4UZ98q6UIP5FF7ky1eUFcGCF7XU+8g6C2YmDvGCy/PymG6mod8mschzZwFV5spVjq/A4lWYRvTs4x5bZHVfTxU7OnHjKljLen4f7mu/E2inkbYc8Y/0J35X7eVCfd8FsGs490Xbx+SNdedlevsWVzk40y4A9XYk/r5vlNzljtlcT6uQP5b7bd2KxCRsR8tq+Hgj8v4WWR8j0pfinhI2Z09Q7dcV14lXRL8t90mv1J8TP3Fu3b5KbXG14QrcqbN71nt9voRjZ9tgbmtli6KjejpxA7gPE+cj7TQiE+q/roh7uM57MQzXdR/ydn/4Bdj9MW1SMZbMfZnc0ZB58fbdpMY6T/dlmv0RNgbB2kj+OlYW62ofrW/bsj5er5K39tq6jSUTwyIF552ELdnVlak7+4yF9UcUI+vbV+F4VI+1wdZtLJkY7sYPnCxu2wsd0xONG6Zc1UFa3/blo3w6LjcWpj/Lfn0ieEXaaUQmUp8jPh8H97/iG8o9whdX1jvpE0t3eqPJeHasG/LWnXAK2rQvqG+DJJUNIH45dI/2T1uu6M9P9/o13fo6To7qmVe9j+1JtuiKlLcn4/tD2zWajG+TrnMEG98u7d8sU0ZnctlHOJL1Afd6VFvj5WOhZWK4a/zWDriOByqZynrdsg7Ejbpc4B7BNCITwT3STuMyfa769dH4j9beI3WGjMZwGH94FckES6950isNej1Yd3qjyXh2eAFAnpO/vfu9Jyxfrr2RfEtenu/VI1+jJGHb8P12XyZ69et0NL8j2WiYRuoj/ci/rT9TB5w2gV4TYjPnkMsqr7zoVR6NwpfafpoAACAASURBVCqfru1hWkdoaFPwuX7lF8bF1rOUBdz78YexlseeP0kuY1x3wMXnrMvTI8/J33zPkWPv/nwN7Z1epXv9judnx5+RdrorwzHhZ/lp9oNefVrnnHpuseKTuLfqh/M2FgznE69CNVHz5Ozc6dHIFN0zmoy1I4181E/T1PC2c70GlPVFR0/csrbGaOumidGrR7ST2Ssjcn00TCP1sXZ5WFBixfMoyfd5btVzKXPPclnPOXcSCZ80omJfmZuJyuv8TI2prZe9Dtx5ftvx2GL96+Eufa7LsPezrKvnYNxgXf4RuH8C90g77cuciz8+5sS3UXBvc79dd9wziG88IARRRdKRAt6W7Iwmo+3wg3Nd514DyvpS8JavJ4U/GEC/LF0flvWP/XrcH/zl67zMj/w6dBttc+rjlxGpT+2ffM/1cfdt1x1ztr0efdG204hrnhMZ+7DFL7fgA9zZF9rPER5q3+63wezr+nU2l89HX09dnz5urKt97N+P9u5gu/U7zjUaiaviYKSd7svUuOeyNVd1fdqYk9wouB+pM2T7mH7cP16BPrE0UUeTKXZsQXebWMzXcgN054w5jZ6A2kvY2mVxmZGj70tNlNtyp1EiTt52kkh9b6QOJOPX4/q4+/Zv2KVg3wnOGzc6Mo0OpY+D7299D3Bnf2geFkw3HE17LzL5az85oiqurZ19W8/xuMF19o/Anf2iMfX9omUKbnt4ldHzfI/WE2nLx+rDNrWPvj4t/4n2Xnyoy8b5C/jDB8kmKpZso8mQs3MjdtbXqp7AMjDWphowa2Px17Gyyn11Ga1EycplHVugcm3qlbN/zdprfTSaDPnpDBbJDpFo0f/9EbZOkN+Sun0fF1ytb8s1qwe4N/AJzCGssa79fIw/x3Cry0J7Z25bP0ZiC/mzj1eknUZkvAd2W2eLL9tXH4/d+872Hq9zbQP+/2PfNQDgz9/fvn7azxJa6yZQn34j9uzcb0A2gGQ9R8rKsrazkcC3O5T1A4Nt9CDXuczD8+z6xbmAn1+F16v07GNR+7As2KuewsXE4oSNM4eNcapfiXqv2oA7zxWsHqBexLF93Lkd5M65Tsa5/cX1sL5+3ADuf497pJ1GZEIxSo3QXiTOv+Fhn9sTjhwn3nJsK42s8DyOTA7KR153tp90W7p4rkTrOn2ByDLFr5EAToGBF/JNNohXnjRhXl6jxYHfM4ct13kcTCP1iWGRbFoXSk7+nf2lUZTt7i4GtJgyzykkvGleofiCVwRC4E47gIhFhqVv7mK3iFMyMdyp8+gnZHE9pSP6fcKG9n6WG1G8Iu00IlMe7ra4sT08lxhfeNZP2EbCvfBZ24HzQ/tj6MrpJRVEwAepgBs4AA6AA+AAOAAO/EMcANj/ENhIgJH0gwPgADgADoAD1+QAEjYkbOAAOAAOgAPgADgADgzOAQA0OEB4ErrmkxBwA27gADgADoADr+QAEjYkbOAAOAAOgAPgADgADgzOAQA0OECvzM6hC0974AA4AA6AA+DANTmAhA0JGzgADoAD4AA4AA6AA4NzAAANDhCehK75JATcgBs4AA6AA+DAKznQTtjUIqKnFrfMuj+l53a7L49ZLGo6z8tj3anBTcrSyvb+QodKl1jEdtNzo9XzZVn+Qqyb/IVI+ym8yDevKEth9aQFOS3uvIitXli5WoGfMEocogVx86K4j+lWNbZqsc1GuwDuqw8b/vkM7rFFVl/Knwu189T+gjFT+ciLh9SWpa43yoTbcgCLUJ0Dizwfau+/6XeO2tSIh6m+u7GunRtIe2+TWATbXWxc6OnZfkRPwA+8k8U7F5mXfvjQb+FM6YQXbR8T2trjJWXl4Ey7ANTbBvlb0lBylzsVcz3tOvBY7jfqnJ+L3XbotkwPnaBxB6S2OpL+7P7ur5z+ISLkxOQlWLxuu7F9/sRwT0Fe7Bvq+3TVNfHOBbflPumV+hMfaDeLdbVz2oViDuxl6ZcH3Mkv1HZox4hJriC/y8MY7tbv2eelTcf0xPjTiKWm7Y+Ce8z2vDp/Lx7m9v6YPyPzMix243wwjhl8ezz4Tb/T08vXgpj+rHKdWGfbDpdRjjl5FjEytdvn4veDbduP6Snl9+r4TyVsNlGxQWYsmfsymdGQdVsap6MmgszTfZlmf4SNiWBtbJPliCzrz0frW329Xear5awNtm5jycRwjwT5ZJfDleJjDnJ61C3pbowolHs9DK1v+/KejtecGwvTyKbbMdyNPzkR3JLDmJ4If0xZzY58FNxjtku7LE8s/94t81oscv1bdbbnf4cd1f3V/Y7E5+cnhmmyqxvrLK66HLqefVEefvq+bNt+TI+tR6SuXyPjGeKTUjeU0WQ8OxoJWwratOenb4MkhG2wfjl0zxHZXEZOAPRruvVVkkwA5KuGNMStR/dkfX/32/fHN+CubfAw9G3X/sx41U+P+7rr8oB7PaqtfehjoWVqn+b/92SiHVWtp/5f88Kvi5UZDXe/3j1bIzHu3TK9+lmf+zbWcn6dz/Ow1p/+f1O/45ZVPSxon/l2RfRomawnlLB1bT+gp7JL14ewrtqYl5QG+9P+q17uC8qoIb0lsFNoYvyzdjTv8y5wZX6Wn/S6Ir8C0qCPJuPZ4RFTnpO/vfvjSVh+rdMaCvZ1F5B69cjXqFFs7+LT/Llpue+Sd6/c+vpomEbqU9tA/1t/Ju6meWk8t6qe58Zl6QZIT8MFpyzTTza8+rTO2XqWsoB7Soyb8cfzac+fJO/jV3zOOq2eff7wvZGj1V/q8Encvbr26haLh37yo8v6jcxrscj18uvDMaHXD2q7Co71eelX+buW69XHl22XyfJ1eWxXL9bxvTvHtX3ydAZ/iogsX/4WukN6hHyg70uYmoQtl7/Xn2aOiWkaKeGUb+OyD59pGkCul7knUMd97IzN5sQW2ErAzBXPFaKRKbqHQWcy/7WMtcMFjIixgdggj3C035DXslYQtwnqvQ8chE4LUq8e2c91kmB1WPuPy4yGaaQ+1m4Pdwokk8DHJti5LNkA8/w52UjXDsvMYaMkkNuFrU8bB+DOc9eOxxbrZw936Xtdhr2fZT09+/xp62O95TgK7rbOnu2l3oMkbLtt2dolbfB+J7vlW41wHxcs65X9TrcvsfWxmMZinecn75wZiRJxNskHbd/V82u7yTfZ9n5/6rfPFD+23MHRs+YD9RsYz2e/OGcBZqPqgr0KjyOj7fCDc3ZyqbMPjHSm35B1WSSfnyx05y719H/363Hfvkadl3n92GEbbTtI4n49av9kO6+Pu8WL/KADmdMACddpFgk+6dFfiaaPXIyMX571PXBnn2g/R3iofey3dymTfV2/vuHy+bivp+jU/CnnWVf7OAruus4R2yPx8JMy7GMXizRqs46oP/ux2a/zAR52y6r19PEnm/z6rHh1y4pgGo11PBjT9mHqm+beh34x2/f1aLsY997R5UTyLa/u0OpP6zpLv/ODuSfjnTte755NP/5Fn1A6qI4mUxyzBZ5tYjFfyw5154w1Rki6DadKlrR/uMzI0felxua23OnJkpM38zQYKWdPxq+Htms0mWJTG/ciI326yScc/camZXw9rcAgy/J/+77UssCd/aF5WLDYMDLtvcjwaGl5WBPX1nYc0iPa/CYvznFd+8dRcC8+2Gzp+XAvkVj9EImZr5JhP2/1P4xF9oFfHx+nVNY20lJ8yHWxx/f2O7a8XKfNJwbT87FOl9XRs/knYntET8TPWqYfl3tx1a/PNj0sccyT8c7pOmn/nbrm32QJbMk7mgw5I5NUvHvuNmBrU+1Qa6Pvr63sjahtuboMb86VlSn6tobYta3I93TV16y91kejyZANx3DPvkl2CLzo/3qoPOkVMrW/eDS6vs/KeXhY3/buA+4NfOolQZx2UWNd+/kV/Kl1tv8fB3eq4xHbbdu3vP6kDPt4D1+Wax1bdbbnj2Hnl7evw5Zr/ezrznJ7mJL+Omale7qxrq6Dn6Dksnkkqr7Hs/2Mnlqv/T/5MGCPra9Xx/pti1dn75ytVw+3wLWGwvQ+dt7m/ZxbKym4js2LytojqXWGD4yU8xsOLZorhoEp6KX1uGwjIF25Xv41LqtNrrqsXOcyD6+Bn9NpcVnd44uw2F8/7XXc2Me99mFZsFeNuKRXDWWNNR6VUYHtPonFmNd1+hqjs8D97BprMW7s485tIwdShaNoH/t6gvxZdV4J933b2Yf56MfDT8ocw6Ib6wQHmnZF4qHQEyvvbL+j/dwqK4RpJNYF7OJ+i9elTAuP08ddzTdAvu1H9ETaF/mGderpQzV//P7U+DDxQPbhXnLmnYth1sLSOd9WSEnazF/WvXHFcqrU78vKzjryurM9stXSVZ4aKEFTuyp0PukNESwt4ljmCkjC57LKNZo3pUnYxtABXHz16N/3eyyy3s/oaWFF/pJ4PZZ5XSg5cYT4XE+OrXnoYurMYTOvHFb7aW7bztwZSgp5AedULxHogHsv/sRwT7El4dAadY/pSVwO8KeUJ4O7086GwD1mO48i29ha2tcnZY5g0Y9/LfulXbG+qV9Ojb+ftMR8WOuq/2/ZpONh4qns391YV+v2/tfxkD4imuWKBibpa9ke1xPqT5sJG+GpY26rPzUfQah1XrOf1QO//BDT2O357tS5UzftdvrHCIw6wF/gADgADoAD4AA48BoONEdN35dMfSIveo1zQDL4ERwAB8ABcAAcAAf+ngN5BKw1DeLv63eaI6dv/EQ2iTKu/TQA/IAfOAAOgAPgwEc4kEbV1mlcrVedF07WyIdI2OADcAAcAAe+hQP/+++/BX/X8MG3cA52fCx+fqygj2TYIA7wBAfAgX+ZA5Ss/cv2X8V24IQ4dYKrcNoJpyEgYmQWHAAHhuQAEoFr9GnA6Ro4DZYfwGmDATJkJwAfoZ2AA9fgABIB4IS2eg0OnMDpaw1D4oMREHAAHPjnOICE7Rp9GnC6Bk4nkqp3xpy20z6z8Gku/xVl3W53vZjtPItV6R071010vU9/lS6xmKkLXkePKz94J/oKLMjuT+lRWNEXQg7uvNiiXvxTLqZ6csHJxoLSwH1d6Lnhn1dwYx/3GKb7etbYkeILL2A9Lw+1kKYTX/6onb80EVhj29Zu9mLhH9ls2tuNVrTnTb4pJvgLZZv7nPr3F1A9j/tLcXLqHbENMufx+yPfNSoc2ZJjKJl13RW5ZRQF2OZK85Tc5eBrEra0CjltUbRuPdQNUh094UbUWv25gU1Y74n7h8I0skVRDPeUsAX2ldONcN22ROIf8U8YH+BO/qbkjVZIn+SOEbt+juGu8aT2UGMa1cOx5L7uMnJb7tND13kQ3N+VCFxnIdLbMj10gsYPCHpl+v34mB/0BM6Jl8/lqB7Lw5/0Ja93Huf2cfmHfeQ7xzZO27mMJXNfJueJt9VR0/l5ui/T3N9Cxtqo/RXV0yeY9W1fXtfhlbLWXlu3sWRiuLd40PUdJw0ikYjY3tWpOnXr2/i9r+VAxK6xZGK4G38aTGN6ku2HE/4WRu/FHQmb73fLX1+ucCbjJLcJpGvH9fjlvAunUn+/XFy/tF+8yvsBRXd6o8l4dqwbr9eBNgVt2i/Ot0ESuts4D+iROsvv/NS+vW7gfVvpqEZ16le9+umx6PN9EL/u++MbcNc2xPxkO+mIfyK6gXs9qq3xOe9nrcdiYTG1MtRetB6/PvF2xWV8Bvd4IpDr85jKWwIa6Wy96u3Gwp884rjtPU1vNtSektmHKq6lh5ejvs11nud1n1l61TnxnrPVKK16OKoTrdX2O2NDx/qcX+e+H6S+/u84Tn09x3kIfRf2mQeeIG56XUGvB+sgNpqMZ4cXDOQ5+du7v27kUkbeK39Lmejv3v35GgW6bcP3ND9jWu5VQPo9CUfDNFIfz8fWn6kDlgmxM89N+y+XrROLs/Xx6kjnbD1LHYB7eu3UjD+eT3v+JHkP04gexl0nNjRCX/Dy9LTO9er5e9zjiUC2S72OTg+h/luHbqJCG2pPVYyiKSfywZOxlHHLex0ur5vfEsO1/qmM4jcPk/zaXb7KZEwlRs65tc78up42Dp/r1/emjlJn+3ccp7YOz1ac+2p/ecYJ4ooGlTs9Gpmie0aTsXa4T9Nkzzbi1gucWV8zSB3U029EvXpkP+vEwdra1x+VHw3TSH2sbR7uFGin+23rYG0A13o01/naufq0sQHunCxof5/zs4e79L0ugzG1R6sn14cmrtODa9LZSWxkmf7v9+IeTwSyXXVsSX7aYmTxTzMWthKWNdkpD5YC1/Wewzplv1PNRzS6VozyG4z6AzRbF9WnCZvMRwcijvj4Fp/1rsdxiunrlYVrX+NDzxCPzJ0RNkXuWSREn9Sj7fCDc12fXuDM+kwQSLYe19NvMP163LevneZlXifTbqNtwvf9MrR/fNnarnyPDuCjyWi7fNy1DNuesHU6Jh75UqMDLu6ef/yyuEx9BO7sj+Mc037exz372mIa0ZM5H01s2Kb28b24xxMBvy3/mEQr+8iPhew/mug/L/KVaE6U+AFf6NjaXKP8bkyT92g/ttszfdhCI2Ny5FDqYRvsuRR750kk6lmm5kIba9Ztj3Gc7L1nysM9X+FHzwjdEBhoHVRHkyl2bMGbn4a3AJAbmztn7KkDC9vsB6njeliff/R9qWVvy51GiTh5k68aNvuKD/S90fN+Pa6Pu2//xpPaf+uTuf0SLOIfvywfD1+flgXu7A/Nw+LnDUfT3ovMTxPTItPWYztyqtMmX/Nn9//34h5PBHy7jids2R56c7GNQJIPvMQv4ZDnmrXwZLz9o6yz9mMvYdvw6iaLUjfxov4/c+VcvQvP2K44TvZe1oHjP+cb32CbqOjGQUQZTYbqlINof/JpIbm1qVzLfrE2ev7a11Pr1f8fu/98R+HVXZ+z9tq6jSZDvjyGu8B2C+DFD8k+5zyVE7FdY1v02vPWt1am3A/c5QhJ9ksU9x6m5PM9PXR/PaqS7mnwpIcjj+DW+lr3HMU9ngjkhKSuR8suy33mZiexMQ/CzPn9L/R9f8iyWFee6hDCeMNL6lntMEm9I7NxxX/A9+vMftLHOE76viNlQPbrfNcwiJ+E1vf159ZKiqyj9TqZvaBryasbvL3uddCev/p6cr1swJfltYMNLQApn1xzWWUenlefX5z7StxrH5ZFfe0oWg7SdSe2YRXxzzrCAtzPrrEWiwnx9t7HNKSHR4t4FG/t3D2e/DXu8UQg+4XnESaO79ol5vFtI4lrTHpM24dRvO7Z0yRsPPJGa2C2H6zbPpRJlI67JYZ67b1+JVrHUVpzMy+0K2MC69xGDte1PfderW/xYvORjclxnOy9Ef2Q+Uq/tY0qjW5dKZqDlSDhODIcfHglcnlsPQ3pBl8I3tJ1VE/2bTv4CN+nxXpFncUrT5p/wYv80uvcWQTGUmehS+Bz5vo4mK7+u/Nn+x4PW1iRLwteyaZ1oeT0Sryx8nmk8474h/wO3D28IphGZGK4FxxaycEBPZKHneUv/hr3eCKQbY8u65FGBnlKhpoPRgm2/IJ2jVGc5Jp4tPpcxLg6TrV9uNY5Lceh4zcnVzS/N8dMsdOBh5eMuWlHDqmb42lJ5PJUGppHLL6GNbbxffvHOE77umr/4f+v9dnXGrZ9EQjyAmNwABz4VzgQTwS8BOUDPFlH8eRI1r+CjbQzjtMHMPlF4iltwu+3Y/X2ApA4oTGAA+AAOPAhDsQTgb9J2ORI2L/cwcdxQh/9L/Oksh1kqByCjuVDHQv8jrYHDryeA/FE4MMJW3pFSlMVWq+nX++LkfkVx+nf8svImA1QN5BhABCQJCJJBAfAgZdwAInANfo04HQNnAbLD+C0wQB5SdCGTeA1OPBvcgCJwDVwB07XwGmwOAqnDQYIEjaMtIAD4MBpDiARuEafBpyugdNg+QGcNhggpwM17ACXwQFwAInANTgAnK6B02AxFU4bDBAkbBhdAQfAgdMcQCJwjT4NOF0Dp8Hyg7bTIguEjiRzS4s3isUS53l5rDs1uE5fv1pyVyuXupwFHnlhR70v6Xd8/TQSpoTbXn0iuO/jlb+Y03jyQsZlAd5Unx1uuFy7QAKy5+cIFp+U2cc9humr9IyC+3ckAm/4grW5kG+7D3wnpt+B09/47p24DK674fDIFjxDyeQGTrsA1NuIeAlZ2th3XfneXE8rYNMWLLTK9XPxtiFJCcC2L13Dh+FOWq/Y/aeEGQrTyBZFMdzP4bVuXyMT9gA34vgBd/IVJYpmqYddHsZwt1jUmL5Kz5EY8F7cvyMRyLi8dHFdJGynR21tOzrCd8i+0H++M22iYoPMWDL3ZZryJsDSOa2Oms7P0/4GxNbG7K+WXll2/Lf1bfxeH7+z91t7bd3GkonhfgovThqcLdnIv9YPR7Gwvj2L22/vs7bYuo0lE8Pd+MVg+io9R7C3vjX1DD/s2XK/I2Gzdv3aR0jYkLD9ol39mn+vKdtrGH5A0Z3eaDKeHet+jvVIWAra9JrLt0ECYzupXI72hV+21OP/zk+R7ms4NapD+/TJV72PZeq96j1NDN8f2tbRZHzf6zo3eLDjp4R9zR1xT4sbPtaynsC9HtXWeEU4Jv1Zfms95Txjsocpy71KD+vLx8/gfjhh2xIZsR/orDd5p705520v3nl5OA/HP3JvzrTn8Yk9N1Ns5qkIz8WOsPHIm6irt09o2stX70F8n2gkt5resGeXN/rrnRNxQWNuOcjXD+N0ogwuC8c2DhfzjWcIN4qf5Ycb863u9EaT8ezwAr88J39797dHUVJAf5bA8tybL9dtbL165Gv0WpY2NU7kut2XiV798v8vO46GaaQ+Hm7Wn8fxymXXiYVs3OcTNq6zrWfRD9xTZ92MP+xDeez5k+T2Mc3+f5UeWTf5u6f/97gfTgTWBGR+iCSNYgwnZek6JU/rG4w1qVLJVC2zbsA+pU3ape3R36Ltq/iWzz9FQpnbtp4/bM5tiaBI2Oo6e3alxI8elvm+KIf27TyMk/LDvv4SSyD7Rb7wwBSNZW3MEydsFXFLUM0NJjcUTe7PyFg73KdpsmcbNekFzqyv1SnTE6cc5crzcLwnQlsvS55ePV4XIGy5dd2+F/ejeGke137qc2Pfz6wPuPPcNe3vCA/Zh+XotnfRyekyyn01Xq/SU+st/78X98OJwJa4eD7Jda3n8SZfVnG0lin2enr3zgkOCAzdpNskWr5/Nf4Ru7iOLDstE40yyrcfqm4sHzsexukXZf0Oi5g9KOMjfvIK8RuLbqSjyWg7dOPka3Wd/YYtiddK2KQM/94L9Cxnj/163B/8OnRe6CmYEsVttO2ljbj2T/bb9XFn/PWxjRcH6Ht3zscRbljMqS7Anf1ynGMaS7+9S5kYpq/Sw3b5x/fifjgREA/ltr45JpiR5nSP82D+snjkxyJO2NTo3jpyWs417nXq3LdL8ifrLCNt8tq534dxeplvz9XXcgN6/sAnntP9gKKD6mgyxY4t6JrJ4tzoxKvM7bUmB5+ih8A40ilv5R5uWL4vNRluy51G9Th5e9FTXl0GPUHWQez6uGtM2eYmXuaJ3b//CDe4TH0E7uyP4xwrmGw4mvZeZGh+1fzsj4C/Sg/b1D6+F/fDiYBKZITPUhyLxMxGgnQ4DsqyWzq98/W5+v9Vr7Izy7jzh7e3SKI+6V7qN/Sr1zbG4t6GHw7j1NDzmzrg3n2cBvORX2HbGdkgM5oMOTYH3WijsjbV4FgbfX/RfUl2e03QlqvL2BtpqeW3juUNDdjaa300mgz55xjuGZsWXq3zNQ7WD0cwJ1nr27oM+T9wbzxMBDrRPUyj/NnTI/Fq/34v7ocTAZXI1BzOdS2jV/X1wuNXvSrMfmskXWY0jcqvZX3/6vYTsYttzfrpQVbr4OvnjodxekO8b3P0nE3Q93a/NQpIT6TzNk/r3FpJkXW0XicTDbqFVH7DLtdbI2zrpH/xRM+LjnqBLdfLdjamHDfZq8vKdS7z8Br4nW3cX4l77cOyGK/FqwRniY/3ey9hA+5n11iLxYR4e+9j+io9zJG/xv1wItBN2PSHZ5uN92l5TGLKwDoCtX2Y0PnoIOIfm4RxnKuTMzrvnEv1EQ/u6wireqXJdqs4Xtm1PlSVZPR18fcwTmdjOu7rTm1hTl/kyA3BHjkJScPG82OhDw9qo8aRyY02PMSdSNxK2Fq6ymvTZPf2mftzoa+W5EcI0k+hAFV9El8CBHV60/IQZdHiwO+Zw5bxHQfTSH1aWNHri+N47XferfJKWYw9cF/bxVviRgsHjTth0cf0VXpKbPxr3A8nApy4dDp2LwZtC5TzfVUMm+WX7Syz4eE/wKaHoG2aipy6wu0r46UftLxzhHtsWY86tkq7cn24bMY4l1dPHeF2Hz0exkn4MFoG5Bizrzl+jSEmmQRZgS04AA78axxAInANzgOna+A0WPyA0wYDBIknniTBAXDgNAeQCFyjTwNO18BpsPwAThsMkNOBGnaAy+AAOIBE4BocAE7XwGmwmAqnDQYIEjaMroAD4MBpDiARuEafBpyugdNg+QGcNhggpwM17ACXwQFwAInANTgAnK6B02AxFU4bDBAkbBhdAQfAgdMcQCJwjT4NOF0Dp8HyAzhtMEBOB2rYAS6DA+AAEoFrcAA4XQOnwWIqnDYYIEjYMLoCDoADpzmAROAafRpwugZOg+UHbaddawHVn+V2uy+PmTdKp0U750WuvG0cv67O7S2AqHS19u1M5fHijvPymG6ng6yp2x92WN+IOy9mqhdWFiuhr6ul6+uMbVk4U/GCFvjc49gf4niUU9+He2xR3CimaiHW57jtHYlAu0872ibeKQ+croHTOzlwQnfDaZfbomhdffoxLdtK1ZRQPf0VtdN2JuvuASZhSyt2P5b77dbZ/J1139ddB27LffJ3g9gHpbXjQgObdyYBX4p7Stjcrb96Pl63odkS9qMc6+mma8Cd2gYldrn3DgAABdlJREFUimZT7V0ensXiHKY54Rfte93qSK+4v4c3X38v7kgE2M9jH4HT2Pjs99t/Un+/ULtPog0yY8ncl8kZ4Wp11HR+nu7LNLcSuuwXa6M4fzgB8H09Usdt7f0O3Fs86DZKThq2rZWOcayrOyXd1rf797Q49Lvz34q78ecpTDNOcrs40mt9FsXgvbhTIoC/a/jA8POdD+PQ/Q1vwLwg4wcU3emNJuPZse4jWCdWKWjTay7fBtmI/KC8f5/U0f6dRwnc13DbqA5thF2/6m3vW9ouy/ePlvft+gbctQ0RX6wdcs0dJ+gd1w3c61Ft7cMID30MtR4rk9rzYUxzfX6fsI2Gu/WPjge4Dn+AA4NxwAMkB5Y03M8bA9/q5Gc0Gc8OL/DLc/K3d3/rKZptp0SK5znlEbtz4Pbqka9RZ7Ft+H67LxO9+nWSh3Pls+1s18/y82W4p45cbiq9O/cs+6JOLKx/e9ixX1vH3r3AvR9/PJ/2/Enyv8B0bQ/TOtpKm6HPTzkH0qtP61yvnp/EvVU/nLftHD6BT4bggFeJuuPOgSl3ejwBezQZa4f7NE2Bd3vC7gXOrM8fYcu2P2ea57aWu85p2e/gbT37r0SjnYyn9+i50TCN1Mfa6OFOHex0Lx+F5HlTz6U1B0lz3ZbBwcsri6/tH3v8A+4lYfPij8VkD4vfYmo+OhB82sda1ncU3GWd8PsYhvAX/PUnHPAKFR2lGMVJAW9LdkaT0Xb4wbmucy9wZn29hK1OzrR/dH365O7X4/7gL1/nZX7k16HbaJvAp19GpD61f/I92q7RZLRdPu5ahv3U7uAzHvUrML6Pj0fK4nv0EbizP45zTGO6j8XvME1tcI5+0KTrxjaW4yi479UT1wtm8AV8MQQHvEr4AUUH1dFkih1b8ObRry2pycmGO2fsySOHRQ8RtJew1aMzW7lbeVpXm/C+L7X8bbnTKBEnb3KO2+HyWvXy63F93H17m3ito6U1vhKP7V7DMb8seW/57fu7XCddwJ39oXlY/BzC4leYRh5SSn24vu3jKLgfqTNk23jCN/DNxzjgF2QTFRtkRpMh0uTgHZ1bYm2qiWdtzP6i858aYavrtHVQL0vUCgesvdZHo8kcx71gWF6PVz7YRpLLecbhGMfs/ayn/yrc3gfcG20uMJcscfY0pp2ErfGgVzC2OI6Ee7+eXt1xDj4DB/6QAw3npyfSeZv3c26tJPrCcZ2cu873eKee4x2pTUZqIGxysvpLTMpP96xP8HUSR9dyvWxnI8tqdyjrBwbbSE6us5doSH2nf38Qr1dxYx/32od57a/56c1hy52zh2PBMvZAANzPrrEWixv7uHNs+z2m3D7LnNWs03ttfinc3/DQdzr2oC7fsOwEbHgvjzmo2SMlV9SppVeIs1g0UlRoHJk1gHJ91dF/3dl+0m3p0nqU7Z2VzyMBnJKX8sXpc5EdAU2Yl9fmx1S+GBVYvCpQKru+BPdk0/ZFL+1Q4C+N0k8CWrygNqK5UZK7fqIO3FcstgeSEof6PIxj8RpMaRFtnktKeNN8UvHltmiHV2vvr4ob0FO4C1/AF2/iABz7JsfiSUN0YvAx2hk4AA6AA+AAOPArDvzqZiQlSErAAXAAHAAHwAFwABx4PweQsCHjBwfAAXAAHAAHwAFwYHAOAKDBAcJTy/ufWuBj+BgcAAfAAXBgdA4gYUPCBg6AA+AAOAAOgAPgwOAcAECDAzR6xo/64akUHAAHwAFwABx4PweQsCFhAwfAAXAAHAAHwAFwYHAOAKDBAcJTy/ufWuBj+BgcAAfAAXBgdA4gYUPCBg6AA+AAOAAOgAPgwOAcAECDAzR6xo/64akUHAAHwAFwABx4PweQsCFhAwfAAXAAHAAHwAFwYHAOAKDBAcJTy/ufWuBj+BgcAAfAAXBgdA4gYUPCBg6AA+AAOAAOgAPgwOAcAECDAzR6xo/64akUHAAHwAFwABx4PweQsCFhAwfAAXAAHAAHwAFwYGQO/B8grQbIBhUVnQAAAABJRU5ErkJggg==;" parent="QhBDd5DWaKf9dE4gqBnc-2" vertex="1">
          <mxGeometry x="210" y="90.5" width="342.91" height="99" as="geometry" />
        </mxCell>
        <mxCell id="QhBDd5DWaKf9dE4gqBnc-10" value="" style="shape=image;verticalLabelPosition=bottom;labelBackgroundColor=#ffffff;verticalAlign=top;aspect=fixed;imageAspect=0;image=data:image/png,iVBORw0KGgoAAAANSUhEUgAAAgAAAAESCAYAAACLjm33AAAgAElEQVR4Ae1dP3LbPhNllc6FC1eZ+ewulSs1GR8gvXtVLtynd2ZUu0kqX0Dtb0an0Exq30FHSI1vFsCSC2ABghRlSuYrPKQpcHex+4h9+EOwaZrG4A8+AAaAAWAAGAAGFoeBxVUYhAekDxgABoABYAAYAOMDAQIGgAFgABgABhaJgUVWGswP7B8YAAaAAWBg6RgAAQDzBQaAAWAAGAAGFogBBH2BQV8660X90fMDBoABYEBLfuvtwRwO7m+/WV20k2RduE7Bcbs2TbM228PBaHV192/NerUx+8PBbNchYVpt9uaw35hV05g6XeH9mv8v/5rzZ+yrc6zXarU22/2+xfthvzfbdYp5G2f/TBwsZjJxXG9bPDTy/CSN7Rn4merIfqFjyTcn8UEmDn26Vmuz2cq4b81GiXsNZlebrW0bnB/2ZnvhbWZNnVFmJO76cPnxv6cVsYnMJ7X5A70ym72enDvbVma93fc/hDaJ781mVVtnp9s2ahUEoLOnMU1BV1Du4wP+AYTuDBJTlV898dtuzJoxQYQgQwYpbvbZKCQ5SxT87/L8NDE/Lz/3+eY0Pkif5X49K7PZhgl/tXZJfChpdcRw27UpmXai36Yx9cA98OvRGEgFXBYB4EZ8bXvhBIjV2vXWkx59KSnbnszWrGXikA+zPBdlbAOgkaWSLnE/AJzi7+N8sjYbpbeWjWkvAXCE0SUReT5nHT9O9+UQAN0nw+0XHQTxTA+Xo9vzcc8B9C/Y12nwewlAmyxp+NRPF+xpmLyTVTMsVi7jEnswvMhDjaIHlnvY1DqUkrKW4Nt6co++PAUQgKikixqLVnbOhyuzDoYWD2a/7UgOT1ts1+L+gzL8mAxxhz2f1ubVposl9YADXS6ullhxvFVdjnhxzNLelGswY2KmJdxeXVU+7PDY1lM01Llrmj1cVsWbxw7XOz1GxDJrQ6V/In2pnz0p3vuh6f3WbFos6SNgXL/w6EcYNj0Y8/VRfdPWtQ/PejJtGt0noZ0yzuPrHtrv6x5M+cXXdJtDOdI2nOfjBt/M5JvU8RbAWq+WH2abvPZmvxVJn+bUfG/KNqAH0dD4Bks2/DVlnEMKDUCUZHkY70DJieb34jpE5UOHpw9z4Adfh7ixzSaLoi4mAHkfNuuN2W5Ewif/UvJtyY9rjA6CeCU+9Y0n3UNrFGx97dznJhzpsPEkctPNfVMC3sjGLy6T8YfzadxQdhhL/aXEt1ZXDw7D+HY2lK8r9rDv+kYAyB7GnDwX95d1N6bKP628nJ/ddfe8eZxY3KQYL9vj7+15lllGMfH14pmfiYgs+Rhr03asNzyOqzu1HUTcuufbyen+J/wo1+x93RSAG30UbV8bq1r8oVwYT/jjxP5IHRwkPg3AycMiZegNaNiw1ZRhmXpZ6xT/8Nlh+zYhURLzDR03xlyHnqQc2igbklONAMgGh+tbOMr6agsXWx+wjKgO7Ifg6H3VEgu+Vx71MqG/ZHmloWSdcQzi/zl2kT2qriIOpT31533YLyU5a6O3W54PeoBjf8T/sx/tMedneT2MXcn+1E4dP2os+shRYLePR4BnuibtdmWG2RvL6Km79S0veI4Xf6a2aPaRz5KRTEGkU5/6umv+wLUPWJ8E/0eYTB3S1wi64escy9UenJjd15Rhu9xDLEcPuAJBQxQ1JsFv/GAVG1NO8r5ecVnfWIQ9Aq3H5u2O72cb+GjtzfmQZNBCJbmwkRsq7iFpPkyv0eJINyTtRhtopXM7GmBtSe9h/3ZHVyaJQeTzuHzsK/d7GM80TgN09fqQMVR3tLYc2L/6PaWERL+xj+R55xddZvh7n3+kjFzs5PVQXu+zzfgsYSMT95Jv+vHs6hXaJ+sh6106l/fU19313Lv46cleymZ73UhjO/3Zs4g0jHWpHvgNvvoQDKRKwocw/b2bv1Z+U1i8DWTQaKQPUlqGZYcPsQRFkDwC+ZnE3JeUhe2BbGoMT0IAcsnG1ZmGk9uGhWwI6qj5ULtGflyZNQ3pMxkIete5e9j/dHRl0rltIiVaHcoyO99qsR2gK/CHtHf4eZv8xToWiTU+T5NcyV7yT4nk6XaW/SPvyflZXg993Ptsn4QA1ODZ10s8o50fZJ37zsfXPdQn5bDO+Fr8vysXyuF7ceRnCMezwkJqTG8jUWx4wwaHgx0+FDVl2C69rJUr7WgT9PgpAJLJDTwf2X5OgnGvNqwX28yEodD4S9uDRpdkFBqWNuFqZbRrwiY7XEkjAjJp+8Y5IAXhPTylEte9801cvscObuQ3tGgw9pGzp0pX0YexTfn/bQwTO/TyKS58OVsn71eyK55+SmKsy7c+LfpH3pfzs7wePj+9z3Zgp5PDoxoc7xzms76pwjPXi+11a15i3WxD/ji+7mG9pBwZYzltp5RRnzGuG475uME3M/kmdXxvI9HT8CYNqk/O8mGuKcMOydrj5XKyOG4RoPeDbbzd0DvLzdpRGu7jRjzXoyz6kJOy22CI9Hd14+StNT7xNdrsRI4ieLlxcrK21CwCFIs+rU1uoSL7pzvGdsQY83bQWx2xLZSA2DfCdzRES4siOx2iXJC0Yl3l/xMc9sjKJTkr59j5/1Z3j3/acjk/y+tOFj972WeplSn95eQEoxjKs8wxcb4MMeJ+8/XZlvAs9Ho8Bnoj+5wuOWTP99fUPX4utFeHvc0tPt1eI+FCQd9hkCN1vk3oFuuyXTgyTnA8KyykxvQ2EtxARw+lDGyyMEZ937pyB63oFTX5cPXaKm3sS8q2LDd6nGilf7pGgOfVs7t+9enq86F9fY/n/em1vI0lAV3vXTZ0bGN6zSbO9tU9L0f6hM8jH+deA2xf+7SvCkpyUdoJMfVlvgF3ddHsDqZDyO4+H3LdskeOdefnbpojtZnwnSMAdN0lWZc4YvIon42a85J/rA38SmxwZJslDo4nAES8urgrr5q2/nXrVtiHTDpsfXvxzBimo49LYVQq75+6ujt88foYN1WTPMvymaBXKX1yD2Obtgnas1MTc5SRGMD5B+EhdfSgpNo+/Kmcj6kAM3Wt5zGXTdD7MbH/eD/nCMDnrK9Mph/oaz/KECbaD9Q/e5uGun7O5+ks45oaJXsYAYs/2wfDbzIie7rKiANAlcYaPqnzCfc4be+20DP9XP6chwBcVgekDj+fCxeo8yeKJ4L5iYIZzpGfLWED5i4Dcx9MACrm/i/Db8A34nQxGLgYQ5HckNCBAWAAGAAGgIHpMAACALYKDAADwAAwAAwsEAMI+gKDDgY9HYOGL+FLYAAYuFQMgACAAAADwAAwAAwAAwvEAIK+wKBfKluF3ehpAQPAADAwHQZAAEAAgAFgABgABoCBBWIAQV9g0MGgp2PQ8CV8CQwAA5eKARAAEABgABgABoABYGCBGEDQFxj0S2WrsBs9LWAAGAAGpsMACAAIADAADAADwAAwsEAMIOgLDDoY9HQMGr6EL4EBYOBSMQACAAIADAADwAAwAAwsEAMI+gKDfqlsFXajpwUMAAPAwHQYAAEAAQAGgAFgABgABhaIAQR9gUEHg56OQcOX8CUwAAxcKgZAAEAAgAFgABgABoCBBWIAQV9g0C+VrcJu9LSAAWAAGJgOAyAAIADAADAADAADwMACMYCgLzDoYNDTMWj4Er4EBoCBS8UACAAIADAADAADwAAwsEAMIOgLDPqlslXYjZ4WMAAMAAPTYQAEAAQAGAAGgAFgABhYIAYQ9AUGHQx6OgYNX8KXwAAwcKkYAAEAAQAGgAFgABgABhaIgfmCfv+tMb/fGvN315i/v46042Fnbl9ezRdiovL87tV8/fPP/E/5a8s3T+bmzz9z+/wUsbju+tWzLoPl2nu9rts/O3MlGPGXx3erv5V/92Sun901uv/2ZWeuH753ur2cm4fQJySnszn8bYHA7fwlfA0/ABfAADAADFRjoLrgtA2uT/6P3xrz+Ot4AmCTo0/g8rzJJNMEIA87m6Rl0rVyomRu77My3831XeQ7r4uSeifnu7l+ceTBEYDv5vo5TPhfHnaWpLT3ZGwGAYj8jcQ/7TMJf8KfwMDSMDB/o3o8AXBJ1iVQed6YagLQNIZ6+W0PO5OEawjAzfOuG00gOS87c/OijTB0vre6eQQioxsEoPNXQuDQcC2t4UJ9gXlg4HgMzN+ojiYAPlHyMHx8tEPxmWSqJxA35P/18bsjA5yQYydbmfkRgJsHkuOmAShpf318sqMA7RRALI/JB+vL2AwCMD9WddzALvgFGAAGLhID8xs9mgBwIpVz/vKcfs8k0xxYKcnaeXlt6J/19RIAN5pAROD6hYiCG5XIEQCaAgimDTI2gwDMj9UcbnAdsQEGgIELxMD8QTuWANjEqM3/CwIQjw7Q/9TTTwLmk287FcBJXx4rCIBbiPhuvtqFiQoB8Hoc2Xg3N1gEmMZC+hzn8A8wAAwAA1Nj4PIJAM2fczKX5za5Z3rTSeK3wOJEvbNvBbDMpGwNAfBvFjgZLDd+y8D5/suDe1Oh1ZexGSMA82M1wQIapKkbJMgDpoCBj8PA/I3q2BEAenVP69lzr9qu0s8kU7Uhp+mDP25u3ybb3DRAFQGQfi0TALIlSO4Zm4MyHwcQPIzwNTAADAADnxMDMlHNcz6WANgkbpOlf+8+nv+ngGWSaUoAugWA7rdC0j41AfCjB+1rgR54IADz4DPFCuyAT4ABYOBTYGD+ShxDAGxSzM3/DyAA9jW8uMcfL85jBngUAaBNgF7NldhDIJkC4LcCeGMjW4+YoMwfNzQAiAEwAAwAAxeNgfmM/007ACp/j5xoK47dnL/rsce9Zh4B0KYK2oV+hVEClRgcRQAaQwn/5kXsBPjn3dwkCxLpVcS+MvPFDg89fA8MAAPAwMVj4OIrgLmpCqKEBxU4BwaAAWAAGIgwAIdEDgGhAKEABoABYAAYWAIGQABAAIABYAAYAAaAgQViAEFfYNCXwGxRR/TggAFgABgoYwAEAAQAGAAGgAFgABhYIAYQ9AUGHay4zIrhH/gHGAAGloABEAAQAGAAGAAGgAFgYIEYQNAXGPQlMFvUET04YAAYAAbKGJiHANx/a8zvN7ER0Ftjfv84wha5DbA895v8FDcC8lvvpp/rdbvv0XXaEEiTwdfSe3N16WSGxCN3vSyn/YCQCHK7eVFN3ZUy9D2E3MZEX/33F2yZh+/mi9BLuzKyP+QxtpE+f9zKedkZ+80GluPtaTdp8tdHbYN8R7sudjbdki751UXWiSMaSWAAGFgmBnIJ5rTXaRfA/3415vGb10OEgK49jdOb3RLYJ5Rkh8A42Mq2v1ZmvD0w3Wdluo8GhUm80vYhumI7xf820cvtgu1v4hsGNXVXypS2Jm63MFbua30hPqrUXmO7o9+IDPAHmGxZL5cIhIzZcALw3Vw/hwmfiYeUm9jHduKIhAAMAAOfHwOVSWtiR/xUEv39U2P+vjXmfrAuuQ2wPOdkHSaTXKMfJNRSgrO/HUEA4r3+S7pKvrDJ038IictJWfKcf4+PmTJhwnWjE0nivHs11w8KfuKk3up0sQlHBKJr3p6vL+9GjqqE9ig6Wx3l32yM/bcjcjjA9bIP4R/4Bxj4NBg4n4oMJgA+WcjhZnl+S733TILTAewSHSWoYqKwMo8jAI2fdujVVUpsWt0kKdB+j+VlygQJN1NG92FjmiwB0IlE4OtWF5XtfBzYI+pA1ynmIanIYzrQJeRk64Iy6AUCA8DA58VAvrH86Ebx59vIKQBKODwULs8paG1CqasnJxRLHnJBtzK75DTWT1W6cjbY6673LHvKNsGxL2rqrpXx17qk6vTYRGvn0Z+Crxkm9c8RAE1X05gguYsyVBe2ISgjfMI+5HKJLbKsMvVSKo/f6p4Z+Al+AgYuFgPnYbj9JPCo4X+fQHKfBPYJRY4M8LmaNHz5llCIBNKC3JY5ngAwOSnq0vSLa2Fi7EYwrK01dVfK8AK/tr5W33dz9bgzX1+6xZC0qO5K2NKWn4gAOP84HWE9B2BW1E+v1wBZWl1xDb1DYAAYuFwMzN8A2qH/XWOGfAa4TTZ+Pp2Tuew1yiSYzF+rAeMe9c7clIaV+wiA72kWiUZToatGjrRFnlP9fPIr1j0p46c/tMWPwme8UFCOPrQxmYoAeB+R/aMJgGIzY6W1V5TBtfnbA8QAMQAGPgwDH6ZIZYlt8ue3AQY0xpSkOcnGx3ZleZLgCvUVicsmnFwSjBPtAJtbYNfq6pXdzasnSbKm7mqZaCQhY0Oij8uJurX1tb91tsrrwbx8bA/Jenk1V4/v3TQP6xlxzNo8QpasA84LzxV8q7Z9wAwwcwYYmC8InPx/jkj+reNswvBD0T5ZyHfTq3rBtoGKkx730J/Sh9fqPGYKYICuisaTEygfQ9/0vAERJ1yvLyRAT+b68Xvih2wyzRIA59OwBx5dS+whX72bm2cQgDauFZhA2fnaNfgevr8gDMwTrEmSPy8gy83/U0OZJBS9vjZ5xj3+3KKxIwnAIF01jb0lPu92c51guL+m7rky/rpL1p6wPD+1G//wFECYzL1vswQgfUMgtw+ArAcRDRrh0dZK8G+pHbQJ0GuwWLFoc42fUSYhgRfU0MF24BcYSDGgJ8RTP9i06c/fzN+QtQCUTF3j73qSMnHYOvhEFk8RBAkllwT5ff2YGNjyI0cAhupKA6aA2CXo5M2FKeru3yig5HnzInbVU3YL5GQc+zpOzl9oMSHvKJjZCTCIo6/HMALQmBqbT41zyJ+nfYHf4XdgoAoDVYWUpIP7ADBgABgABoABYOCCMYDgXXDwQMyqRkiAcWAcGAAGgAEFA3CK4hQkViRWYAAYAAaAgc+OARAAEABgABgABoABYGCBGEDQFxj0z85qUT/03IABYAAY6McACAAIADAADAADwAAwsEAMIOgLDDqYcT8zho/gI2AAGPjsGAABAAEABoABYAAYAAYWiIGZgv6tMT9/ic2A3hrz88cRtshtgOV5zWY4jd9Ix+8o2IGgu04bDsUb3Mj/1Y/iqOy5k9npoXrnrmd8wpvjRJsU8WY81p6aukdl7BfzHrsd/9hGlivrTOfxJj+2vN9BUdu4h+WVj/RBIrezIengr/i1WzxHNkubYp200+CgTYd4d8nok8pSB5+3ujgWfI+PO/msLdNi4bu5fhYbKtnPK/ttlgfUq+w/h5li3Vt7MvjC75+954f6AeOEgXkaAEr+MuHf/2jMf7vG/B5JAmxjq20J7BvVYGc5rc7Ktr9WZpRgrb+szJE7AZLuIbo0W+maSBZd3dxuiDZpki9q6h6XuXsy1y/6tru27qVtfr2tdqvjF0rg43zk7hfb+CY2vqbbHmt+imyt2XaY6hgk7li3pseXIb93sYjk2PscyfsabKnsPnZkyU2NLk2/ds3KejfXD45cJHXX7sE1JEVgYGkYmIcAaMTjkUYEfo2xR24DLM+7RCkbZk03XePE09sYc+N6N8ZWd0+1rtwDycnieWfa0Qe69rIzN5TAxxIAq88lKtVnUVJNfen8//WxICNXp5Luu1dz/eD9zXXn/1V5bIf8iFF0LSNnLAH4+vLexSImEsr/7LsvD37EJWMPlxtytPgKRrSiuqs+G4/nIbahLPwMDJwNBs7GEDOYAPgGk4dk46PdG39Qo+p7aI80BO2TqNZQWpnjercd8Ct1afrpWlsvkuO+hkiJixKv7cEfRQA8GQoSiMdJHwEQvin6sLdeBVy2dS+U8VMqMYkJbMrIGUsAbh4oFh0uAjlNRQLO2NNhJqwvySfMp9Mwuq7QnlBWTgeuw0/AwKfGwHlUjqYA6ONAo6YAKCnx/Ks8DxJlXT25UU0+rCMTlkhyxzwcVbqkXnkukgUlNUo+1y+UfFzjf9wIgDZ87f3XQwCCJGPL+k81S9uL585+m9js/PhT8EU/629R96z/M2UC+44oE+gVcigWnJADXRlCkpMTXM/4i/HD+rp7HLm05IdjcFeIaUZ+J6/u2UF5+AkYuDgMzGjwNzfvz18FHJX8eWjV91Ztoyt7rr5xjkcH9J5T17NuCYXWOFqZXU9vNOi9bUVdmn66JpIOrSm4pTl3S4JSAlCsu5QjdIXJS2CkSACE7thGIbvfX9/NFX0x8KVbeHn7IoiEt/noetXUfaguW74bkWljm9EV+KJGV5UfYwLgsGpjqq1pqZIpMIDyS5snRn0/L+bP48HmRYD/PQ23R/a65LltXGsa3ja4nMB25kYdWvW2WZkFAuAX+XGCSntoJKdCV0lOUC/X4Ds9LHfkIkDvi1EEILBJ1vEpbEBK9Wpj0eGAPutLK/mDtQ7RgrsgkZKMxBYnL6jXEWUCfYEc53/qfQe6TjACENgQ+E0QAHE9tKfzb14OysA3wMAnx8D5BPj+qTF/3xpzLxqtkvMpSXOSjY/06tg1LdILGueeuorerW0sc70lK7NAAGrsr9WVk5Wt1zQEgIhUm3ClDcLuODbkszgO9H9xOkXKLpwHyStbdxlfPQkG9crIGawrlkM+enk1V8FrgC4uOhn0dsdyCv6IfR/+r+sK6jVatvQxzkO/wx/wx8Vh4HwMHkoALNhso+mHh33D274vTo1cdaMqe9HkE5FI48bSyjyGAAzQFevm/7P1EnZny4iYq2X05Gn9XSAANrnyWgy2s1BebyyezPWjXLnvbA2Sl2qzqJPVrSXB+Jpez8G6EntI7ru5eQ73AQjksn9oCgtvAYQjRMI3OkbiWON/+AkYGImBeRxH+wA8fut0j50CsI1qbv6fGpKkce50SofZ5BX3+JX39e09VuZ4AjBIV64xzNbrSAIweh+AmNSwn3PX+ff46MsH78q7KYC295yteyQrIh/au/AJabmL7K3RpZQhXNrRj4AQaXUTC1gVORKj8TnraP0isWJlYR+A2Gf4P3pGJGZwvkQiOg8gKOH/fhM7AdIbAEfN/7vEF7/2xQRAHZrmxrnQ8KrJmhvXMfsADNWVeyizclICUFN3LjN6J8Ao2cqGNkmyuTr56zTnf/PSTSc4m8SogK872yyP7aK7VpbYCZB65cneAW7XQZYxSpcWC38ttseOLE20E2CRANiRBVF3eqNiDF57YiXjjPN52lL4HX4/AgNw3hHOWyJjvNA6e2LEpA+J7ULjiPYK7RUwMCEG4MwJnYlG9awT65O5ka8TnrWteC7xXAIDwMDJMXByBUiKSDTAADAADAADwMD5YQAEACwTGAAGgAFgABhYIAYQ9AUGHUz8/Jg4YoKYAAPAwEdjAAQABAAYAAaAAWAAGFggBhD0BQb9o1km9KFnAwwAA8DA+WEABAAEABgABoABYAAYWCAGziDo/lPAYz4E1AaMNqLhd7zledWmMW6HtnTv++46bWbDm8Vox/TenF87ma3tlhXmrutyBtvjdzVsfcRMVPFPshlOW9Z9cpjr//X51bTbLityuBzrrLI5kqNuTOTLxJv62F0hGQORHLIlWy+qX8Y/VTb7L1JyfeUx3qWPdiOkDxtZe+LNebzN7C/GR1AvjkXfkXZ0zG04JO79Qjsf+k2X6jGsY5LtxRH+AQYuBgPzG8o7Ah5DAGwjqW0JnEkWCUCVbX+tzHh7YGo8rczxWwFzspEJLKtLNNaJzfxbhT2UyOwng/kjScG9/4Id8vjre2HycgTl6+OTT/q0g94/05ap9XOgV/FhLEfbmjgu42UGiVIpo9fL4T/rH7aXjlamYrMsU9gR0X62Wfg/2ZrY20zkIMEGExupK3v+3Vw/78z1Q7d7IhMPKZfqY/dFuHOxBAGYvy3MPuPZWMNm+OwoDBx189FzOvQBIEr8P9/ccVww5TbA8pwb7bBBzelwScD3apUE0t5Xkwh6HthqXT1yrE299jifUPKmLyjGSYB6pME136OVPVFrrydYrR+a7+aKk0zJX1odcjarciK71TLR53dryrR2FfzTlmEsjSUArKNLyvzBqZhEfX15D77EGBAbac/Acz2G7vkv/dbFe962AnbA/8DA5BiYXGA9KfjWmP92jXlsRhIA38jLIVd5bj9Dm0kEOpC4l9vTI7IyexJBb+NcqatXTkViEvYmDX3GP2HS6WzV/cY2pESiXF7xYcaewO5MmcDmmjLsW1vW2RLo4d/5KMpl65UdAYhIjJcZ6GttprKdb4J6sS1i2qElEOI3zb5AV1S29JsmC9dmbDej2CEWiMURGJjPebLXL88HV0bO+ctzelDaRrWuntTY2vlZbeifH7yaRMBlC8cqXYX7Wz/12BMkEJug/OeTSbbmH3+tSyx68mr15+SUbM/ZrNkTj0iMLZPUy2Gi6B9Zh5zNskyOAAy0mRIy+z+wT+hi/HC5IB6iHF2nKYB4akGWBwGoax+kz3AOn30CDMwURFr499aYe99QHUMAbAOpzf+TbN/wypEBPlcbTl9eDn8nQa5JBFEDnMgQthV1VcvpeoyhLjf03M7vxolI8Y9dLMdD+8LOdppA3NPaLq6xf/mY97Nic2yfr3+QBAeUYRvomNTLyu7xj/S/1avYLMtMRAAcbh1RC+oudfWdi5jode+efRCAzhfh84Pr8MenxsA8lftNn//90ek+hgDI3pI8t8DNJAsd1JwMdnauXE1c1Oj2JQLf2+Lko8up0FUlp8eepP6s98lN1Si/22QQjIDoIwBBYkrkdLFVfZ3zYUZOja5yGT+tE9SLfSenLiL/yCSbs1mWmYoANM4OIl1BvaSuAeelBZAUHxCAHrwO8LWKd9xfPzUMX32kr+YBPhGAv5k/WhNQ8xDRgjZOsvGRejz2++eZhKLKF423bXTjZMF21SQCLps71urK3S+vF+yhesS+of/t+giSofrHJfyOuMT/u/gEiUmVU4hjzuaMnCBBZcr025PWo9c/lX5u8STi2l6zMnQSVawXyXp5NVeP790rrtKegeeBf6J7Azui38J6FGKK+6raLfgTGDojDJxHMEaPANhk4Oe0fYPZvptODVImWaQBiJPDkT3BYmM4QFdRjvDEuHwAACAASURBVI+draM+NG0b9vgVMpmkMv6xyUIQIC1BBAklIyf1c4/Nqpw4ecb/O5k19qj1KvlH+r/g57ae0rfyXt+j70gV2eww1l5L6k71fDc3zyAArX8Dn3os4RqIBzAwFgPn8RCNJQC2Qc/N/xMokkZVr69NcCLh2QYnt3CqJhEUADlIV0FO2yhm7YmJBtddXM/5x19vk1Mj7rE20ZC6SEw5OTn7czbHcrR9AHjIWiZu2tDmT7dwLhv3oF7RPa2tmes5m9v73IZC7eiTvE7nETnI7QPQrrUQK/3btRZCJmGfRnO6GHXxvX5+NVd3/D8tAny1GxClZV0ZjeC1+BI6ca3zKXwBX3wCDJxHEMcSAGq4XKPWzZkGQfENvjoMzgkkTjqiwVOTdU0iEDI0e2Qjz7+runJy5PWcPVHCYT10tLqo/n11Zx+RPrFrnJ1GoJ3seLGgl1P0c43NkRy7eK3dfEhi1REQ1ufKiXfsa+pV458am0WiZnv4GCfcL4/9OwEG2PD1GEYAXMLnHf7IlsQ/tl6O6LCtfGynh2TdcT62h4X7gJ1zxoBsVHEukyTOgQdgABgABoCBT4wBBPcTB/ecmSdsQ88IGAAGgIF5MQACAAIADAADwAAwAAwsEAMI+gKDDtY9L+uG/+F/YAAYOAcMgACAAAADwAAwAAwAAwvEAIK+wKCfA/OEDegBAQPAADAwLwZAAEAAgAFgABgABoCBBWIAQV9g0MG652Xd8D/8DwwAA+eAgXkIwP2T/i2An99G2kObuvCmNfI82liGNzuxm6Nweb/LXfvFvBaYbqMUuk4b58h743O+l3dni39vN4TJbOxidzRs7XG7xsUy+H/WVUVcaCe95+57ALdy8562nu5zsV/9txVsGbGLXJUeL4t2tyvJ0fyj7Zz3RWw6pNa3pl5TlRF+GuILlB35LMPf55AYYMMycDjPQ2oJgPgc8LGNpU2g2pbAhR3hAp3Ktr9WZrw9MIHCytT33m9l5naZE4RE7vimEYDjd2T7bq6fxW59/rvwlKCl7rY+fle/ZIva2geB/VKQk9RTk333am5edubqzn/Bz8e19S3tod9br6nKzPN8dHWFfvgCGAAGToaBkwkuMshpCYDcBliec7KOEp6WdOT2uG2Sz9zHia7US+4hAF9f3o3s2SaJ0d7vP3KUsXfsQ2G3ARZJNf4/+UhNpf4aOUk9e2SnMvN4rSk7VZmxvsd9+fjBN/ANMPDhGPhwhZYYTEIARG+ah8fl0fagfZmgx5tNOt1HYIqJYgICcPNAurpRhCQxDiAAdC/Vu51myNbPxTqsW/RFOn9vYk+PzBxpiOXE//c98KGtZazWlJ2qTJ/d+L0cK/gH/gEGzgID8xiRrAF4a8zvHyNtoWTJ8+fynJLWIALQGE6mxeH3SQiA+yAPJ+0kMZ6IANDwPpGFjhA50mP/Z513zg+tT3uTP8WtTg77l4na7cu7ueEPCil6ahI2NSRpvVIsTVUGDVfqW/gEPgEGLhID8xh9/6MxP0XCp///7saRAJs8tfl/QQA44cgjJ98AuJ4wFJPfRATAkRM3zK8RAGkrn2sL5gL7lSTKJIhk2K/CBQk3TtxuVMLao61/0OTba3Vy6LO07RcEKxJ3kQD4WOn18rieqky23vM8P70xh73FKUj4D7gFBiwGzgcIj78a83fEwkBKEpzM5bkNsE8AXY+3VF83HH77vAu/LR83plMRAFrM9uJ64xoBKI5CxDZV/p9+F14kbiEjsUf8pj844+XYJM8jOJGeIgEQZdN6pXGeqoxe/1QfysEnwAAwcOYYOJ8A8bTAo2jYS8678a+tce9YHtue8hACYIfAK3rAkxEA97ofjTZcPb530xhUfx6Or/RFyU/xb2Fy/9g1ALEt9H9ptKGWALRyMkSC9YZ117FfU4bl4aj7EH6BX4CBi8DA+Rg5agTAJmO/Wp6SZpwAqgmA68HySAIvapMr9VtAT0kA7Nz5u7l5nosAuLUIYT11UtDWP0NK0mRdJ2eKEQCyrSZxT1Wmzxf4/XzaFcQCsQAGshjI/nDSObSfvxrzKDb9oTUA/41YA2Ab9Nz8PyWqSgJgk1A8550smPO+mpQAiIWHkrwMGAEgH9DoR0deOKa0CdCruRKvK6rD4Fyfwvv7/ADldbGv39s5/nQ/Ac0et3FQboomJRVUN03Oq92AqPPBVGXYl93mTJ0O8VuGFLHfcISvgAFg4AwxME9QbMJ/E7sBvoWLAmsdRQnCNcjdfHpwrycAcnqAz9vRggJJUIkBJ0yRWFknJ0jWwcc2aWi6/LXWHkomkxAAWh1Pm+qInQD/vJubx+8JuaNkXdrBL65fW58o8fXJsb+/dLsq6jsTutEY9h0f5ZqImnpNVYbrTjEhW3J1b8tFPsH1edoY+B1+BwZ6MdBbIEkWcCp8tkQMWDIoR2mQ6NE2AAPAwGVjAMlsickMdR6Ke/0tB/hxqB9RHpgBBs4IAwjGGQUDbPqy2TTih/gBA8DAJWEABAAEABgABoABYAAYWCAGEPQFBv2SGCpsRY8KGAAGgIHTYAAEAAQAGAAGgAFgABhYIAYQ9AUGHWz6NGwafoVfgQFg4JIwAAIAAgAMAAPAADAADCwQAzMG/VtjfovNgH4/jbNltd6a/eFgDvS335rNKpWz6DKrtdnu984/2/UlsVPYit4UMAAMAAOnw0CaLD+KBf3eNea/p8bc+8o9PjXmp9geuMqO1cbsD3uzWa8sSCjRH+h/SQIWXma735r1amXW24M5HEUAVmazP5j9xvm6Kj6nAy4aBfgWGAAGgIHjMDAPARj14R+lomlSS5PUksvIJJ36YWjsU99K+Tgf6k+UB2aAAWBgVgzMo/znm+v9Hxd8PSGtNntz2G/MyhKGJZcJYzueAKzNlqdY4qMcUZBTDTwd40dmjotzWA/Igj+AAWAAGJgEA5MIGTwMQ8P/v3+EawBoOmBYUF1i2q4b09ihfxrqbkxIAJZcJvTneALAcnQy5WLmfqMpBke8GtOs1maz3Zi1MnIzLM6sH0f4DRgABoCBCTEwjzOJAPx9E58E/uY+BzyMBMTJ3c39WwJw2PrEs+QyYWxPSwCcn7E+IPT5hA/qQHIMO+B7YAAY6MVAb4GTNDy8AFAG6P7JkQJeFCh/089Fche9zOwIwOLKhLE9LQFozHrr3zQ47M1+u7ULM9vRAOF7PZahrSgDfwADwAAwcHIMnFyBSiB4CkAG2BKAXWMeq5OFPiQdEoAllwlje2oC4GK5Muv1xmyYDMg1AtVxDe2WGME5fAMMAAPAwGQYmEyQmuhzgaK3AOLh/uEjANTrjF9tSxP+kstI/6d+GBr71LdSfnweTsUM1YXysT/xPzABDAADE2NgJof+aMxf6u3ze/+j1gDQQjPsA1DcA0H0uvsIgEvY5ff8rYz2DQuJHb/gr91/wZGF7m0MWRbnEz/Eg8g3dAN/wAAw4DEwnyPuf7iFf0QE6A87AYaxmGb3QrdOwu6SGLzCx4skO501BIAI13bvd10keWKIf7UOf9tv+VXMTgcaHvgCGAAGgIGzwcDZGIJejOit4wEBLoEBYAAYAAZOjAE4+MQOBrEBsQEGgAFgABg4RwyAAIAAAAPAADAADAADC8QAgr7AoJ8jE4VN6CEBA8AAMPCxGAABAAEABoABYAAYAAYWiAEEfYFBB8v+WJYNf8PfwAAwcI4YAAEAAQAGgAFgABgABhaIAQR9gUE/RyYKm9BDAgaAAWDgYzEwDwGwXwP0GwDxRkB8rP8WgLD9YWduX17NF3KePL97NV///DP/U/7a8s2Tufnzz9w+P0Xg665fPesyWC7f++XxXdX19fG7k+3t6XS7OtB9wbWHnSqH9LGuKuJy92Sunzubbl925vrB2yKA9uVh1/rJlrkTvhXl+nT2ypnQnl5dTWOmKtNXb/w+Di/wG/wGDMyKgVmVBwn351tj/v4aZ49NoD6By/PGJ9ybhx65PuHKclbOn525ihOglflurktJkkjIH6WMICSJLiYwTGI03bEtxf+/m+vnMOFzQpS6nY/eW2JAZVTbi7oa0y9nQns4Bp7MqDZPVaav3vg9eI7RoPe0NcAL8HI+GDgTsPpvAfzkbwMMctB3c/3yz7ikJs85KfFv5bpSL7/thftEHSRKtokTyxEE4OvLe9CT10YAbo8mAHp9bT3FaEf8f9M4H7ajFlzvnuNYOfF98f+aPR9ZBglNxxH8Ar8AAxePgfOoAH0d8O9bY+57kkwAOJ+keRg+PtoEWkrkiS435E+JL00wwk8TEICbB9LVjRAcQwDoXqp7bcIO66Yn+8SexFfCH/a38XKG21Oja6oycT3xf/AM9uIC/oK/gIEzxsB5BIfWBMSfB652mpzzl+fUOA0iAI3hZFrsfU9CABpLMjhpJwnXDsMr0w9Kg8s2s6yS32ionMhCN7LhSI/9n3XeOT+0oyGKzlTHODnj7KnRNVWZ83g+Un/DLvgEGAAGjsbA0QKOns+5f/KfBq5KNKm9Nnlq8/+CAMSjA9kesycMxeQ3EQFw5MQleY0AaDaPn5t3ixjp/ptgEWCcKN2ohLVn0BTEADnex1S/cfbU6JqqTIo3NDrwCTAADHwSDMwfyGMW/1EQaAiZe7/y3AbIJ5uux1uqrxs2vn3e2bcCWGYS6KkIgJ9rJ9s0AlAchRhLlh7cWxFd3USiFDITe8RviT/sb+PkfBllT42uqcqU8ILfdCzAL/ALMHAhGJg5UH7x3+8fw+2gV/e0XjL3LO0q/SEEwA6BV/SAJyMA3SuLV8prgKcgAATKMLnXzJXXxGa8nOH21OiaqkxN3VHmQhq7o0crUU9g/ZNhYN6Ajlr8J3ujNhn7ufJ4/p/KVRMA12PsesYugajv3E9JAOweBO/m5jndB+BjCIAbQQnrqSfPPuCHi/kIV3VyQgJQZ0+NrqnK9NUbv8/bhsD/8D8wMBoDo2+chE0ftfiPe7O5+f8BBMAmi3jOO1kw5301KQEQCw9H7gNACZRGPTrywjGlTYBezZV4XTEdcmeSVLcPQF5XjZwJ7eEYfOQ+AB4PqZ/Z3ziiIQYGgIGLwsB8xvLiv3Hv/ju7KXG7Btn1NpO5fj8CoE0VtAv9fJnkXr++IOmJc/IRiZVBzwky1tcmDU2Xv9baQ8SFV+TL0Y7MOetsdYhylPBvXsROgLQIkHclDMrV7QRY0kU+oFX9vPOitqPglPb06aqxp7aMjS8IwCSk3/pSYA//z9cGw/eL9/3iHYBGDY1xFQbsKJEcpYHfqvyGJIM2Fhg4WwycrWFoXJBgzggD+lsFaNjQfgADwMAFYwDBu+DgnVGCBI6AI2AAGAAGLgwDCNiFBQxJHyMjwAAwAAwAA1NgAAQABAAYAAaAAWAAGFggBhD0BQZ9CuYIGeiBAAPAADBw2RgAAQABAAaAAWAAGAAGFogBBH2BQQdrv2zWjvghfsAAMDAFBuYjALQR0H879yXAv7vG/H4aZ8tqvTX7w8Ec6G+/NZtVKmepZVartdnu98431j97s12vpgAOZKABAgaAAWDgsjGQJsuP6BEnuwCO/SjQamP2h73Z+KRGif5A/0sSsNgya7M9HMx+uzFr9gcRArq2GUMCVmazH3vvPDj7CCxDB2ILDAADF4qBeQKnfQLYfhjo1zB71tuDOWzXgoWmSWq5ZdZmoyT61WZvDvuNWQ1mrqlvLxT0Ai/D8Ib6wl/AADDwiTAwTzCnIQB6QgoT3JLL6LEN/aOXCQHuRg3sFAtPtfBRkq9kumHbjsyE8mp0ogx8BgwAA8DAiTEwk4N/uLl//hDQ/Q+3HoD/r6u0S0zbdWMaO/S/tUPdYYJbchkttjohqvN36V73G43GtCMLq7XZ0PTD4JEGzW5cq4sR/AQ/AQPAQDUGqgtOPmyaLAL8MdSWOLm7uX9LAA5bn3iWXCb1p50OGTX8T7JKBMD5edzagtROPMDwCTAADAADJ8fAyRWoxMHO97815vGb1/+tMb93jflv0JsAIrmLXmZ2BGBxZcLYhsQo/K3uQSsRgMast/y2wd7st274vx0NEL6v0zXGPtwD3wIDwAAwMAAD8ziLkv3vqMdv3wx4a8x9dbLQE1JIAJZcpottm/z5bYBqH3cyyiMAXG5l1uuN2TAZkGsERulkuTgOeKhV0o37gSFgABiIMDCPQ7IEYNeYxwGJYrkr/KnH3f8GBAXbJf/o1cgBPu4Ao5Op7vcQSy3pGKUrlJXTgevwEzAADAADozEw+sajehm5KYC/A18DbBb7jn9jauo+JPm7suX3/PNrCPyCv3aEwZGFca8bzoNJNCLwOzAADCwMA/MF3JIAsRPgf7+GDP93di91lz8Carnubo2E+vpeu0hS+JH2B+jbJGi1Mdu933WRXgUUQ/yrdfgbbUCENQCdfxfWsBzVQYCvgBtg4EMw8CFK0BhgGBwYAAaAAWAAGDgvDIAAgGkCA8AAMAAMAAMLxACCvsCgg4WfFwtHPBAPYAAYmAMDIAAgAMAAMAAMAAPAwAIxgKAvMOhzME3oRA8HGAAGgIHzwgAIAAgAMAAMAAPAADCwQAwg6AsMOlj4ebFwxAPxAAaAgTkwAAIAAgAMAAPAADAADCwQA/MFPdgI6K0xwz4FHNn9sDO3L6/mC7FIeX73ar7++Wf+p/y15Zsnc/Pnn7l9fooYWHf96lmXwXL53i+P76qur4/fnWxvT6fb1YPuC6497FQ5pI91VYH17slcP3c23b7szPWDt0Uw7i8Pu9ZPtsxd5F9RtqS3V86E9vTqahozVZlSnfHbOKzAb/AbMDA7BuYxgJM/fw3w/kdj/tuNJwE2gfoELs8bn3BvHnrq6ROuLGfl/NmZqzj5WZnv5rqUJImE/FHKCEKS6GICwyRG0x3bUvz/u7l+DhM+J0Sp2/novSUGVEa1vairMf1yJrSHY+DJjGrzVGX66o3fI+Lc86zBX/AXMHAuGJjnYdU+/Wu/Bjj0WwAWSN/N9cs/45KaPOekxL+V60q9/LYX7hN1kCgZtJxYjiAAX1/eg568NgJwezQB0Otr6ylGO+L/m8b5sB214Hr3HMfKie+L/9fs+cgy6KXoOIJf4Bdg4OIxME8Fsl8DHPI5YJ+keRg+PtoEWkrkSUJzQ/6U+NIEI/w0AQG4eSBd3QjBMQSA7qW61ybssG56sk/sSXwl/GF/Gy9nuD01uqYqE9cT/6PRBwaAgU+DgXkqkh0BGEIAOCnJOX95Tr8PIgCN4WRa7H1PQgAaSzI4aScJ1w7DK9MPXGdxZJtZVunhpKFyIgvdyIYjPfZ/1nnn/NCOhghdednj5Iyzp0bXVGXmeT7yfoY98A0wAAxMhoHJBA2a08itAfi7a8xjVcLp7LbJU5v/JzmeAMSjA9kesy9fTH4TEQBnm0vyGgHQbB4/N+8WMdL9N8EiwDhRulEJa8+gKYgBckRMxtlTo2uqMh3O0OjAF8AAMPDJMDBfQJkEUNKnTwE/PjXm74gRABpC5t6vPLeB8smm6/GW6uuGjW+fd/atAJaZBHwqAuDn2sk2jQAURyEGkiSuw5cH91ZEVzeRKIXMxB7xG8sKj+PkjLOnRtdUZUp4wW8hBuAP+AMYuDAMnE/ALCEYQADo1T2tl0zX2p7yEAJgh8AresCTEYDulcUr5TXAUxAAAmeY3GvmymswMl7OcHtqdE1VpqbuKHNhjd6g0UrUDfj+xBg4n+Bq6wJ6HW+TsZ8rj+f/xRRA/wiA6zF2PWOXQNR37qckAHYPgndz85zuA/AxBMCtRQjrqSfPvliEi/kIV3VyQgJQZ0+NrqnK9NUbv59PG4JYIBbAwCAMDCo8HXP+0ZjfPzrdPB0w6fz/AAJgk0U8550smPP2TkoAxMLDkfsAUALV1zTQJkCv5kq8rpgOufM6ibp9APK6auRMaA/H4CP3AfB46Ehih180OvAFMAAMXCAG5gsaJ/12DcC34bZQ4nYNsuttJj19myj0qYJ2oZ8vk9zb+N5oTAw4+YjEyoHnBBlPTbRJQ9Plr7X2EHHhFfm9c+8dgWh1iHso4d+8iJ0AaREg70oYlKvbCZDrp+kiH9Cqft55UdtRcEp7+nTV2FNbxsYXBGC6DoDAnvUt/odvgYE5MDA86eKBhc+WiAE7SiRHadBgzdFgQSdwBwxMhwEksyUmM9R5KO71twrgx6F+RHlgBhg4IwwgGGcUDDDb6ZgtfAlfAgPAADBQxgAIAAgAMAAMAAPAADCwQAwg6AsMOlhxmRXDP/APMAAMLAEDIAAgAMAAMAAMAAPAwAIxgKAvMOhLYLaoI3pwwAAwAAyUMQACAAIADAADwAAwAAwsEAOnCfr9t8b8fmsMbfLz95eu4/5HY/6j3+nvrTE/R2wERAFbrbdmfziYA/3tt2azSvUttsxqbTbbvfMN+2e9Aisus2L4B/4BBoCBJWAgTZZHsyCf/B+/Ncbu9qcRgG8u+f/02wETGSAiMJgErDZmf9ibjU9qlOgP9L8kAYstszKb7bb1jSRL2/WYuK/MZn8w+w0IxNHPCBrXJTSuqCNwfu4YGJMI6u/JEQDt+s+3xvz3VC+bGuH19mAO27VwcpqkllxGS1SpP2p9nvpWk49rtf5EOWAFGAAGZsXAaZVriZ4CriX7+yc3FXBfzRr1hLTa7M1hvzErK2fJZfTYDicAa7PlKZb4KMnXam22e0w3oEHTcQe/wC/AwNlh4LQG5QgAffrXfg3QD/3TdMFwAuASkx3OtkP/W7NeNSYkAEsuk8bWTZEczPRTAI5o0WiMI16Naez6g41ZVxO61F40GPAJMAAMAAMnw8DJBNth+VoCQHP/lgDsGlP/SeA4ubu5f0sADlufeJZcxsfWroHwiyQPe7MdvQhQH01xD6fzM9YHnPZ5QkMI/wIDwMCEGDitM3sJgOgdHjUCIORkRwAWVyaN7WpNiybHLuQrEQBaj8HD/3uz94sP29EA4fsJwSvWfqR1hR74BBgABoCBIgaKPx7dwOYIANYAhCvpQ9KiJ9rhZfTYhnL0MvpDo9sVll2Z9XrTvXoo1wiABBz9PIW+HhI7lIXvgAFgIMFAcmHSRipHALTrGinoC1i6oC1NUksuo/nvtASgw5PV007FdNc1m3AN/gEGgAFg4MMxcFqFWqK3QcY+AO37+afbu4A2AdrYhZH8YJWmAFzCLk8PWDLVvmEhsRPrckSsextDlsU5xwNHYAEYAAZmxMBpnE+r/O0Of9FRLvDDToCn372QEn7wah4tAsxs5FNDAJoVyeMFheEeDE5X99t+y69ingZjMz40k46SoR7ABzAADMyEATh+JscjiWBNADAADAADwMCcGAABAAEABoABYAAYAAYWiAEEfYFBn5NxQjd6PMAAMAAMnAcGQABAAIABYAAYAAaAgQViAEFfYNDBvs+DfSMOiAMwAAzMiQEQABAAYAAYAAaAAWBggRhA0BcY9DkZJ3SjxwMMAAPAwHlgAAQABAAYAAaAAWAAGFggBk4T9Ptvjfn95jcD+qXrqClTHZCHnbl9eTVfiFXJ87tX8/XPP/M/5a8t3zyZmz//zO3zU8RKu+tXz7oMlsv3fnl8V3V9ffzuZHt7Ot3ON3RfcO1hp8ohfayryjd3T+b6ubPp9mVnrh+8LYKBfnnYtX6yZe70mPXp7JUzoT29uprGTFWmr974fRxe4Df4DRiYFQMnUO6T/+O3xpS2AiaCUCwjElQfSGwC9Qlcnjc+4d489NTTJ1xZzsr5szNXsR1W5ru5LiVJIiF/lDKCkCS6mMAwidF0x7YU//9urp/DhM8JUep2PnpviQGVUW0v6mpMv5wJ7eEYeDKj2jxVmb564/eIOPc8a/AX/AUMnAsGTvuwZgmAAEBNmTIB+G6uX/4Zl9TkOScl/q1cV+rlt71wn6iDRMk2c2I5ggB8fXkPevLaCMDt0QRAr6+tpxjtiP9vGufDdtSC691zHCsnvi/+X7PnI8uUsaf7GPfAL8AAMHABGDhtkGqSe00Z1ZE+SfMwfHy0CbSUyJOE5ob8KfGlCUb4aQICcPNAuroRgmMIAN1Lda9N2GHd9GSf2JP4SvjD/jZeznB7anRNVSauJ/5Xn8VefMBv8BswcIYYOG1QapJ7TZmi4+ScvzynRmkQAWgMJ9Ni73sSAtBYksFJO0m4dhhemX5QGlq2mWWVfEVD5UQWupENR3rs/6zzzvmhHQ1RdKY6xskZZ0+NrqnKnPb5SP0IffAJMAAMfBgGTquoJrnXlCkBwiZPbf5fEIB4dCDbY/aEoZj8JiIAjpy4JK8RAM3m8XPzbhEj3X8TLAKME6UblbD2DJqCGCDH+5jqN86eGl1TlTnt81HCNX6D74EBYODEGDitg2uSe02ZkhNoCJl7v/Lc3uOTTdfjLdXXDRvfPu/sWwEsM9E9FQHwc+1km0YAiqMQVb3ytK5fHtxbEV3dRKIUMhN7xG+JP+xv4+SMs6dG11RlUh/q9Uc5+AUYAAYuDgOnNbgmudeU0YBFr+5pvWTuWdpV+kMIgB0Cr+gBT0YAulcWr5TXAE9BAMiPYXKvmSuvwch4OcPtqdE1VZmauqOM9nziGnABDJw9Bk5rYE1yrymTBZJNxn6uPJ7/p55pNQFwPcauZ+wSiPrO/ZQEwO5B8G5untN9AD6GALi1CGE99eSZjYEfHQgX8xGu6uSEBKDOnhpdU5Xpqzd+P20bAv/Cv8DAyTBwMsH2Pcea5F5TJgcAmzxy8/8DCIBNFvGcd7JgzvtqUgIgFh6O3AeAfECjHh154ZjSJkCv5kq8rpgOuTNJqtsHIK+rRs6E9nAMPnIfAI+H1M/sbxxzzymuAxvAwFli4DRG/d75XQCj46PvLRIYasr0gYYSt2uQXW8zmev3IwDaVEG70M+XSe5tfG80JgacfERiZTs5Qcb62qSh6fLXWnvIR7wiX/iLdcRH1tnqEPdQwr95ETsB0iJA3pUwKFe3E2BJF9lFq/p550VtR8Ep7enTVWNPbRnrrgb7agAABT5JREFUcxCAc9m8BHaIZ9diE/8DE+MwcBoCAFDCr58NA3aUSI7SjHvg0FDBb8AAMHAuGECi+myJCvU5Bab1twrg61P4GjKBK2DggzAAR3+Qo8+F8cEO9D6AAWAAGAAGCAMgAPABMAAMAAPAADCwQAwg6AsMOtg/iC8wAAwAA8AACAAIADAADAADwAAwsEAMIOgLDDqYP5g/MAAMAAPAAAgACAAwAAwAA8AAMLBADJwm6PffGvP7zW8G9CvVEfxOmwW9Neb3j7RcTUBW663ZHw7mQH/7rdmsUjlLLtP6cL21PtpvVmD+YP7AADAADAADabJsE8ZY5/jk//itMbltfmkXwP9+NYbKWH10D117GmjPamP2h73ZrF1So0R/oP8lCVhymTaGa7PdO5I0ngCszGZ/MOPvHxjb1nbcd/QzCV8i2QEDwECKgdM2rjkC8FNJ9PdPbiTgPjUyG7j19mAO27X4PU1SSy7DiWO12Zv9Zn1kAk99y/JxPO1zBP/Cv8AAMHACDJzWqTkCoFVkOAHQExIlu8N+Y1aWSCy5jI+tHQHZmnWj+0KLRXhtbbY8xRIfJfla0SjD3k3F8HSMH5kJ5Z0Wc9AF/wIDwAAwUIWBqkKihz2s/BAC8PNt6BSAS0zbdWMaO/S/NetVY0ICsOQyFCuZ9OX5sDi6h6l0v/uNRmMc8WpMs1qbzXZj1gNGdPDQjokL7gFugAFgYBQGRt1UTQhqCYAt99aYIcP/TRMndzf3bwnAgXq8VLcll/HEqGc0pP7BKREA52esDzjt81QfK9gBXwEDwEAvBnoLVCd7zdk1BMAO/e8aIz8VrMlKr4nkLnqZ2RGAxZcpJfAaHJTvX295+H9v9tutXZjZjgYI36dxrNGNMvAbMAAMAAMTY+C0Du0jAG3y57cBBiUKPSGFBGDJZRxBsq9HxnP37QjJkPjrvgwBuTLr9cZsmAzINQKDYjvELpQNYwB/wB/AADBQhYGqQqNHAUoEgJP/z1HJ39m95BX+NXUPH4KaBF7Cw7D7w6mYklz8FsYJ/oA/gAFg4EMwcFolOQIwRfK3AFnyO/41dQ963eUE7hJ2+T1/SzraNQUSO37BX7v/gtPVvY0hy+IcjRswAAwAA2eAgdMEgTb1+av88Tx/7ne6h8vUOmfJu/zV1L3z4/EEoFlt2g2F7NSCGOJfrcPf9lt+FfM0GOvqBfnwBTAADAADIzAAp41w2ugpEegC3oABYAAYAAbOBAMIxJkEAqQimK4ALoFLYAAYAAZOjAE4+MQORmJHYgcGgAFgABg4RwyAAIAAAAPAADAADAADC8QAgr7AoJ8jE4VN6CEBA8AAMPCxGAABAAEABoABYAAYAAYWiAEEfYFBB8v+WJYNf8PfwAAwcI4YAAEAAQAGgAFgABgABhaIgdME/f5bY36/+c2Afik6vjXm5y+xWdBbY37+UMrVssaHnbl9eTVfqLw8v3s1X//8M/9T/tryzZO5+fPP3D4/RQytu371rMtguXzvl8d3VdfXx+9Otren0+3qTPcF1x52qhzSx7qqwHr3ZK6fO5tuX3bm+sHbInz75WHX+smWuRsXi145E9rTq6tpzFRlqnwt/Iny4/ADv8FvwMCHYuAEynzyf/zWmNxWwJT8ZcK//9GY/3aN+T2SBNgE6hO4PG98wr156KmnT7iynJXzZ2eu4obdynw316UkSSTkj1JGEJJEFxMYJjGa7tiW4v/fzfVzmPA5IUrdzkfvLTGgMqrtRV2N6ZczoT0cA09mVJunKtNXb/weEeeeZw3+gr+AgbPAwP8BGjOddXcwZ6MAAAAASUVORK5CYII=;" parent="QhBDd5DWaKf9dE4gqBnc-2" vertex="1">
          <mxGeometry x="640" y="40" width="234.63" height="125.56" as="geometry" />
        </mxCell>
        <mxCell id="QhBDd5DWaKf9dE4gqBnc-11" value="" style="shape=image;verticalLabelPosition=bottom;labelBackgroundColor=#ffffff;verticalAlign=top;aspect=fixed;imageAspect=0;image=data:image/png,iVBORw0KGgoAAAANSUhEUgAAAlYAAADpCAYAAADmpnmWAAAgAElEQVR4Ae1dzbHkqg7ubGY1q85h9rPv1c1gAnhVncHsJoHe3qqJwlU3kROHXwkhkECAbNPn9I8Wp9wHg9DPJyEwxqfT6bT6n+vAMeAYcAw4BhwDjgHHwBQMTCHiyZknqI4Bx4BjwDHgGHAMOAY8O/XE0jHgGHAMOAYcA44Bx8A0DEwj5Fmqz1QcA44Bx4BjwDHgGHh3DHhi5Vm6Y8Ax4BhwDDgGHAOOgUkYaCvycvtYPz7wb7menzoD5bKQTOJ6u6yn02W9fXysmqzY/rZeztd1+fhYbxept/N1WT+W63o+nVZbX7L9JGM+mI1Qn6WuHlHW8/my3pYl4f1jWdbbpcZ8sHP0iY+AmYYdL7eEhxP/fZeZ7PPoeb7t7yA72Ovjtl7uYqsGXryvB4tdbqf5vvpWOm0LGxKEmCx8vZLP63XRk57M23m93JaQ+GDStKw3LSEMydGyXs+17LrM2HcYSA2JVebntJ46fYl6LxlY7zDo3UVPyOdyu64XwgQkWo0kG+wWcNJJrEICFu/z3/ex+bPoufa34/q4g+yeWHmSc5c4cw/8O83jMeQuOmwT1ZOMdv37CjhKrGhwvIRVI+DlfMHVpWoFqpfsaEGVJ1P8N3M+vmIl9NDri7UXbbz8kwP7Zb0qCXjTpsPECrGKK3X891f5jve7yb+0GOA++ck+6ZjdhFnH56Phsw3gYWKVAhA8RomPDRd4XJZpnq+34QpSvw4mTOKxnfIoprWCoMrQS3a0xCnJSStQ/UeBwiF6fYEzJNotHZ7Xi9Dhx7rccvJIjy9vF9b+Q1mpqx513dar8qgLVtiSLWHFRvSFdg0JK9lb7QsTWrJZ/ShQT5K1RGbYl0mHGY/CNoNgpPFD7VW8ReyQ3PXV+njJqJ+iv1rPcbKxRB9cbus1YUlfsSX51OsQq3Ey08MG6NyAMbV/bi+j7EO/gAlY0snH+gHx61o/ChziMOim0KlWxmXw3482GDo/jslZGGgPOmpSwhUfA8dyY8nUOc/+w8D0wYJNDIZ8BclSB4OsPtiEe4Fu7ud8oWRuWW+3vPcpBeuifioPsmE/fP+M0EOUoRzEmoNwty9KrJa1pcPT5breriyRAv3CwJUeQ8XEkyW0lU5PWSbYA4Y6u6xXePRF/8M12BOSxry3CAaUK99PVtZp6AN1iryVuoJ7tb4U+1r7GuBQ2reNd1lP4YfpSk2s6D7wQ4/Q+W+6b7ia9JPotPQcE6uwGhdxEnCT8SBlHuhmpOdwn+FHw0ZZJ64sC4wluQb8hHp92UOiFCd6tV9EHCoxSuyxKnnW5CJMp71ZXPcWObzOJixuwojr1nX76RhodygSCg3IKeBoNPSBSQ4YljpEW68bABP4iKsBKehBchAHEBrkSIZQJydiJegkj0WATPSJL7zKNuzeoK+czLA2xGfryuXVNtxXPBYyqHSjrlLCpvGj12nKHnnTEqtq71mlpw19dXGoyTEuG2G/l1gFfRzdX1Xqo/xf2LCfXKD+pT57/Jf+kP7v6lnSpzYSG3odqrvv2pedT+IQc3y1GfkRdaoESedZykV4orrXYvJD9/26z8auN9fb02GgzfBocMGkoJWgNAKekhRUA6+oQ/zpQRAAJ4Jc0Vbco8GoO0jR474oV1k3/M+DM/Kn9gP9le2JB7oGfls6BNrn9So25NObmvRYSdNzXQab+vHRFK6OwWPAtHoVeKnb1M6MdcqBKD/OJFvRtUdT2rPW34a+hjokfmzXwEtaedDb9BITuEc64r9rfeq0sd5IP7xtS8+8XNIb+jbhk1+7erbYi/PD+T/yu0VTKy/Lyv8jHyKGYB2yZ7KhqMP5x/pixYvr0H/PetTidBxLj4wBHhTk72HwbQYXoGMPWg+XWDHeqwH/LokVJUlS/3zFje9bk4mMpmetDGif1ws82qMkS6xOtdpwnrBOvXcIkj1Nhj7NrFs56OPgtaGvLg45/+PfKali+wTTYMoCWfANRX+6bkA/veRZ56uvH96mpWdeLnU89G0ma5K/q2eLvTg/nP8jv1s0tfKyrPw/8iHkxDq6XRXMh7b77J30rOneyx55EHXeHJ8lBtpBbRh8RQAq6chATkEjDxZQ31KH6Op1A13OR0p89j8KBJo0cNKV+G8ljFIu4tm6YqUE6ABUPfCnwb9ZR2+XZaC9Jbxf1G/eu8VkSE6DdapEON0v2wz4oNW8K2x2LxOPDX1x+zd5KXmr/0e9lnzU9Tg+uE7D7yBT1CvwVT6G3sJfVz+cr5aeebn0n6Fva3x29WyxF9bpY4zLZfnNZeT1tfKyTOqEbCn9yyIX9Yv0YXVL0qD7fiUd+9Wx8OIYaBt4GHy7gZYGbzZQxaSHL6tXg5lShwzQ5Ce2oQH/2Ob1qI8wKOKZWES3yUfvzCMaHFsrIF0d0kCEB49C/1k2SorKwQL4L8viRvXEQ6RbDvqBF7b5OPSnbV5nLyvEOrDBnvSTryUfJdYiH/CWZ8kLDOykm8Q3vnVW9UX1tGTAWFbhcNCuTrhRtkDn6P6q1PdAP6leS8+8HGmR7zV9KdEsbcXs0apDdujZy4KxSB9tkh+rZlxx3riMo3KlbuCnjlFiBdYiF+3nTKuYDR9r6c7LlfjB7em/dfy7Xh5UL23DDIMvBZxOUBCvMmuv5oc9UvQWHy6hq4d6Qh/Fa9p85jvklfM4SnZCXQzCIsAmGngQaX48oBxvQHVHfY10GI5JAL3gHxxiCclV5ksZLKrEKiYk6TV4OEYhJ2sCmIWOW8ctyCMZ2MGatNpHR2KIKyWDGXOjwRPeSuz1FXgX+si0hVxkD/VKts56Jn1nPUu6rcQKyjF5wYG1TMrtPGF/Pf0EHoR+iX/SM8fGJyRWlGQXOBOPsUH/BoyBnubJTrbj+qAy6IfFn85xCz0coi1I70Qb+6NkdqvtvT7p0a+OhafDQJvhECy0lQR1cGrT+RxQ0AxRrqZ8Tt9fLbv3/9l2Dr6RVidc/5+tf+/PMecYcAw8MAbaxuEz4ueYdcXDNPmMWTlR+4GN4cvhD5m0Zx+hVZSwouWJleP1wfHqsS77ruvCdfGJGHBlf6KyfSDygcgx4BhwDDgGHAOvjQFPrDyxcgw4BhwDjgHHgGPAMTAJA67ISYr0Gchrz0Dcvm5fx4BjwDHgGLBgwBMrT6wcA44Bx4BjwDHgGHAMTMKAK3KSIi1ZrNfx2Y5jwDHgGHAMOAZeGwOeWHli5RhwDDgGHAOOAceAY2ASBlyRkxTpM5DXnoG4fd2+jgHHgGPAMWDBgCdWnlg5BhwDjgHHgGPAMeAYmIQBV+QkRVqyWK/jsx3HgGPAMeAYcAy8NgY8sfLEyjHgGHAMOAYcA44Bx8AkDLgiJynSZyCvPQNx+7p9HQOOAceAY8CCAU+sPLFyDDgGHAOOAceAY8AxMAkDrshJirRksV7HZzuOAceAY8Ax4Bh4bQx4YuWJlWPAMeAYcAw4BhwDjoFJGHBFTlKkz0Beewbi9nX7OgYcA44Bx4AFA55YeWLlGHAMOAYcA44Bx4BjYBIGXJGTFGnJYr2Oz3YcA44Bx4BjwDHw2hjwxMoTK8eAY8Ax4BhwDDgGHAOTMOCKnKRIn4G89gzE7ev2dQw4BhwDjgELBjyx8sTKMeAYcAw4BhwDjgHHwCQMuCInKdKSxXodn+04BhwDjgHHgGPgtTHgiZUnVo4Bx4BjwDHgGHAMOAYmYcAVOUmRPgN57RmI29ft6xhwDDgGHAMWDHhi5YmVY8Ax4BhwDDgGHAOOgUkYcEVOUqQli/U6PttxDDgGHAOOAcfAa2Pg6xOr799O6+8/p/W/v6f1v/99PT+eaLkNHAOOAceAY8Ax4BjYiYEvVlxMqn5+O60//+eJ1U4j+uzntWc/bl+3r2PAMeAYeB4MfHFixRTlidXj2MITPLeFY8Ax4BhwDDgGdmFgV6O7ZM6eWD2OLdyZ3BaOAceAY8Ax4BjYhYFdjTyxYittDrzHwZDbwm3hGHAMOAYcA1+MgccxgK9YPY4tvhiUd0ncXSbHl2PAMeAYcAx8AgYeR8meWD2OLT4BeJ48+aqnY8Ax4BhwDLwiBh5nMPfE6nFs4YmV28Ix4BhwDDgGHAO7MLCr0V0yTE+sHscW7kxuC8eAY8Ax4BhwDOzCwK5Gnlj58u1dMOBO/Dj+6LZwWzgGHAOOgV0Y2NVo6qD6G05cV/5+evIyVc/uIF+PdbeB28Ax4BhwDLw8Bl5eQE9OPEF1DDgGHAOOAceAY+CzMOCJlc8eHAOOAceAY8Ax4BhwDEzCgCtykiI/KxP2fnzW5RhwDDgGHAOOgcfFgCdWnlg5BhwDjgHHgGPAMeAYmIQBV+QkRfrs4XFnD24bt41jwDHgGHAMfBYGPLHyxMox4BhwDDgGHAOOAcfAJAy4Iicp8rMyYe/HZ12OAceAY8Ax4Bh4XAx4YuWJlWPAMeAYcAw4BhwDjoFJGPhaRX7/dlp//2EHhP45rb9/HOPpfL2ty8fH+vHxsS7Xs8jqz9dl/Viu6/l0Wi+3+v4kpYo+n4/mZb19fKy3yzE7jOSeZQsLnfP5st6WJWDi43bR7RPqIG4+Ppb1VmDndL6s11ukAfhabuv1wvGFegPc1X+39cJmV+dLxmigcy50PezrtAa5q76W9cpoCbkDz8t6EzxjvyN+xnRsso/pAD/n9VLqmclEuLLYnep+xnULP1I+jEeSx4YPXm4SWy0sM6xJugXOnrDeFj33ZLfQGfkF0H/rOpa4+okYG9o0+Y8S3+fy+bWOBqeu//u/0/rzW+QDEi0o+2cvXxiQyoSKHGyoeLNyz+t1+azEbFZfVjqNoG7Wjc12s2wxpHO+rrfltl7OMGB/rHpiRbi5hKQ7DO7XG0tSzuv1JhMpCqj9BBR1Lvo8X9flY0lJGdCBRC4nRLa+uNyEb3mNMt2u64USEwiE5YRjyI+RToWPUnYbnWCjD7AX4uh8ifoiGWI/XP5HmCSZ+ansrfkL6qqHrTaWNXqvU2bWc4VHqYMhnaFfnNbTm9cZx1Wpcxmf+D3r2MTb1L+HNqXYYfLBmn6b/6puVaDP5gcg3dChoP9LSaC+/3Na//tzWr/v6TMAvb3aYlX8WJ45QBj3A/aZ1dcsOnMwM8sWW+i0BqNQHlcybTZBHbToJRoUeFlSULex2aVsx+VO/QmfuazXctUNZths1RbalXRrvNnoVDxUslvoKIkf8VysznA5QIbWZKriS+hoDpahDzM/IajLFcw9PNZ2myfLHn4+q41ZzwM7j+jU+q399J3rcHvXetiKxVq3nL7198imiU4Vm7byO6w/rCASocTYALRH6n1pYsWXNrc+7hGB/7xe2CPJ8FjyRqshTOcpyMKjqvgIKayuQB0cZOrHSq1VF0ZX2MdIJyal1F89W46D3hIfY8GjsCQjX3GB5fHrupA82mO1DQNRcJZylYXJZ3YmNYkAne136lFACfdFwqb3xWVo+U7Zl6WNRku228+PpFNjr5a9rgP8STqIsRJ7sg7S4WXQ16MnVoHf6tEtPFJmjwKHPph1WOKhtLXFB8s28n+yBYtNqi+PYt0zxg2LX7xznYxDwMwIixJXvC1ig8YcceXj6XBc3hgT3jGx+vXnwKPAQwpDR4HHNrAHK4Ah7HW5iv0xCBLdqRKALtf1di3oQKLBwQJ9xCXJ5ZYffYS9PGKlYdAX8Tq8WulQQOUOAL9jgAy8RYcI8mS9BfmDTLBqGPcfxcGiHCyTrgZ804A0Y+DUAwDJKweQ5drYixX5xUd47dVRqS/SJfVFtke78yRB04vWF+klBaNF3z8l6ZUY2MfPOBlFumOb6fyU7Ub6kTKSrh/0miZTPf6YXRr+oWM50pzig8gD7AFMj2VhtVM8tgYcj2Idx0Kk+fBxg+mf7HXuTALero7EbheLDfxKny3jAKefx5fxuMzbdX4fyhM6dLOspkqftmr1838HHgPS7Bf2Z2QBN/DOA8BILz0gNNqS83HeUgBstAl1d/TF+0i/rXRYUEltgT9ensEODpIdS5aT8zzKwJj55PpGufgAgnsnlFWQmCRiMtNPZDDxKbHIdBhsjyt9at1BX7AiwTfPa8kX6Z+uQX6+QsJtOuKHYaGmw/UZByCDH2p0Qlm1xwpWc0tdyj5Jxoe/anGA6Rb5Zzip7qHcQU/lRC3UneWDyINIcq2TJCEjl0XylmWQ5WTDr4sbjOemX7xzHel72Y6ynOw4vqL9BdYS7hUcpnt7+7sHTcGL+GdDEjK/XXgE+Pe0/tyjtAB+CL4w2O3nLb+ts6ywigQDV8qSBV89IED/sAF5SW8nplWFcnBgTtsG36gvq7xWOixgCJl5uaQVHCsM2A3AikBr5Xd+PT0A6DyPgjpuqlaSr6Az1E+1QskTGabbY31lPWU75DLClZq87eBHp8P7a8nO6/SSL/lW4AKb74t9YSTTU15NvsB9TeqNZNaxDHV1POPq+JbkVONBKxvFOt7mWeIG5znrX/rpO9fJOgE8trEo6xF266vERXnfPi5b+8OVVtquoid0G2ixWB55P9R4WiKWkip6O7Bm1NTXOOhb5D2vF1gNoFe+O7NC3SBxYFnY21ggjxZQtbJK9j7oShC2/7fS0QMGBWxMXCWtPKBj25xI8qMHtgR1i52219EDgC6vBUsy0DJ+mjN7qTeyVZMOw4K5Tpm885Vctoke+97GT9JJRccie65josNkz/jKNEh3T3c1+byOSS6rjmXQzywf1HgoyxA/sE+MHhcGHoWMvI3EW7brLJ5n4UPySXqXPvjOdaSe21iU9UiP9VXXpaxnGZet/SHe9PHbSqNbr3vTlMxI4bfTo6Tq18GkKvARBjS5kfoIf2kAYEEe6fWAwANJ1odKSwSgXFfy3Our1UYrt9LR+aeA3U+ssI8jq4ZSdk2O/WWtAADlpZPJIKr32aqTB4y6Xc2DzS6tvri+tH4Rd22fsPIzokN8aDzQPbha6eQ2dw+CnxLnkjwmn2/5YMZTbTe6N8sHNR7KsvJ/5AFtTBMpXkdiPWNlFs+kg+PXWr+Sd7DnO9dJeFb1sFX/tW45/fK3xNfWvtgxGb0JYjXmb+pnU+XpAWhqUgWKaK4UWOSEAyD5zAuNLd7aYcrOQaGkHdvd8ts+sP8FDy2lYBPbmIJsdGCxN6bs0/Z/m2fengfCVrl0BEGXZGKghcdmsJm/dBDL/+hEdeJjaVvWqQNhlK/kOeIoJ1slNuKbj+rbiqi/3JbrkDDaO8fK0pdWBzHGk1pTEkOTkfiyAe7VkomYiU7wjb7sJjqAFXrxIRwWenB/VbDtHPyUeNr1P2GNxZKaTssHM5ZQl3ljuaBBfRzyQY2HsswS63ibJ4obBr9463OsGH6bcTXWQaz2fVCMIYw2TOi3jMvCDwSd7DvJbsw/TO1a9Opy1ll9c9dAuIVBOAz0v8bfrr1WhxIrHCzTsQcwaLLkqJIrHDzJHnXxR4bh9dB8L9ChYMf1rJXx+/S71xfVsVw7dAKwtdfB06MlY4CEVQkYHNNxC6hH8ajAwmusY3HKyjaCPvJdP56USW5OfsFu9cm8KBM7eV2pA3xYkgfRFxxbUTi4pa9Ag+n4fifBt/RXJzx92a10lD1WhX769i5iWvCxflDfRE9gq+jLcq/j82Mf5P3h3ibCdZnIH/dB7u/Ur1I2jHW8TSexeri4AXGMJsTxSwsKDt+3TsufZVzNMXHgg52xScOyvveZcDq4UtKs2HNSLBgwYAkUj1TnYGI1Sal3T0idzxfD7SP50Ivx0p4JO4Y8jjgG3hIDnlhtBT5m0eXs7S3B82IDpNtwqy94fbkv0PXhPuQYcAzAUwX4jFi9sjZRN68HNL406wnW69l3Ivh9ZdGTb8eAY8Ax8C4YiNsCtK0ek8cVH3gnK/QTnbT1jDvv7bpzVv6JsjpOnxenbrvHsp3Hjceyh/vHC9rDjfqCRvWE511mYC6nY90x4BhwDDwaBjyx8sTKMeAYcAw4BhwDjgHHwCQMuCInKfLRMmbnx2dxjgHHgGPAMeAY+HwMeGLliZVjwDHgGHAMOAYcA46BSRj4YkV+O62//scOCf1zWn/9OMYTvEqJp5zXB5KFAwzjCeZwvo2/NajpGje38hO8J4FNzJxm2cJC5xwOMYyHe/KDXPlMRhx0WB8QejrDCcDsgFA42DOdEA567G0Klq/28jdXw8Ge5UF1w77oIFL+ogIebMoPGxVyw+GvC3yk/CzsMJbrtI7p2GTHA0T7PMMHzPNHVzsHM7IPMz+CL1twSH4k5ctfaKD7hKXKB9NbTVGHLSxzXL/Y7y16zvqs45yFztBPw6GmebxRfflF64xjQq3znj1m3BvaNPmPEt/n+snnC88VCEkVT6S+/zit//49rb93J1cY4FsJ01DxZuXKE4S5TPN/z+rLSufFEqtwoi98+gMG7I/1Qx2MCDeXFU/0Pa+XKz8RHU65lokUBd1q8BMYQp2LPulwuuYnZGx9cSzrmIsy8c80QfIoPsNj6ctCR4sjtexjnuPnm+CMmZhswqnLy4f8xA7Iy2k9VWIVgnstj7Qh6ryHrTaWNVu8Ttksuw/pDP3U8nmqV62zNya0cGgdm1rtsXxo0xibIXbDkQt8Eir9r9+Poe5hAnL2KwaVfbR/wgrW//a1HX0r0Kr4seLmAGHcD+hhVl+z6Oy0TYGNWbbYQqc1GIXyHd9ibNFLdqXgzFak6jY2u5TtuNypP6Hjy3q9FqtTRUKitys/LruTjiK7hWeZ+CHWQrsiIea0QDetyVRLxtnlZn5CUJcrmHt4KfGwh8YztjHrWfhCHbNGdGr91n76vnV2xoSmTWrd7sHmyKaJphKb0r0mjzWGOm02VZ6eRGmMfWlixR8ZhUcncpWClujp+1ziKgI/rnjQI0mot9xoNYTpPAXZS/623kKzdZwViD7oW36iL0ZPBYWRTgBbfkxTz5bjLGWJS9/wKCw9dpXZf1hlSN+x05ddrU4Q6olVFimvlQ5grQ6EQGu/U+v0Mn/hvkjY9L64DJpPaLxb2mi0LO1GcgHdEZ1a9nEb8q8Se1pfvAz6evTEKvBL/suvHB9DHyyw1YkDFh/U8JHL0N9vFxab1O9jjmLdM8YNi5++c52Mw4wXi3+X7axjE2Cwtw0D6ZpjwrslVvAoED7KvPtR4CGFoaPAY5v0gcew1+W6XqqERXeqBDL4CPG1oAOJRhkI45LkcqNkCpaOy9nAoK+KtxK89L+VDgVUakfXGCDDKkh0iCBP1luQP8j0kffyxMGiHCyTrgb804A0Y+DUEwaSVw4gy/XSnUjgcjLISfopr1xfdI/6Oq0nSqrP44Ck9UV6SYm3tn+q0u0YA1pfta1GdDTZo5wiqSj3fHXa8QSkkov0+wRXsntXBoaTRj0dy1H+KT6IPMC+ofRYFva1lY9QhrGO2zTSfPi4wfRP9qr89J3raH42iglaGyrrtcV7tnGZ6A2uh/KEAW30V1Ol7gBTB92NNL/hvipIqA4lVTSL3v0NIB4ARjL0gNBoSw7KA2UKgI02oe6Ovngf6beVDgsYqS3wx8sz2MH+OcjLcsIGn0lQ2VdcM59c3ygXH0DokXKVzMUkEZOZMingNCmJKB/5MB0G2+NKHyZJRd1BX7AiwTfPWxKiIL+WoAz6Km3VpBPxosoD/mngOdCu9ljBSmqhH4FNqfuS34f6X4sDlSwMJ9U9lFXHMtyb5YPIg/CBiJP2ZCLaQcjIZZG8ZRlkOdnr6+IG47npp+9cp/a3UUwgm+pXtL/AWsK9gsN0r+ZDp1/WuwdN0Yf4574JlEEZtHn933828hXAD8EXBruNbRlf+W2dZYVVJBi40uoVq0fBSwcC9A+bgpf0dmJaVSgHB+a0bUD0QLdFVisdFjCEzLxc0spO1QCsCLRbeJ5bNwdyTlfneRTUw6OW5iNK1E+1QimS08zDsb4ynWyHXEa4aiU7dJ+ufblaCSPvryU7r5N/1zzLtwIX2HzP3gAkPp/2avIF7mtZV1xmHctQV8dzWiEVPq3Txn40HrSyUazjbZ4lbnCes46kn75znawTwIo1tnD8yt8SF/IeTNzpMeBoXJZ8lXTE//BSTNyu0h7HN9CTfrW74d2SsO//nNb//pzW75JRU3/HDQz6OK8XmFmTMcvHd4GvHhDiwLJc0xJ6MKgWULWySu5eX1vsZ6WjBwwK2Ji4Slp5cMS2OZHMe7YeYcVBH4x0eS1YkoGW2aI5s5d6I0dv0mFYMNcpk3ce+Ngmeupbu7b6CuVsNUlrS6t91glOoslkLelmfDEdd+qX7R/qf5PP65jkcuhYBv3M8kGNh7IM8fzRjXW8jcR/tussnmfhQ/JJepd+8c51sp6T/xpjC+lSXnVdlnXG43LmS7YtyxFvd0ioKE8pO/z6/48kVhjU5UbqvoL78ibQVEG8BwQeSDJ9lZYpyPb6yvTHclrp6PxTwO4nVtiHdVAd87xFvnHd1mAE5aWTySCq027VyQNG3a7mwWaXVl9ch1q/iLttPqH1ZaWj8cB5LH+P6989CFIw/JyryedbPpjxVOOI7s3yQY2Hsqz8H3lArNCjW15HYj3bfhbPpIPj11q/knfA8TvXAfmtMaH0+fr/Wrd1nWxTia9c3msj7oWJ77aYKNpX+UDFQ1XwOcElMgbnWP38lnnY/SiQBG2uFOQ+2gqCAyD5KhMaG2Zj2uPAHBRK2rHdLbeD/S/4hiAFm9jGFGSjAzf4aMtT8mWlwwMhp8HLpSMIXZBMbAYDj5dgM/8WXqkuOlGd+ND9Ldc6EBZ2IJ4jjnKyVWID9wuBTXMd0hXqqS6P98mpm+dYWfrS6iDGeFI7DnwaHTg3Sso1pmORXeur5vkEWEmHmMazx5RVOLPdAx6lPOa2FFdmXsk/ujS5r5Fu5TUNLoRZTo/6YPe2+6DGQ1lmiXW8zRPFjaGfvuoZVTa57DGBErC+D4oxhGP5VMaNiLkj4yHZlvnH5JggnXUy8eFAConU7z/s5HV4I3Dr/ipuhDgg8sFli5oi1SEAACAASURBVEwh+KRjAuCIhJwcVXTCwZPsURd/ZChO8Y50KNhxfrUyfp9+9/qiOpZrh04ANn9jK/2mZNAYIOMm5VuhR3qzqNLjgG904L5T9mki3/XjSZILfSAnv3GvXnEGFGKDnvXrdYAPS8ARfcGxFYWDW/oKNJiOw6nPKSEBmVpyA+9Z9nFfNjoW2cc8A9/KHqtCP317FzEt+NgR/BT0Bngd8tbx+bEPcl5wbxPhukzktVi2zQe5v1O/Stkw1vE2ncTq4eIGTJ5oQtz5AsBb1rHHhBwXBj7YGZs0LGuLHUPfI9999cTKrAhSyOh6MLGazs+IX78/TL7dJjSo+XUPFtozYdfnHn16G8fN02PAE6utIMZMupy9PT0QPAHzBMwxsAMDfLVkayzx+h43HQOviAH4njBftb+DjK8HHL586wnW69n3Dk6wY8B2vbodHAOOAcfAU2EgbgsIxzIVWz0my+HAmKzQTxyke8+5ae9X3kvzvHI6Rt12joF5GPC4MU+XjkvXpYoBtfATkwPv34HpGHAMOAYcA44Bx8DLYOBlBPFk0PfgOAYcA44Bx4BjwDHw1RjwxMpnCY4Bx4BjwDHgGHAMOAYmYcAVOUmRX50he/8+S3MMOAYcA44Bx8DXY+CBEqsfeFDo5g8wF0qEVynxlPP6QLJweGM8sRXOt/G3BjX7f84r6rNsYaFzDocYxsM9+UGuHDvioMNlvZVvjZzhBGB2QCgc7LnjQE5I5Pmbq+Fgz/IAzGFfdBApvaRAV/mZBiE3HPi6wEfKz3XgHcg+ptPbEC1foOD+qb+dIw8IVfVDB7E+kC9bcEiTuPxRWbCJdghxwwfTW03R3i0sc1y/2O8teiZ9a1cLnaGfWnz5VesYYpSm93uWDW2a/EeJ73P9RBtYv6aMTmA/llhhQGolTEPFm5UrTxC+J1jgJOrrMiMJtNJpBHWzbmz4mWWLIZ1wou9tvZzj51HUwYhwc4mfLzqvlys/ER1OuZaJFAXd/in/qPMP3icdThcTHKADCUY+fd3WF5dbx1+UiX+mCRKo4nM1dEL7cm3JbqVT2r2WPfD8wfSqHOiLp4+DvZAenLq8CP3E8uuSkpJHmCRxe3T5qexd6g3+R533sBX0xHE12T91TGm8fm6ZWc8DfQzpDP3U9umX9P3apr8/Ix1bjLJjyDo29bE2tGnERB1z+3TtciQ66Uc9ix0Ac0dnzT7gw8uQUP36g9fdtJVAzWlZFc/b6L/nAEGnXdpkVl+z6JT87ft/li220GkNRqFcXTnoy9ail+xKwZmtSNVtbHYp23G5U3/CZy/rtVx1K1Z6oN1YdhudiodKdpRTJJnUf0oQtMQvrs6lOmgTLj/I0JpMVXwJHfXtu6WtmZ+QWMlVvC39UN0SD1T+6lezngd2HtGp9Vv76TvX0XBW68PqX7VuNfqjspFNU/sqNln5NNczV2wmRYnZAZCb9b6d1n//ntafpwdIrPgjo/DoRK5S0EySvs8lriLw44oHPZKEesuNVgSYzlOQvazp23oLzdZxkBF90Pf7RF+MnmoDI52YlFJ/9Ww5DnpLfNQKj8LSY1e+4hI/UJy+Y6cvu1qdINSrVlmyzFY6gD/d8fc7tU4v8xbui4RN74vL0PKTsi9LG42WbKfzo7UryySdLDPVa8luSaxK7Gl98TLo69ETq8Av+S+/cnwMfTDrucQD6Z2uYaVv4INUV7+iv98uLDZ9aL48inXPGDd0v+CYaz1JeI86GYccOyNM8rr42zo2AQZ72zCQH677bkx4h8SKr1Lx37URdGOKeocUhs4EgT994DE8R76ulyph0R0v8XK5rrf0aAWWei/hcV45qJziY4HlRslUrCtWGgZ9Vby19GSlQwG1pBMDZOAtOkRI8LLegvxBpo+8lycOFuVgmXQ14J8GpBkDp+74JK8cQODRWI9HXE4GOUs90f9cX7IstKGk+hxXZPgAW+hE64v0Qolwc/+UoFViYJ/srUEl60uT/bQi3vOjwPoxn96OB8zcB+n0ya5kd2GXUgayS1me/9exHO9P8UHkAfa4pcey8Pi1fCw7jHXcppHmw8cNpn+yV+Wn71wn45D8UYtRdG98LeMSp5/Hl/G4zNt1fh/KEzp0s0+bKnUHmLHSOn3AhvU/p/V7ZOhoYoWDzd5ldh4AOjwHXntAaLQlB83KjwNNb3AGWjv64n2k31Y6LGCktsAHL89gB/vnIC/LCRuPMjBmPrmNUC4+gOC+CGUVJCaJmMw0NoJHnelYZDoMeMCVPrXuoC9ISvjmeUtgC/KLBG6D7AwLNR2uT9pYr/thtXm92EwfaH+wwTzssYLN2jo9wtjTXLU4wHSLcjCcVPdQ1zqW4d4sH0QexITGOkkSMnJZJG9ZBllOtvy6uMF4bvrpO9eJ/j6IUWTH8RXtL7CWcK/gMN2TcWfcD9W/B02iHa7in/slUA1F/P57Wn//yDzsTqwC+CH4wmCX6dkVjW3y2zrLCqtIMHClLFnI0AMC0ILNfUt6OzGtKpSDA3PaNq+jvqzyWumwgCFk5uWSVh5oG4AVgdbK7/x6OZBz2jrPo6COqy1K8hV0hvqpVihFcpp5ONZXppPtkMsIV2ryFvkpA1qPH50O768lOyTguOGcVkBgJbfeTC/fClxg8z3bqE7yPO3V5Avc17hu828dy3Bf02leLaxX3zNNqVONB61sFOt4m2eJG5znrB/pF+9cJ+uEMNOPh3V9aodXiQt5L8aN8Ph8NC6P+mH3YcIWH5WX8a/sf8f/rCMxiH5OOSRW/zX+YM/VVoHGQd9C87xeYDWAXq1X9zP1gBAHluWaltCDHFpA1coquXt9WeShOlY6esCggI2Jq6SVB3RsmxNJOgbgMVYc9MFIl9eCJRloSc/0lo+2Ein1Rvhu0mFYMNcpk3fasM5WgahfadPMf0v2VM4242dasX1zVaOjZ7GKlvkg2hlf9T2q8zRXk8/ruuIy6lgG/czyQY2HsgzxDEdGpGQZMCtk5G0k/rNdZ/E8Cx+ST9K79MF3rqPrWepHr0O6lFddl2Wd8bhs7RPxdoeEinIWKyOfU2/3ihUNQCGoy43U0jjb5EgDCdFP1x4QeCDJ/am0RADKdSXPvb5abbRyKx2dfwrY/cQK+ziyaihl1+TYX9YajKC8dDJLkGjVyQNGzWvNg80urb64vrR+EXdtn7DKPqJDfGg84D0dV0i395jv7kGQguHnXE0+r+uKdAzXGkeEtVk+qPFQlpX/Iw/SpryOxHrGyiyeSQfHr7V+Je+6Dd6nDsci/Q52H0ySqK681nqT96U9Jb7kvV67dG9ynpDopvwg//icoDLob05ipa0UWJQPB0DymRcaWz/ALwY2FUSx3S0f/Af7X/ANwWIAMQXZXl8WuXKdHMhyWQ0KHgh5PV4uHUHQJZnYqgYsE8Nm/rovTl//jU5UJz57aNXBMvZZ8hxXXXKyVWIjvvmovq2IesptC7nIqZvn2lj60uogxnhSi7prJ1VBh0PZac/UgE7w7b7shJO0uhEfBYpHpoCVtO8qnj2mrMKZ7R/km4Mfc5+9OEf67tVpPDLm/afBhflZuk99sHvbfZD7O2G4LLPEOt7mieLG0E9pZXpJex1xn2PhJy9JR4s/cN6c7meWGE6xod56U/YVMaeOvYTTwZVswvwj+U7XLwd0c1tzxV2D4lZmvzaxwsEyHXsQjkjIyVElSzh4kj3q4o8Mw7EN+R7sE0Gn25dYwWZqzpcYiLIxxzbq0AnA5q+Bp9/EszFAhpOGJb9hn8xOEFucsrKN0AnyXT+eJLnQB3LyC3arXysPAxN/5VepA3xYkhnRFxxbUejG0legkV6nhxO8NxwNUiQqgp9Krpb+6se7Y9nl/inQc30MiaxzBDsBF0+UWI19kMdr3NtEuC4TecSQjEEpoRX+wWny39zfqVwpG8Y63qaTWD1c3DB8ISHwTJPm6IOFL4eYkCbWr1PHEqMoLptieGds0rBcJ2CEUcP13RIrMsTua1DY3hUrg0FMAcnp7Laf63ecHLuONumoPRN2P3U/dQy8JQY8sdoKfJwdlbO3twSPD8CbBmDHyFZfe4b6fLXkGfh1Ht0PHQP3xgAc+XLn41tez4j8sYYnWK9n33s7ndN3zDgGHAOOgRfEQNwWoG31mGzvF1Te26zU4Gyc9ljoV7mPaDJ4fEXobbDmceJ1fMfjxuvY0v3yQW3phnlQw3jS4kmLY8Ax4BhwDDgGng8Dnlh5YuUYcAw4BhwDjgHHgGNgEgZckZMU6bOK55tVuM3cZo4Bx4BjwDEwGwOeWHli5RhwDDgGHAOOAceAY2ASBr5Wkd//0b8V+Ovbfr7gVUo85bw+BTYcVBZPbIXzbfytQU3Pn/OK+ixbWOicwyGGyxo2+PODXPlMTRx0WB8QCh8MTt+PhMNTZx3IqRwQOu6LDiLNB0Diywvy1Gchd+AZPlJ+LmZn8kDOIFdxyKGNDvCUfa/15o2gpdpizA8EP4vdJwXJQl+az2zjJ3/sHXCkHULc8MH0VlO0u6o/nb/P1MU9+5pldwsd/oa55hcBhy94+KdVrmTnBzmEd2jT5D9KfOdjwfHfX+uEIbH6c1q/HxckBj8MSK2Eaah4Mx/yBOEEMHP7LXqf1ZeVTiOoT5Ztli2GdMKJvrf1coYB+2PVT60n3FxWPNH3vF6u/ER0OOVanmxOQZd/QqbGAepc9EmH0zU/aWPri8td9wv4ijLxzzRB8lh8dgJP+wb9ICbhlOPlgydoNjqBnw+mM+2wXoMtxvxEPq9LSkoeYZLE7dHlJwR3rl8tFqDOe9gKevLEavfkeGivoZ++8ydtOGYv6asgrXFXj0+chnVs4m3q30ObxjEMYjdM/MovXoz5rPtstDFXNM3aGp00205PrLRgzhICq+LHcswBwrgfsM+svmbRmYOZWbbYQqc1GIVydeWgL2uLXrIrBWe2AlS3sdmlbMflTv0xrENidb2Wq1NyZSUlX0W9QDsN2hY6KINIILsfCm59RLhO/EA2yQ/ahMsPutkf1Ps21nVbtzHzE4L68WNQSjxY+Xz2emY9C1/Ybq9av7WfvnMdwhHYY7le1utyxAdr3RL9LVczNpS4vKUfQ90acIZGzURpa9uHS6z4I6Otj3vSQAQ6xRUPeiQJj2nqb6Kd1lMKsjnrhyVnXD3AQUY9n0r0NbKhkU5MSqm/erYcB70lPu6BR1jp0Y/M/sOqR/qOnb7sanWCUK9YZeE4s9KBNnUgRFvtDQo6vWyPcF8kbHoA4TJw2fjvsi9LG96efst2aNPS1rJOlodowFXWmZtYWfjh/YNuHj2xCvym72+yR7gcH0MfzLYo8cBtE+wDK48DHyzbyP8JGyw2Vd+RRP+B1d12rHvGuGHx03euE3EY8AqTBF0XEk8Zu7kcsUFjjrjyMW44LiNtc0x4i8TqL9tn9ee0/v6hGcBYdkhheXBIH3gM+2qu66Wa/QyAdLmutys9VoIlY8zoyxk9JlbwIVpKpmJdsYIw6KviraUrKx0KqCWdGCADb9EhAviz3oLDhGQRvtcYV0viYFEOltm5yn7k/zQgzRg49cGI5JUDCMzCejzicnLvu5RcXyQT9cWS6nOZpFDdfNX6Ir2kYLRo+6cyDZSlxIDG45gfdRU1ThJoeb1+pCh56dmitDUPmD2bPMW9NJmS+pC8M5w0/FvXX6Q5xQeRhzzRi7goH6EMYx3HWKT58HGD6Z/sVfnpO9cBnPFYwn/3cN2612uP92DsHI/LLfpF+aE8oaCl+6epUneAkQFhG73vP07rL5ZIwf///d2fXOFgs3eZnQeAkRw9IDTakoNyQ6QA2GgT6u7oi/eRflvpsICR2gJ/vDyDHeyfg7wsJ2w8ysCY+eT6Rrn4AHKKyWA5wFM5JjP9REbHItNhsD2u9Kl1Iw+tviBxuVLyCitIBiwF+fkKCdnuIyf2mBDBikrbjzQ6YOtq8zrjj7BAV90WEUsb+SGaT3HV4oDws9LXOFbz75b+aMArJ3HbfRCxKnzAOkkSMjLMx8GYeMsyPFrcYDw3/fSd68SJYYol1rEl41f6aq+9gsPKX1p0W+X3oCn6Ev/cLYGSSuz3+fN/p/W/rRva46AS3kS69On3eMlv6+AqEgxcKUsWxuwBAfqHDciLWB7HAbIYrJjTtvka9WWV10qHBQwhMy+XtPJA2wCsCLRWfufXy4Gc09Z5Hg1ElICIgSfpC/VDA0i2Lddh5uFYX5lOtkMuo77V5C3wK9/CW2CzO9sYTu3p2qITfGe5pk3wsEpbbpQnGnDVbQF8b+OH03yK3yZf0HHC5Wvrr6F3U78cNxoPWtko1vE2zxI3OM9ZJ9JPvU5+CiHtynFq+91vbx+Xs62G/bJH5XoM30Arxf3UJv14iKQKlEFHMPysmR3y2Ar6QyWLvs7rBVYDbr3X83tAwHvwGjW9aRX61wKbViZ4Afv0+tpiPysdPWBoK1YEyDygY9v0eErsKSmSykrOLbLsq6sPRrq8FizJQMt4as7sdRs06TAdmesoK01JFraJvucT2Z5MJtpXxVaTMo2ODtOsVtLSbSHrEP0WP3T/qa4mn9f1yeVs62+WD2o8lGWWWMfbSPxnu87iWccP15vtt+ST2kgffOc6s+2l65L0jlfLuGy1P/JP45fsx0qjW697c5jI3IGhddeKFQ1AYUCTG6mP8JgGJKKfrj0g8ECS9avSMgXZXl+Z/lhOKx2df1tihX3kmcwW/u5ftzUYQXnpZDKI6ry16uQBo25X82CzS6svbnetX8TdFp/Qg06fjo4ZbKMn1LUeal2hbDo/XO6n+m3yeV2fXM62/mb5oMZDWVb+jzaUdud1JNYzXmfx3MLQ9vJav5J3sMU71+FYPD75r3Ur6Uv7SXzJe7126d7kPCHRTflB/vElSdSv/53Wn+wwUNhj9e+BPVa0B2bfwA4HQPJVJjS2foBfdCp1Nh7b3fLBf7D/Bd+aKQYZU5Dt9bUNVDmQ9drxQMjr8XLpCIIuycRWR+CxGWzmVwA4LEMnqhOfPbTqQBjlK3mOK0452SqxAXua4LwnjS/UU27LdWg5+8bSl1YHMcaxj7obJFVgm7QXKp71Vax6WegQBtIqbXwUWD8ORX20bTHmZ5Ptg201OxV2+axYSFjr9sd9TeczDS7Mz5JeqA92b7sPajyUZZZYx9s8UdygwTf6Bu5hLHzpnesI/Eq7JhzGOpYYTvGj3npTxrqIOXXs1X2l5AfzhMKWQh4jnXabwwSGA2MlFGMmJFJ/5FuBfDN7r616Lw6IfHBR6zEe+P0QfNIrynBEQk6OeL3wOxx2yF6brl4PzfcCHQp2vG+tjN+n372+qI7l2qETgC0e3RH/lAwaA2TYSH1Nh8bBY8Gwb4cF+UqXHd4tTtmnh3zXjydJLvSBnPyC3PUREYiN+Hg46KmuA3xYkhDRl3LyuqWvQINhNZwMnRIkkKklN8jHZVf2NAlb7aMDOqyPGGnR2sLPxpgVfOw5EquxD3LZcW8T4bpM5LVYlpLejr9lX0JbyViqlIVX4SlWxJgp4hpvIwfgcjA9znPWz/G4gS+EpGMkFD8N/p4mzfFrDMJ3kJ+Rvz8rnYwVaddcHuWHPZvqJDTbC5KdG49nbDzVcFEnYIzWCN+UECu2Knnf+f8GZkbMPsL9g4nVTiUeSi69zxfD4CP4gfOQfLIcvN3f3N8cA2+OAU+stgIAZ0fl7M0daasevb5j5hUwwFdLXkEel8H90jFwFANwLIxctZ+u0+kE00zxqPB72/NlV0+wXs++e3Hh7RwLjgHHgGPgjTEQtwVoWz0m4+KNlfz0j0twNk57LPQr37vitp7sPF8+iXB5HNPbMeBxY7vOHGeus00Y2FTZB5KnT8bc3h4gHAOOAceAY8AxcEcMuHLvqFxPRD0RdQw4BhwDjgHHwHthwBMrT6wcA44Bx4BjwDHgGHAMTMKAK3KSIn1G8l4zEre329sx4BhwDDgGNAw8QGL17bT+ZoeE/v7nGE/wKiUd6la+FRgOjYsntsL5NuV9T7JA95/zivosW1jonMMhhr1vP8KJ6Bd2QJ1y+OcZTgBmB4TCgYG7DuQ0HDw47IsOIs0HM+LLC8VpwhY6XDdw8OmysJPY0ReF/hp1wHe47w3fvGke3CkPLA0HnyoH+Vns/pn+vIWf/FFZ0Ld2CHHDB9NbTdHu7BDFz5T1K/vaoucenxY6/A3zJg7f9IDQoL/qQOki/nxy0jW0afIfJb7P5fVYEtMDrvXe77+n9d9/Tuv3KNjPf07rL/aZGysdrIcBqZUwDRVvVm7/pNltPI9sMKsvK51GUDfrZiRPHKzhNN4JSe7QpuFE39t6OcfPtaiDEeHmsuKJvuf1cr2t1zSgwynXMpGioCtPpi5lR52Lz7rQ4XTNT2XY+uJy63iz0Ily8085QaIlTkm21KFEj+mse1hvTmJLX8XTx8FeESfh00F1wObyP8IkycxPCO61PNKGqPMetoKeVCyXGHyt/816HsSrIZ2hn1o+T/W6dbj+JHb34M06NvVpc556MQFiN0z8cnzv090h33SC2rJYs+zQB5c1x+kG8xj8Jwzmxz86uUXvc0D3uTyP5bM6wQjUW+i0BqNQrq4c9OVo0Us8U3BOCZrtw62pPcN42ReXW6vfKpN0Luv1eq78U9K21FESSPUjtahPoL9cL+t1KVeNy6Qu1xfJKX06aIov923c0mNZznUGOi4TxlQ/BPXjx6BIO86RIfHIcPdoZWY9D2QY0an1W8fhd67D9XccI7Vu99DkPHV9UInLe/rrtPlah/z1B1erOgxWQb9b92hiVT0WkasU9JhMPTNKzB5xxYMeSUL9+rtpp/WUgmyewcOSM87WcZAZ9zWyoZFO1B31V8+W46C3xEet8CgsPXaV2T9822lJ333Sl12tThDqiRUUKa+VDuCmDoRAa79T6/Qyf+G+SNj0vrgMLXyXfVnaaLRKOlodC21ZB+Uqkx+1r4AzSCw0XSDGSuzJvlC/vAz6aSYygwFWk39P2YifcL96dFI8Chz6YIEtEXPyPeDf4oN9OckWLDYp39AE/4HV3Xase8a4oWFTTsxbcYPj4HXrlLqQ2OvjitdFbNCYI64c28NxGWly3XdjQvAzOWbZeeb8N383b2xLaHYGL3gM+PuH3GMFjwV3C3lIYXlwSB94DHtUruulkk93vMT35brervRYCffvwOy8HHgwsYKP1VIyFeuKVYRBXxVvLf1Z6VBALenEABl4iw4RwJ/1FuQPyeJH3qcTB4tysEy6GvBPA9KMgVMd6NOeMjmAwIpKj0dcTgY5Sz3R/1xfsiy0oaT6PA5SWl+klxSMlL1RJf8anbJOazCQ9RQsRXloeT0M7NVyO2/Hf0v9lLbmAVPyQe2e6Ep27+K+5YNZTh3L8f4UH4w+niZ6EaelTYexjvtBpPnwcYPpn+xV+ek71yEssD2ehvjT9l0tFhDW8R6MneNxmdoMrofyhAFt9GtTpe4A01bWmDYkVv/9Oa0/aU/Vt9P6b9xztYcuDjZ7l9l5ABjx3gNCoy05KA+oKQA22oS6O/rifaTfVjosYKS2wB8vz2AHO+UgL8vJho8yMGY+ub5RrrxSSPsilFWQmCRiMlNv8iZ54apjkekw2B5nTWrdQV+QuPDN882kaUCH8wy/g47EKhvXFf5u1ak2r4vN/XGFNtHW8Rhof+SJBiZoEMD3+nXNfynzp/6vxQHhZ8Avw0l1j9mAz+pTvVk+iDyIJDdiqT2ZiLoWMnJZJG/ZH2U52ePr4gbjuemn71wHV0RN8SfhsueHeixAHCg4NNHs9XcPmqI/8c/dEihylPJKG9d5+fd/MNmizez8XvN3AD8EXxjs9suU39bBVSQATsqShTF7QID+YePwIpbHcTAuBgfmtE3Z1Ecme2Qc8Uw0WcAQMvNySSsPtA3AikBL/Xz+NQdy3rfO8yio04AvBp6kL9RPtULZGDCP9ZVlyXbIZRxXfZ5byaCkpSaBISHDlxFo03l4y1I8wuX4AZoSQ5lP+VbgAhvr2YsOuZ7k62nKTb5Q6qqWVccy1NPxnLcd1LR03Wk8aGWjWMfbSJtnvM7i2SrbqB7nOdeVfvrOdbJOOHayPfX7vK78LXEh78Fkj97GHo3LG/pl21X0GL6BVor7qU368elJFSiPHgVyRYbE6u9p/VkzO+SxFfQ5/fHv83qB1QAyZmdWqBskDqrLNb3ZFPrUAqpWVsndB91YHrKxlY4eMChgY+IqaWWHwrbp8ZTYU1IklZWcxOf9rvpgpMtrwZIMtIzv5sxe6o1s16TDdGSuM1jZadEJ5WyliHjj13adjg7TCtV+bGR8MR0z3XAeH/63yed1fXLZdCyDfvbrmdMnOnKiWvKFeIa3e1NCDXYRMvI2Ev/ZrrN4noUPySfpRfrOO9fR9Zziw2bf1HVJeserZVzW+ZJ0so/o47eVRrde9+YwkakZ3kYP3gos91TtWrEiQ4YBbd6mtDZQekDggSTrQ6UlAlCuK/Xa66vVRiu30tH5l4FW0soBEstlMNZ4+Zqy1mAE5aWTySCq89uqk/VRt6t5kLqUts/tW33x+r1+qZ5GJ5SVe2fIp+K1X0fHDLZpJdQ2uQl3pX1Inqe7mnxe1yeXtcYRYWWWD2o8lGXl/8iDtDuvI22e8TqLZ9LB8WutX8k72OKd63As0u9sz636r3VLNLWrxNfWvmirx7w8QeFxB1NFwFWI2hOyH6f1P1idmrTH6tRcKbDICQdA8pkXGpvOWirlbIMotrvlg/9g/wu+NVMMMqYga9v3UvKn/d/mmeuHB8JWuXQEQZdkYkcMwCMo2Myv8TQqQyeqE59RO+1+4FNbgSx5jjjKg3mJjfjWlXjURbpC/eW2VB6vlPw3z7Gy9KXVQYzlpFarcw045LyhfvtBxlKHMJBWLuJ5WPXjUNKHxFCyF2Al7c2KZ48NVuFSWy02BdvOwU+3H61vrYywpt1LZS0fJN2xx7bMHL/aaQAAIABJREFUzxJ/1Ae7t90HNR7KMkus422kzQkzYbvFFJ5L/Ryw+9BP2QDd9OVXraPFljL+bLOFwELyA6BR9hUxl1bCcz8J/6K9cp9sy/zD3HZEG+8rndoa7hokNea//8AN65Bgwd+hk9fjgJgHl23yheCTjgmAIxJyclTxHg6eZG9F8AE7vB6a7wU6FDi4frUyfp9+9/qiOpZrh04Atnh0R/xTMmgMkPFV71uhxzTgWvhkdY4nVsh3/XiS5EKM5OQ37tUTb2ZiInVb6Fm/XgcwYklCRF9wbEXh4IjDfl+BBtNxOBk6JSQk03Xt89zSDchH+rHUgf7k3ijY76geMZJsKwfZ7F+STthjVegn1zX4d/CxAwNs4tfQl6Vux+fHPsh5wL1NhGueLAccQoLK8LFdj9zfqV+lbBjreBtp83Iw1eLv18UN8HmaEMOxGLWfop7fs44l/pCfmmJ4Z2zScKHvfSacDq7vkFiR8qdcDyZWU3iwBFevMy0xd5sNgsibY60cvB0vjhfHwJtjwBOrrQDA2VE5e3NH2qpHr++YeQUM8NWSV5DHZXC/dAwcxQAcC5NX5O+iz7sQ/dLVCL586wnW69n3qFN5e8eEY8Ax4Bh4QwzEbQHDD8QfX+V/Q+UeV9qXJo45IOBsnPZY6FfaJ+N2znpzXbgu3hkDHjcc/++M/0+R/VM6eZBExGX1gOIYcAw4BhwDjgHHwF0xcFfinlC9zOqY48QDkWPAMeAYcAw4BgwYcCUZlOQJoieIjgHHgGPAMeAYcAxYMOCJlSdWjgHHgGPAMeAYcAw4BiZh4GsVCd8KpINBy+uebwWCUuBVSjzlvD4UMBxUFk9shfNt/K1Bzf6f84r6LFtY6JzDIYbxwE1+kCuffYmDDpf1VhwQCh8VTt+PhINU4cBAcSBnb1OwfImAv7mqHjw47IsOIqVDXOlanKA+iY7QX5AdPnZ+rmZu3PfqN2+s+pEHhKr6oYNYH8iXLTikoJ0/Kgs40g4hbvhgeqsp2ruFZY7rF/u9Rc+kb+1qoTP003AYch5vmlh90YNGw4fW0yG0Ssz8ZOwNbZr85+68agPr15b9+nNa//vfXh4wILUSpqHizUCQJwhrjjuvbFZfVjqNoG7Wjc12s2wxpBNO9L2tl3P8PIo6GBFuLiue6HteL1d+0jKcci0TKQq6/VP+Uefisy50OF3zMxi2vrjcOtZm0Ym64Z97giS0+JxP4OeD6cx0WG+tHzx9HOyFOIJTlxflO4Zc/keYJJn5CcG9SIAr3xr7YNCTimWb/+mYefy2Zj1XOpWyDekM/fRVP1djlCt+7Hu5tmKm1Hcfb9axqU9zaNOICYjdMPErv3jR57Hfd9F2U+VqhloQO37/G37e5hd9O3DgHFX/g2BuVXxFt+JjDhDG/YB9ZvU1i84czMyyxRY6rcEolKsrB31ZW/SSXSk4s0+y1G1sdinbcblTfxVOa/6307ms13L1rlgxIoyKBFL9SG3BT6WfOmED2YKsRRLB5QeZWpOpLbo5UtfMTwjqcgVzT7+lHffQeMY2Zj0PfGFEp9Zv7advX2dHzNQxV+tWr1fEj8LGI5smmlXc6dNN7Yr+OuXTCR5Krn7+77T+9+e0frcLIPs7mljxR0ZbH/eIwI8rHvRIEs6YUr+bloLsJX/Xa6HZOg4y6vlUoq+RDY10ou6ov3olJg56S1z6hkdh6bGrzP7DKsNgidjqBKFesTrCAW2lA23qQAi62+/UOr1sj3BfBB+9Ly4Dl43/LvuytOHt6fcsOrJ/lGtrYlXrBzFWYk/2hfrlZUDn0ROrwK/2LU6Oj6EPFtjqxAGLDxIm9CvZgsWmD+0RyijWPWPcsPip1znuc4gNGnPElWN7OC5vjAnvlljBnqt//8nBQ3f4zv1DCsuDQ/rAY9ijcl0vVaKnO1XiFz6AmpZIYWn1sl4h0eBgAZpxSXK5UTIV64oVgkFfFW8t/VjpUEAt6cQAGXiLDhHkyXoL8geZPvIenDhYlINl0tWAfxqQjjtxK7EieeUAAkvcPR5xORnkLPVE/3N9ybLQhpLqc1yR4QNsoROtL9JLCkaLvu+JyzCLjpqMRnloeb31CC/z09ZPaWueROX2pNMnu5LdCxtLuQiTbdnKBFm0n+KDyAPsG0qPZa+wT1FOok7DWMftHGk+fNxg+id7VX7qdW6XbTFTYFTgvzc25fFlPC63/UX0fShPMPVhqtQdYATDQlnbaH//Bzey7920DnzgYLN3mZ0HgBHvPSA02pKDch2lANhoE+ru6Iv3kX5b6bCAkdoCf7w8gx30noO8LCdsPMrAmPnk+ka5+AByislgOcBTOSYz/URGxyLTYbA9DlJq3chDqy9IXPjmeS1pCvqfRYdhIehRSQSrzevKBneBiY/aVwNtKBd7rGCzdl2XaD3VVYsDTLcoC8NJdQ+xq2MZ7s3yQeRB+EDEUnsyEf1KyMhlkbxlGWQ52fPr4gbjuemnXscUMxv4JRvjFe0vsJbaKThM93gc3/L7HjRF/+KfT0mgpEJz/4c2rQfwQ/CFwS7TbPXVKs9v6ywrrCLBwJWyZGHMHhCgf9g4vKS3E9OqQjk4MKdt8USBUgfdFllHPBMtFjCEzLxc0soDbQOwItBSP59/zYGc963zPArquCLTegSF+qlWKEVymnk41lemk+2Qyziu+jznNj06ahIYkuslvOFGCVF4Y6j5CLelH+BBvhW4wKZ5WClREjku29P8NvkC97VsFy6jjmWoq+MZV8e3JKcaD1rZKNbxNs8SNzjPWf/ST71OOSZJ/WS9cdzqvyUuyjr2cXlDn/BSTNyuUspR9r/j/w2MiEF2cru4af33j2N0W0F/m2LO6wVWA2691/N7QIiDxnJNs+7QvxZQtbJKz72+tujLSkcPGBSwMXGVtPJAjG1zIknHADzGioM+GOnyWrDUDCTNmb3UG+GySYdhwVynTN4ZDejvCJ3Qlq0mEf8SGxmTzb6a+sltM+24IuqJlZj46lgG/c3yQc0vyjLEMyS9KaEGvIm4xttI/D9u3JB8EhYlnt+5Drdp9tkUH4qYQ/prX3VdyvqWcTnzItuW5cj/HRIq8tGyw6/5//CmdTJkCNjFHgC6t+PaBkoPCBtAJwJQS/e9vlpttHIrHZ1/Ctj9xAr7OLJq2HcITS57WWswgvLSyWQQ1fto1ckDRt2u5sFml1ZfXF+9fqneXjqhXbm/JvmUjhlsU6+SWPgkfgl3pX3y/VrHD33P5PO6PrlcNY5ID7N8UOOhLCv/Rx6k3XkdifWMg1k8kw6OX2v9St7BFu9ep/RJS2zhGM6/a93me7UtJb7q+7224d7kPEHpbwdTKZjOa3t40zrxtHEmLBUCB0DymRcau/UIIgeFUg+x3S0f/Af7X/ANwWKQMQXZeTP2Ns9cBh4IW+XSEQRdkokdMQCPoGAzv9Q3p93+jU5UJz57aNWBMPZb8hxxlANHiY3T2n6shvrLbQvZyKmb51hZ+tLqIMZyUqvVgTOhuC61OiUd2rvYn7AQBtLKRTzrqvU4tKkfwEramxXPHhuswnWxEGzLZS7sQbHjs66EtW5/LR/MvKfBhflZ0gP1we5t90GNh7LMEut4myeKG0M/NZ739Kp0SoxVMbPEat8HKX7UW2/KGBUxd2QFm2zC/CP5Ttcvs0yD+uaKuwbFQeeBJm1a3312FVdENG4eXLbJF4JPOiYAjkjIyVElSzh4kj3q4m/8hddD871Ah4DI+dXK+H363euL6liuHToB2Nrr4GlQMwZIeNwEg2OhxzTgWvhkdY4nVsh3/XhSJrk5+QW71a+Vo0zx8XDQU10HMIL89pMQ0RccW1E4uKWvQIPpOJz6nBISxP0cOi39lY935d4o0KF2xMhYP5JO2GNV6KfyRYaX6l7wsX5Qr9r06B291/H5sQ/yeIZ7mwjXZaJ63Ae5v1O/Stkw1vE2ncTq4eIGxDGaEMcvLSg49Do0zunxMMfEgQ92xiYNy3UCRhg1XN8hsZoa1A4mVlN5ORqAvf3dknm3syH4vAj+2jPh99GB491t7RhgGPDEiinDFOhxdlTO3hxUW/Xo9R0zr4ABvlryCvK4DO6XjoGjGIBjYe58fMvrGYkvzXqC9Xr2PepU3t4x4RhwDDgG3hADcVuAttVjMh7eULmmla9n0AvOxmmPhX6V+4gmg8cf1b0Mlp4B787jHP/1uDFHj45H12MTA80bPmj6oOkYcAw4BhwDjgHHgGNgGwY8sfKs2zHgGHAMOAYcA44Bx8AkDLgiJynSM/ptGb3ry/XlGHAMOAYcA6+IAU+sPLFyDDgGHAOOAceAY8AxMAkDX69IOCD037+n9b/49/ufYzzBq5R4ynl9IFk4nDCe2Arn2/hbg5quP+cV9Vm2sNA5h0MMe99+hFOUL+xQU+WwuzOcAMwOCIWDPcWBnL1NwfIlAv7majjYszx4cNgXHURKh/PRtTiY1EAHAgn3Ge2NGaE/OBx1gY+dn4uZpjzYU5UrHAKZ/VOvY6TDPsz8CL5swSEF7fxRWdCldghxwwfTW03R3vxQ4jdZ+diiZ9K3drXQGfqpCc+veNCoPdZpur9X2dCmyX+U+D7Xf7SB9fPKqlPXD3+MGQ3eSpiGijcrV54gfC+gIN1ZfVnpNIK6WTc2/MyyxZBOONH3tl7OMGB/rPUnVoBfws1lxRN9z+vlyk9Eh1OuZSJFQbd/yj/qXPRJh9PFxAToQDKTT1+39cXl1vG3gc4Hk7U6ZDfqhn/uCZJQ8Wmc+Nkl9oFmOC15EXLZPgESbDSiE5LBJSUlT5VYVfbW/GXsg20sa/Rep4zj/ojdh3SGfmrD8+lV6VTjgRLrqjotHFrHplZ7LB/aNPJTx9w+XT2+dtt0bxYz0vl1f/05rf/9T9INH2QuysyCVYOCpG1V/Li/OUAY9wP8z+prFh2pU5sMdZtZtthCpzUYhXJ15aDmm8vbopfqUFBlK1J1G5tdynZc7tSfIZBJOti3SPyqj8te1uu1XJ2KK2ZJZ3WiBTwFHtmqiuxbw7aNTqL9QKvP3B4gZ2tydwqJlVzB3GI/qlvrso9VavfsV7OeB74wolPrt/bTd65T4UiJdVWdpk1q3drbZtyPbJpoHuI195fo1XKZKt0twXq4xIo/MgqPPOQqBa1sqGdGsQEEkiFY8aBHklBf+25aDrLsMdQCqytgFxxkxn2NbGikE5NS6q9eiYmD3hLlgkdhSUa+4hI/UJy+Y6cvu1qdINQrVkc4oK10oE0dCEF3+51ap5ftEe6n5KPdF5eBy8Z/l31Z2vD29FvSsSRWWR6iAVfZP2KjxIyso+tZ1rHQQX54O5CpmcjUQe8u8WzET7ivfYuT42Pog9kW0o65nGwUVgwHPkh19SvZgsUm5Rua41j3jHHDgtV3rlPjLeCRY9nkd4gNGnPElY+nw3F5Y0x49cTq9AP3VtEHmL//wP1W9L/u8LVRU71DCsuDTPrAY9ijcl0vFUh0p0p8wEeIr/RYCffvXCHIcbAAzfhYYLlRMhXrihWCQV8Vby39WOlQQC3pxAAZeIsOEeTJegvyB5k+8h6cOFiUg27S1YB/GpBmDJz6YETyygFkuV66AzAuJ4OcpZ7of64vWRba0MrFuUxSqG6+an2RXlIwUvc9ZRqgb40OJff0KFJ9hFfZqMSSJmspF+mZcI+Y5wkJTSZKW8s6UiYrjh6mHtm90imXi+mqUU/HcqQxxQeRB9gHRx9QR8zJSdRpGOs4NiLNh48bTP9kr8pP37kOxyr85jYu71n+L+MJb5PHl/G4zNt1fh/KEzp0s6+aKnUHmKMBq9q8/mM/T+j4e5fZt4CjB4QG/+SgWfkxseoNzkBrR1+8j/TbSocFjNQW+ODlGexg/xzkZTlh41EGxswntxHKxQcQ3BehrILEJBGTGW0Dd6arY5HpMOABBym17qAvSID45nk1aQL7DeiAjarN69XG9CxXsncxOw26rfZGwSZr8keb7GM6khfC2NNctTgg/AzkY7qq7qH8Opbh3iwfRB5Ekhux1J5MRNsIGbkskrcsgywnW35d3GA8N/30netEO0dsqvGrgVuyrbyi/QXWUnsFh+me5EPS7N27B03Rn/jnrgmUJnTYT/XntP78Fvn4dlp//z2t/259MzCAH4I4DHb7Zcpv6ywrrCLBwJWyZGHMHhCgf9g4vIhHgTgY0yATeWROq+kHy0Z9WeW10mEBQ8jMyyWtECDDQNsArAi0Vn7n18uBnNPWeR4FdVzZUZKvoDPUT7VC2Rgwj/WVZcl2yGUcVxrPAfPLNa1KhLcjR49eU7LE+5Fv8y2w2Z29uddKFmrZR3R4n0/42+QL3Nd0GXUsQ10dz7QyWa++6/SJjoynGl+jWMfbPEvc4Dxn/UisvnOdrJNWIs/jzvi3xEVZ3z4uc74Gv+HlmvioXE/oBu3F2FjVrQo+NbmCJOp3sUIV3hT8c1q/9xlX+QzAV4P+FjnP6wVWA+jV+vLxHRs4dYPEQZUPVtBGC6haWSV3H3QlCNv/W+noAUMGWkkrD+jYNj2eEntKiqSyknOLjfbV1QcjXV4LlmSgZTw1Z/ZSb2SrJh2mI3OdAf4lnY7sxYoU8BraAn22GZ9k0K4ZF6Cb/bJLOkzPTD9a/w9ZZvJ53S5cHh3LoJtZPqjxUJahTeHICIEJISNvIzGQ7TqL51nYkHyS3qXvvHMdpudmrGN1hn6q65L0jlfLuGztE/Gmj99WGt163Ztq8iKFPda+mVj9Pa0/h8ZQ+g5GLvYA7KET26SBpKLRAwIPJJlHlZYIQLmu1HGvr1YbrdxKR+efAjbOYCWtHCCxXM5yNV6+pqw1GEF56WQyiOr8tupkfdTtah6kLqXtc/tWX7x+r1+qJ+notg51igQNy7b4Vh289sle0yFZnvJq8nndLlzeWpeElVk+qPFQlpX/Iw8SP7yOxHrG6yyeSQfHr7V+Je9gi3euQ1jMNjyi81q3RF+7Snzt6HdynqDwuIOpKsnYT6P1KLA8gkFhXE/6DmXPcAAkn3mhsfUD/KJTKbN6mpl/3PLBf7D/Bd8QLFZtTEG219c23ducgAdCTp+XS0cQdEkmtqoBj6BgM7/Zjgxj6ER14rOHVh0Io3wlzxFHOdkqsRHffFQfmaGecluuQ9rztKT9Ubg3iicslr60OoixnNRqdeBsKalLsl1acYhnVPHHmKakCmyc9mbFM8OK5Mx0po+FDsPHEAfBtlLmYZst9LfWJax123FfK/AT26XBhflZkov6YPe2+6DGQ1kWY2Q31vE2TxQ3aPBtnjdn8eUXrhNwiLZtxjqB1b4PUhyqt96Ucaw/Licf6PkX2Zb5h6ldj6a8pzvt5E66A2pIrtjJ6//+b99jwMDzocQKB8tbekUZjkjIyVGlk3DwJJ14XbzxF14PzfcCHQp23ABaGb9Pv3t9UR3LtUMnAFs8uiP+KRk0Bsjw9tmVnWKOekwDt4VPVud4YoV8148nSS70gZz8xr164s1MwgY7eV199Zwel/FEqfYx0RccW1E4eBgEl35fgQbDajjFPCU2JBPYoU8HJgJ5DwPKLo8GaekP6nIdSjphj1UhF/jQSPaSnxadyh8ZZsS94GP9oC7qt+jMKu/4/NgHOZZwbxPhuhzcEEPkw3t8kPs79auUDWMdb9NJrB4ubliw+uZ1YA9leQiw4iemGN4ZmzQs1wkYYdRwfYfEampQO5hYTeVFAZjTN4De9dadiDiGtmGoPRPeRsf17vpyDLwIBjyx2mpInB2Vszd3iK169PqOmVfAAF8teQV5XAb3S8fAUQzA8TJytX26TqcT/PLZNn/U4AnW69n3qFN5e8eEY8Ax4Bh4QwzEbQHah+Yn4+ENlfsyj5pwNk57LPQr3wPjtp7sPF8+iXB5HNPbMeBxY7vOHGeus00Y2FTZB5KXScrc7h4oHAOOAceAY8AxcAcMuFLvoFRPQD0BdQw4BhwDjgHHwHtiwBMrT6wcA44Bx4BjwDHgGHAMTMKAK3KSIn1m8p4zE7e7290x4BhwDDgGOAa+PrESB4T+Oa2/6IPMOw0Fr1LiKef1oYDhoLJ4Wjqcb+NvDWr2/5xX1GfZwkLnHA4xjAdlqt9+hBOSL+xQ02W9FQeEwv30/Ug4SBUO9hQHcvY2BcuXCPibq4FOeZDmsC86iDQfAIkvL3QOJu0clDnSj7gfZIePnZ95IAnfAhQHjSoHn451CHiUB42q+qHvFj6QL1twSJM4qSftEOKGD6a3mqLdW1jeGTuJv0e+btFzTw4LnaGfmg68feFDRNlY+wlv2hXxph67hjZN/qPE97k+UzPXA+Pse5RU/YzJ1Pcfp/Xfv0eSKwxIrYRpqHizcuUJwrP1IunN6stKpxHUzbqxYWqWLYZ0wom+8OHg+JkVdTAi3FxWPNH3vF6u/ER0OOVaJlIUdPMnZDS5Uef88zDjz7rY+uJyS7xofOSksfKNoX6ibvjnniAJ1T6Nwz7QDKclL+JUZptcePp4/tBzTQfl4/I/wiTJzE8I7p0EOPjZ2AeDnlQsa/Z/nTKzngfxakiHDpH0T9qEryWUJ6wH/X2wGHnocG7r2NTH8dCmERMQu0t5xjG033fRflPlYcZYEB/Wh48w//uP5OH7P6f1Xt8KtCp+LMccIIz7Ad3M6msWHWkvmwx1m1m22EKnNRiFcvW7jzXfXN4WvVSHgjNbkarb2OxStuNyp/4agwnUXa6X9br0V2nLPpDuZb2Wq3fFihF9oLtM2gKPg8Ff9lknbMCDRofLDzTKvkc6mX3fzE8I6nIFcw8vUm99nO6h/6htzHpu+ALJNaJT67f20/etg7oQE0b1o9RWXNa6JTttuY5smmgpcTndG+DGWM8q+H3qQWL1+4ekHRKrPzu/FzjImoeK54+Mtj7uEQMIrnjQI0l4TCO/vxZlTkE2ryjAow/8rh4OMur5VKIvqb/a8EY6UXfUX70SEwe9JT5qhUc9aSlYzsDDKkP6jp2+7Dq0Bc0uwveo2gOnlQ7opQ6EoLv9Tq3Ty/YI90XCpvfFZajth/TKvixtAq1gVxjI9b55f2Uf/F75W/aP2CgxI+tkvXBask87HU4baDx6YhX41b7FyfEx9MGsQ6m3XE66tfgg1dWvZAsWm9TvY45i3TPGDd1XOOZaceOd6hxPrBAbNOaIKx/jhuMy4p/rvhsTgp/JMUv3gdqvjPV2NxyuRlkYaK5YHUqs9ioMnQnAkj7wGPa6XNdLlcXqjpdkvlzX27WgA4kGBwvQjEuSy42SKdzrI1cIBn1VvLVsaqVDAbWkEwNkWL2IDhHkyXoL8geZPvIenDhYlINu0tWAfxqQZgyc+mBE8soBBFZ4ejzicjLIWeqJ/uf6kmWhDSXV57giwwfYQidaX6SXFIwWfd9TXqUa21/XD/HOryUtTdY9cu2j07PTw90juxc2lnwSJrnO5e+urab4IPKQJ3q0r6+Ir8NYx20aaT583GD6J3tVfvrOdWjsyo8CW4/sJa4lhvO9Mp7wenl8GY/LvF3n96snVq09Vv/9Pa0/u4FHVxoONnuX2XkA0OnbgNBoSw7K5UoBsNEm1O2BrteuvGelwwIG5/XEyzPYQSc5yMty0hefSVDZV1wzn1w3KBcfQHAflLIKIlYUtEQm09WxyHQYbI+DlFp30BcEMr55Xku+QuKeErax/XX9ZJnIZqFeoov3Q1m1xwo2WRf+OJDLTEdgs+aReH24qxYHKlkYTqp7TN/lRC3UneWDyIOY0ETbtScT0Q5CRi6L5C3jTZaTzb4ubjCem376znXQzvxFsbB5vXqhxeqXvdik4LDhE4Sb8fUeNIWs4p/uDH3M7D5alFxBMvXv/07rT9hjtXXFKoAfgjgMdvv4APny2zrLCqtIMHClLFkYswcE6B826i7p7cS0qlAOMsxp2/od9WWV10qHBQwhMy+XtPJA2wCsCLRWfufXy4Gc09Z5HgV1nKEpyVdncKO9SCVGj/WVZcl2gDJuL/hf2kzDm66fTB/aqElglDn7Dzz6vq4XeIxbJGC8X12H8q1ACx1O8+F/m3yhtJ20AcjYtpWOZ1wdL5Jc4d9lHxoPWtko1vE2EoMZr7N4LmXY+z/nOdOQfvrOdeJYuVzjtpX4VnXxQovdFyUuynY5rozG5Wyrkkb1P7xcE7eriMlD1yfM9M0VPy3pConW1sQqKqMd9LfIeV4vsBpw672e3wMC3oMBBfdKxb61gKqVVYbt9bVNrvxYqNdODxhyoJY8lQEyJ5L8OIAtQb3H3/57+mCky2vBkgy0jK/mzF7qjZy9SYdhwVwnJe8o1xZb6PrJciWdsM34JIN2zbjINMp6FrksdEq6D/u/yed1THKZ2rbabndON//WeCjLLLGOt5H4z3adxXMbZ1kuSx3JJ7WVWH3nOtymWZ9SP7mc9Ne+6rqU9S3jsrVP5P8OCRXlSVZGPq+etu9KKrjDSxjQij0AbHAy0xkmaj0gdECXBr0ogynI9vrq6KKS20pH59+WWGEf5YrMVr3fq35rMILy0sksQaJVJw8YtX1qHmx2afXFddXr9+iKVehfHJ9Qy8Z5IbyUepV1xvuwrHRKug/7v8nnWz6YdV7jiO7N8kGNh7Ks/B95QKzQRIrXkVjPeJ3FM+ng+LXWr+Qd8PW+dbhNs66l3XP52Bdr3fba7O8n8jQ5T1B43SL8Her+kG8F0mPBPfurgnDNlQIL73AAJF9lQmO3HmXkoFDSju1u+eA/2P+CbwhSsIltTEE2OnDnkYpiWMqcxbXNM5dBdxoa4DBpko4g6JJMbFUDHvnAZn4rn7weOlGd+PA61t91ICzsQDxHHOWkoMQGHPoH5zRpfKH+cluuW1gyj+c7Nc/HsfSl1UGMtZNaaTNNZy39oA0GExawcdpjEc8MExMJjWdFh0M6hT6rCURxP+BRs1NRb0Rn1n3yjy69lg9mntPgQpjl9KgPdm+7D2o8lGWWWMfbSAw+dNwY+qnFl1+3DtkuPZXxzot8AAAM+klEQVSJZ9tVL2il7QN9HyR69dabMm5EzB0ZD8m2zD+0eHigLDvqASK7Bkzqj5KptMfqyMnrcUBsDy59eUPwSccE4D6R2tCRRjhYkT3q4htJw+uh+R7sE8HNxfsSKxiMb4wvDbykz+61QycAW3sdPA2OxgAJjgSDI+M37JPZCeLjiRXyXT8Sk7bIyW/cq1ec3YQyxcfDQU+dYyQGKzuiL+WEcktfgQbTcTihPCU2Gs7loJZxMtJP6z7oietQ2RtV2NwiF6ys5T0Vca9WQSfzrslZlD1RYjX2QS4b7m0iXJeJ/HEf5P5O/Splw1jH20gMloPpcZ6JT9oL2B/MRzga+Sm0f9860k9hf7N6pJAxseqNcRoumuMyn2C0fr9DYjUC96b7BxOrTX21jOblhxJtt0EeHFwXx3VRDt6u0+M6dR26Dp8aA55YbQUwzo7K2dtTg8ATNU/UHAM7McBXS7bGEq/vcdMx8IoYgGMi5Gr7dDtPJ7gzAM7jgy/NeoI1T6+v6GAuk+PDMeAYcAy8CQbitoBwLFOx1WMyBt5EoS8548fZOO2x0K98D4zberLzfPkkwuVxTG/HgMeN7TpznLnONmFgU2UfSF4yQXMMeNBwDDgGHAOOAcfAJAy4Iicp0pNOTzodA44Bx4BjwDHgGPDEyhMrx4BjwDHgGHAMOAYcA5Mw4IqcpEifpfgsxTHgGHAMOAYcA46B+yZW37+d1t9/Tisc/vnf//S+vv84rf/Cffj7c1p/HTkgNBxGRqec14fDhcMm44mtcL6NvzWo2eRzXlGfZQsLnXM4xLD37cf4EdF04KZy+OcZTgBmB4TCwZ7iQM7epmD5EgF/czUc7FkegDnsKx+AKF9a6JyObjkos1FH6A8OR13gY+fnYgApDgxUDj4NkxhxoKSi5+KAUFU/dOjgA/myBYc0ieMHoOpfdmj4YHqrKR4+zA8lfpPBbIueSd/a1UJn6Kd+QOia4k/L3z8Rl0ObJv/R4o42Fu4u292wCKoKnZhU/fx2WsPp6lpi9Q2Tql8/sD0kWZBg7U+uMCC1Eqah4s0gkCcIa447r2xWX1Y6jaBu1o2CBaXtLFsM6YTT5m/r5QwD/8eqn1pPuLmseKLveb1cb+s1JTxwyrVMpCjo9k/5R52LPulwupiYAB14/XdrX1zuMdYu6ST8lm+ETxbFxFLWibrhn3uC5Kj4nE/QLZzEHnUGpyUvQi7ABbVr6Tl+vmlIR35j8BEmSdweXX4qe2v+gnrqYauNZY3e65SZ9azEHO4nQzpDP33dz9WMP7tl91Ou8/Zv69jUx/HQphETdczt023z3WzXvDFOnAbA5cy0Eiut/Nef0/rvPzv5Gpy8blU8513/PQcIOu1S9ll9zaJT8rfv/1m22EKnNRiF8h3fnmrRS3al4JwSNNuHW1N75mNlX1xurT4vg7rL9bJel/YqbbvOZb0qZ77I/ilhkqtYoQ5bVRnr2UYHZOP9A12ZDO7DJNfZ1t9mfkJiJVcwt/YF9Us87KHxjG3Mema+o8k5olPrt46f71vH7qea7uuyWrd1nbFPj2yaaCpxOd0b4MZYb8yskVA3EdMSKKCrJVHf/8FHgt/3CHg0seKPjMIjD7lKQTPutPzJv63HBpDwvbNrfiQJ9dXvKKUgm1cU4NEHzvoRvOO+RjY00om6o/7q2XJ0piXKBUu/SUa+4hI/UNx7rLZhYAzOUqyOcEyanak5GO136jqwSluE+yJh0/viMnDZ+O+yL0ub0D7YFQZyvW9zncIfZf+IjRIzsk6n/0TbQgd1zGmDbh49sQr88nhBvzk+hj6Y8VXigWMFfocVw4EPlm3k/2QLFps+tEcouLqLH5nHR5Qy1j1j3NCxyjEHMV6bqLxHHcJGxmPA3HVZ9Ufbsl7GGdKhMUdc+Xg6HJc3xoTgZ3LMyjy1eN1UvqlyN3nqMdZKrH7/Pa2/4TFgfAQIjw2PJ1Z7FYaOAo9t0gcew16X63pJgZ/0pTtV0gF8hPha0IEgx8ECNONjgeVGyRTu9ZErBIO+Kt6Ix/JqpaM7DSWVOIBFhwjyZL0F+YNMH3kPThwsykE36WrAPw1IMwZOfTAieeUAAis8PR5xORnkLPVM/yNdyTf1RbZHu8tgTO3zVeuL9JKCUWPfUw7+Lfvzcv4791/roaynySpXlQg/t0tPzxY6Pb6e4F6aTPV4ZThp+IeO5Uhzig8iD3miR/v6ivg6jHXcppHmw8cNpn+y17mF554vvzYdGdtK/fTwXd4r4wm/j/ds4zJv1/n9bokV7K0KidXf0/qzEVDqIJ8ViIPN3mV2HgAyTb2/HhAabclBuVwpADbahLo7+uJ9pN9WOiwYpLbAHy/PYAf95CAvy0l3o8SB6t37mvnk+ka5+ACCewyUVRCxoqBt4M50dSwyHQbb4yCl1h30BSsSfPO8lnyFxD2tiDTsD3yM6ggcRHunNihz0G21NwpWMMgfbXoe08k6vjde7kJfiwOFfqWv6fLqWIa6s3wQ7SUGT+skScjIMF/wlmWYxbOuq+12ZDw3/fSd68QY0PX3LbZoxKbgFwoOK3/Z0hfUvQdNwYP4pztD3w7OTHu4YsUUtWvFKoAfgjgMdrnfrTznt3WWFVaRYOBKq1eMRwpeIuiU92/LypfHcWWBBpnII3PaNq890G2R1UqHBQwhEy+XtEKADANtA7Ai0G7heW7dHMg5XZ3nUTKIm7OV5CvoDPVTrVCK5DTzcKyvTCfbAcq4veB/aTPEm6VOpg9t1CQwypz9Bx59X9eLeDRg1bN8u7CmI/lp+82D1jP5QmmXWhYdy1BP1zOujhfxR/h32YfGg1YGL3b0Yh1vIzGY8TqL51KGvf9znjMN6afvXAd0MtNPJS5Kn85xZTQuZ1uVNKr/4eUa9WWdDTTa/jOFyDAhayVWs/dYtYP+FjnP6wVWA+jV+vLxHRs49cQqDqrLNb0hFYyqBVStrDJWH3QVYKr2JLuVjh4wKGBj4ipplQEyPZ6ifSThuiWoE89zr/pgpMtrwZIMtIzX5sxe6o1s16TDbGmuU64QCRvE1/Q31clyJZ2wzfgkg3bNuAAa+/Us6WR+tD4fvszk87quuGw6lrOej/ugxkNZhniGFU96GzTwKGTkbST+s12xznGeZ2FD8kl6lz74znV0PWd76vdJj/VV16WsZxmXrf0i3vTx20qjW697c5gwScHbtFqJlVauJVvWftJrosbAP6KbBhI2wGGbHhB4IMk6UWmJAJTrSr56fbXaaOVWOjr/cmCUtLJDYfmRVUMpuybH/rLWYATlpZPJIKr32aqT9VG3q3mQumzJ3+qL1+/1q69Ylfy1eUH8FvtrKr/g9OrgtU/PNR0u89P9Nvl8ywezfmsc0b1ZPqjxUJaV/yMPiBWaSPE6El8Zr7N4Jh0cv9b6lbwD7t65Tu13aOcyjtb1NNvUuu21k/jS6A3KwsR3Sywb0Kvj4OYGu5ItLYEKipt9jlVzpcAiJxwAyWdeaOy8/0TSyEFBltMA9nG7pseIsP8FHwtSsIltTEFW39PSA17rXptnLgMPhK1y6QiCLsnEklt4bAab+Vt89crRierEp9emda8OhIUdiOeIoxwkSmzEt67UtxUHAYacunmOlaUvrQ5irJ3USpvpOtLrmJIqsHE6NDSeGZZWxqx6ho3ABjp1IGtjK+BxDn50nXEfMfwm/+jK0PLBTD8NLoRZTo/6YPe2+6DGQ1kWY2Q31vE2El8PHTeGfvre51ht8VNLDBdY4Fg+lbEuYq7Y47nJN8m2zD82tRf8ZZ9kNNTCdpAaExRt4a2/cKJ6ceUb06eevB4HxPbg0pc3BJ/0ijLuE9H3WKFT3VhdsZ9GnC4d6VCw4zrUyvh9+h0OuaTHOMrbhVRvdO3QCcA2PDbqPwpE/Wp6FI8KRnyy+xanZIAW+MNyDOz1YwaZ5ObkN+7VK85uQpnYyevqq+e0B6k/GxJ9KScWW/oKNDj+gE5KbDScy0FN15lWp6U/0BPXobLnQglcQnZVhzY6Ov+K3MHHniOxGvsglw/3NhGu8yRglg/yhIj6VcqGsY63kfgqB9PHihsweaIJMXxtgB8YTPp45zp2PzXF8M7YpOGiOS6zsaMZI549sWoKZhF+T52DidWn87tHRm+jJE850LkNXRccA+Xgze/5b8eKY+ANMeCJ1Vaj4+yonL2582zVo9d3zLwCBvhqySvI4zK4XzoGjmLgfIXPiPHV9uk6nU7wy1cT+PKtJ1ivZ9+jTuXtHROOAceAY+ANMRC3BYRjmYqtHpPx8IbKfZlHaTgbpz0W+vWuWfmXJ9GTncHleRnf8LjW9g2PG23dOG5cN1MwMIWID0g+IDkGHAOOAceAY8Ax4Bjw7NQTS8eAY8Ax4BhwDDgGHAPTMDCNkGepPlNxDDgGHAOOAceAY+DdMeCJlWfpjgHHgGPAMeAYcAw4BmZg4P/Z/e4I0zjpmAAAAABJRU5ErkJggg==;" parent="QhBDd5DWaKf9dE4gqBnc-2" vertex="1">
          <mxGeometry x="640" y="210" width="290.02" height="113" as="geometry" />
        </mxCell>
        <mxCell id="QhBDd5DWaKf9dE4gqBnc-14" value="" style="shape=image;verticalLabelPosition=bottom;labelBackgroundColor=#ffffff;verticalAlign=top;aspect=fixed;imageAspect=0;image=data:image/png,iVBORw0KGgoAAAANSUhEUgAAAuoAAAAxCAYAAACMAYxjAAAbxElEQVR4Ae1d3ZHcOo91LH7xF8MG4Qc7h83AVeMs9tnlSWPfPIls1XQo2gJBkAAIkFA3p93jgW/dkkaC8HNwCEJ/rU9f/vP5yP8Tg+RAciA5kBxIDiQHkgPJgeTAY3HgUybksRKS+ch8JAeSA8mB5EByIDmQHEgOAAeyUc87CnlHJTmQHEgOJAeSA8mB5EBy4AE5kI36AyYlz6LzLDo5kBxIDiQHkgPJgeRAciAb9WzU8ww6OZAcSA4kB5IDyYHkQHLgATmQjfoDJiXPoPMMOjmQHEgOJAeSA8mB5EByYNqoP728Hu3f5dfxbWhqfxwvx3G8/FRA/vzTDisrLz/ufJb29fh9AcfubVfh0PC60p/vP47fIgd/jt8/vy6wjNiKyHixnN0+2vr2zHjVmPJ6/P7edW+T+f7jeLkwe5fX42WGYeXu5dnC+es0H9+Ctr79/HMAPcu/yx8R91CUHX924QP2vj0zf47X40XFHrEl/PZ83ohPBMOHk+HxD7UJaynRQi7/HE+tlvQx8sXBOZILlJnw+fuvzlFyRnN1kAHu/DDmCfB5YotiK/iQsZGHS5//cwWGxbZRo3iuwCWnbqw4trMmrGwBxnLOtmvLSk/UZ8EzyqFa3stWpEZFZCIxfQnNy7FcSHsjD2H/CsMPL8PH6lBXWb1U3JTYP7ac36iXSUA2T2NgTqPOAHkqnfydG+Yygax8vyUxOKDsZs7Qe5U/MLHJxpwG7HBixPD+ErHlypyMi9v11g1bpWCaJ34duz0yyM/Ly6/jiU4CYFDDvKuaUeQ2NPXYKIz7SVdvRCAfR4uD9i9sER71ZKHoODyu+v7swQeadDiJYRN68U+efEds9drg+bwRnwiGDyjzcvlzPH2HCTx6EcGeuNdcpXHk5QL2Uz4cPls80HOCloEGBsZPGxPMD9j84tgqtaP60xr9r8fTM+Mll5nqIZu0nGFYZYgrVCMaNreOZcL4Vj2fj1bXJ3Wj8OoAjmFc337CyZaqLRSrqyfos1fv+fY72orUqIhMr2PEH72MzcuhXHCsYJ3wajxk29x8pcz5uqpzSn+/Qf+jc3zl34tG3bmSc8JYfFIisG5fvr3Ncwnd6c9K12o/FCJf5lxc66Jm24oUzD0yP47fRkPu6Ybtl2dsNnSj7h7zk5qPmK0Rex/za/zhOfF87jJoW9950j6u9fQx6/u8Dx/tX7lae5EnX48m0zG3xwTf39atibvWXh/nSC7qCdrQUMPVu8rnYluesA04mzLY6PGLCR5/mi2qSYY/DYty5+fVOAlgPlvz0gRD0j1yZRdXd+mxOKPrBp3oyDuBBXt2lXGMddRzpmYShtbynrY8jnG/IjJc/sy6jDWWC61f6sBxPG7T+Ypw49+V4RiOWPVayOX89RFbX/as7tvkh0a9kJnuPvIlL6K1QNNuXpR1YCvwyll/ew7Au915IshJYZ7f4q8TzHO/CnUMjwGgDMUtlqwYCgw8f/jtGlAEt5XrWbM4Xk0+Uzw9W1yHKROM66zPpi2/SeBxR4pqRIbrpHXzuOIrnJhag9XaFuOktGXrkTJV79SfXRiiP9sa9YXPhD9fytgj+LxHGcmV6RhmY7XI8bpL+yI4T2VsDHle8OqebtRVA1JsaBndFARsmWNOYjacJBAWi6WLIR1XYlBXnWmfWp7nqo4B/z6vx8ZQ6qnzl3oMVcpE9ER8tmUEf5ycSn9sPREZaWtXPbT90basv+WYjuRC2TJ5GMnXR5aRGMocyH1Wzvq2N+p/VP3o9s74hrJDo96UlducqyvqNiGbDrpS4jWxxQYU+noVwCn8XN9q3UtWGfz8NmC11a+cUrJY0R5kCGB7cFi+2f7g8dAgtef+y3Nvv+xnUWvC8TGJcWIku7Yt8hmXc5lZXOd99mxhLthpjvH85y4ZwqYvrRj5Nr5O2K153vXTMbDUupgeGl/frUmGH8fXu+5t+FQ/6P0A63Z5xJaM1fZ5xEjLRfB5jzI9b4CBNy4kPhhnr0+kg2PG12k/LPl2vk4yDENvMjFqMVzogIsXxBW7mdd8Dtiqj5q8/JQXSeDuVsckoofio6WHIe2P5gLkNY7Mn+lY7rYwlmv0RGzZsZax2072Inq0v1bslozedk9blXNsSrHeKYjVMR3H+u9xXo7kQuq1a0IEw48sE8FQyvR6Ym3XY5PL4L6zPdvcHtc/X/+LjXoPnAcjC8vceX5cWS+TC5tI2iRkJ0DaOjO4bH1xf2xbw/Hgf50wsQZNXoR0Y2cYLmVmcZ3wuflt5QJuVf8Sdw/GQrdPRmNaCmKbuCo2MNG2bQYGNQezO0faDvw92tJFFfHBCYSdFK/8KS8Y7cEQ/BzuNNGJcx0/kXyVFxtnGLax2Pl4HT4RDB9NpsfceOFdvCDM67sDw0ukAW4scxHhc5XhvU+5w8i54egRddWRkeMF8wV3Fen5aqp77UQlpEfiPIwrzcGi065R0r8bxrKy+Xacrz4Oz6hDBqm2RMaFxLDxtY3tcb/GCv++p623my/s2NbzcsnzNBcMR5eHEQw/sgzDkObbRV1181nGqTH3t/GLOLd61LZLH+b6r5f9i426EzhdnbgCiDI4zEQxMnO9wlZEhoCeJZRk5ldr+tv5r8elvjTarq5zH9k6Xu2Uz+ISMfzYY/6gnnlcZ3yO+EO+w7LILyaDW2XsiVvn3cJAy3RMeQx8PWYL9YjGpl1dJBuWP7RPLq/Bp+T0snjZjXGQYpS2ND5rn/fhE8Hwb8sYeTLrFMkhfvqRJHoBtJ8wWjhHcqFlyC5bWo1x3dYmK0tmeJY8YIte3lTvk8zHBfPV4CddAR8x7McVDk/zgLLXc7XbgnFzvR4bQ4kP2JK/NFJeoocTvlZXo3q637bPdX+ZP/upXONFycc9bXV/qT7BUtaoEzLTuEY99ry8ykXX4/MwguFHlukYtnwHxjPniFy36mm3cab/kXq7jmu3//VGvQ9zvkZXAE4E6EwaCIxNZvx5M7IVkSF/5gktNqf+dD1PcHWZfoIxQLKxOPez+z6Bk362DPoDv9ogCy7TUQrw12Ppc8iW1DudEOpEfItMO5a/Uc8mFM6+vk7cCOS7+gi5923Zeoq8mky7D3yN/JHY0eBvdpkvtI+WUsbmvPQnYgv1cE/7+uhz82HIRQSf9ygjMfQn5irnjp8IzhEZG0PiSFk6PghuODIyvoCt4eQUcWg8KXyO6GE4O761GFf76xhqPlzF1e7PbXrs2EUunDEvm9Vzenyfe1wNz8H+PW3Z/jT/B9+6fETGj1HpaTW8b+fHylxUmSkPIxh+ZBmJs6w7ch/Pg79uYynlA/3PhG9SV9zHv9ioIyjT5vJEwPOiZSdAHoMTnG5SpQwBa+vjSbCPo+PHZZFvtyjH/aTb0mttI3laRmToKpTGgHTopedzzJaM0SxiKv/XyqCfsVvcHgZeTPyXKwCfla2xmKy4tNrfcTyPD3Jej0GMYWywef7ntnyfd+ATwfDRZAbsJiflc2x7vj2ucluezJLPTgMhjjNlRk6JY9iY5mMHYtZ1Rx+n/6Y4uR7atsLQ00XHw7LI8Gfyme+wP8KxXXqitrj/dAeG4xrVs4pd2uGc7Ov3tGX5U+xf0zyrPFu69bY1n870F+cwjOD8r8rwPIwxdhy5nL/uz1vWMThG5vOkddw12968UW/BDFckPh/tijbbB7eR4KMZ54IZJwd9/FB46iTTixjqsF6W6jI98fMisPIHPmTEHjeoLyr1W5RgR8vgc3jlZ4rFLeKVLdRlfpjKKEh+XNofJLX0OWJL64G48IM7vWHcJbOebDVPvMamTXrsBeDybD2bCAaOGfjis7ev7Rl9fD5/dhJhFY99+FC++7PBdRy0RjJiq48LxNPyOZiLMi4X+LxHGcaF+YSC+Fs1J85Vng87F0s+W024/gaBlrnld9TpMUSaC6puiUPFZjIGEaMVhri/1xuOF67vGsu79ITqBsyd7R2C+nv9+uJPYOyEfGZ8HnlZ8bybrUiNisiMPBhjs/Tgx8EEVyO5cO4kCZsBDEPc+Ff1MB7O6yrNP+MFAY43zYfjY8g6717/E+HQeZmrGvUSTL+3zdasswv5RTpBZrhqAYRuP88IH8XgDWwsoFJYWMPEgefrw0tzVsM7/XlG5s936Td/FjLijxW3JgfKsK9qDj8XWcm3iD3iT8NpFpeRq8Fn8Uwkw4sNqNKYs5xbP025RwYnZEZQtmpxFfz1Gpu6jx5TAk3iJzXjtkps5In+2iPDCXNi+7MHH4ypP3sHTsE7E+zXiMoY/XNcFvlq/Cn+Wz7vxSeC4WPJePFLHp5rkiyc9ZibycjaLPhcJnYiKS3Vl0cHGbVfcHliq8qJfBm1ro0Hdwxi7CsM1/XQyxXgoPI1/crwLj01rqmtcSx7c6nAeag/cZ/lmNe8i/i8z1aJaVGjIjKxmGDun8/LMI/wumrlYs3DCIYfXcbjkBynkFesC/NGHU56eD8q+rpA/xPhzzUyfqMuiqw9CK8xuP8YTNTs6kjM5qPpiWAe8TkiE7EVkbmnrYg/KRPjfuKUOH0UDmSNSq4/AteTh8nDOA//gUY9HuycGDlw5vjswjn1JM7JgeRAciA5kBxIDiQHIhzIRr3dOchGPUKYlMnCkhxIDiQHkgPJgeRAcuA+HMhGvTXq9wE8iZ04JweSA8mB5EByIDmQHEgORDiQjXo26id/YScHVmRgpUzyJDmQHEgOJAeSA8mBWzkgGvVPx/q/Ww3m8Una5EByIDmQHEgOJAeSA8mB5MCaA9mo5xX1vKKeHEgOJAeSA8mB5EByIDnwgBzIRv0Bk5JnmOszzMQoMUoOJAeSA8mB5EBy4F/nwLxR/+9Px6dP9f//wsdiJCDOL6WUr8zRRzKOg/9ovDz+rQiGH/m4v10vniv9gS/9LT7uMeIZsRWR8WI5u320RR8eYAwpH9r5TV8lZB8nuFkGvqbIP05xeWVf7zNiqdzVH+ZCnOcfbfkWtDX/4IjyyfFnF4YQ1/xDYP1DEbNcCB56Pm/EJ4Lhw8nw+NuXXynfWEslxvTX+PGOgreDcyQXKDPh8/Axo/qBLzZG8YuI5CMsb/vg0ZeCD+kDXV+Nq3sTn+uXHkmDXDoYlgs1Ro3iuQJFTt1YcWxnTVjZ0h/ZKR+w4vmqF6VWeqI+C545F7zuZWtnPVzGFZqX5QePvFxIWyMPYf8Kw48ss5OrMhdUlx9j6Tfq/1sb9P+Tz63LYJxGnQ3a1Wddpb5NoNDnco0itcceDii7mTNiuMofmJD+tE/Ng980YKcfd4rYcmVOxsXy7OJq2CpFdcPXVNd6kJ/iq3AwAcO8azYB0NTj9D7uJ139q52Qj6PFQfvZl3UtW4RH/dR30XG8HvwkpWPp+7OO/cRXa48/3X7x7zg4xyK21j5vxCeC4QPKvFz+HE/f66fdh0bdqBv1K7n2BQefG+tcgC3Kh8NniwflxIBxVctAAwPjp40Jimlhq9SRKvNM/nw9np4ZL7kM+3KuHINkjy/t5qdj9Plon2Bv8wX5e+tY3qWH+TipG/jFcOAYxg9ftr7o2rIcF0Gfz9R+1+d9tiI1KiIjeGHGGJuXQ7nQ+ik3jYexvDf+ujj/q3r28Qfz/gb9j87xlX+vG3X1gumayLxIfj7+RqP+9jbPJXSnPytdq/2QP1/mXFwRLli2IgVzj8yP47fRkHu6YfvlGZsN3ai7x/ykxiJma8TDx/waf3hOPJ+7DNrWjaD2ca2nj3nf5334aP/gSiI0iDxnjybTMZ+Nv45jkbcm7lrofZy7jpmMl9NvxGfdhBe7CmdTBifPyIles0U1aWjweyyAx9JnaxKcYEg5Gbmyi6u79FicUbmgEy9V7wpm7KRwjHXUc6ZmEobW8p62PG5wvyIyXP7Muoy1NpCLXGj9Ugdyf9ym8xXhxr8qExtfGmf/7xFbX1bWpreWGxv1/2GPu9BjL7Dkj77UAk23FnlR1g6PRJMBlrP+ehUTb51atzvlMdqG+HtSmOe3+OsE89yvVI3+oAzFLZasGIb8GW6tyqvnQgebgKZ4TmJv+kyZYFxnfTZt+RNu83EyKZ+V4fK0bhbs4ivcHrcGq7Utxklpy9YjZareqT+7MER/tjXqC58Jf76UsUfweY8ykivTMazHutW8RnCeytgY8rzQYy2ytqsGpNiQd19Ah4wvYMsccxIz62RM+Mtw49uLLxaGJF9iYHcJaLuxPM9VHQP+fV6PjaHUU+evn9KmlInokccTllKPLUOyuLynrV31MBKXLSM5H8mF0mPyMILhR5ZRGNYxe56rb9T/GDVEjhHbf0tmbNTpCjo9+kJ/16VUYhOSy0gCK8fqM5Yv9ZaNPTmoYxbBe/ZK8vhtwDrJ9KtwlCxWtAcZ8sUeHDxuWrf9weOhQfpG8ZTn3n4dT/S3scTHJMaJcW6LfMal7Q/JzOI677NnC3PBTnOM5z93yRA2fWnFyLfxdcJlzfOun46BpdbF9BTu423qsbDw4/h6170Nn+oHPXpj3S6P2JKx2j6PGGm5CD7vUabnDTDwxoXEB+Ps9Yl0cMz4Ou2HJd/O10mGYWjUmeJHrX28UYcLHXDxgrji1WvJ54CtejX45ae8SAJ3tzomET0UHy09DGl/NBcgr3Fk/kzHcreFsVyjJ2LLjtXNxU0+65isvyM+W8dpfCyZcVukRkVkOt9GG96+cV6O5ELqt2tCBMOPLCMxtMeXJeNtm3EP953t2TzOnN3+Fxv1Hjh3WhYWD1Bnu3lWCrJ2AqStM4PL1sfjKOuuP7at4XiYROuEiW3t5EVI1xbDaikzi+uEz81vNqmzhgCawd90clafvYf4RFOwSUZjWgqivsIGk1bbZmBQc8D903qtv0dbuqgiPjiBsJfdVv4UzPZgCH4Pd5pYbsr+QC6+BHzWGF2HTwTDR5NhYzDYqA+coPETwXklE+FzlWGn0/iyKOeGo0fUVUdGcgHzBS/c0fPVVPfaiUpIj8TZxZCwLDrtGiX9qw19qxFgJ8Ix6Q/ofDvOV91HxxBPuiGDVFt2+TzGpfHah0/EFry/ta8ejrEYPlQ+evNyyfM0F0yny8NIvj6yDMOwjulxfI0yfn6NuZ9qhfNoma/rjN217F9s1JFgrRATIDDJtMKyDoADVZJkPoLCyEx2YClsRWTIn1lCSWZ+teap/ZrL63GpL422q+vcR7ZOhXfAjCYAM/aYP4jjPK4zPvu56P4MuRMT4SgXGYQzGXvi1nm3MNAyo288FliP2UI9orHhDUDJveWPbX8WO/mnZUpOL4uX5hgHbT0an7XP+/CJYPi3ZWS+Sg6mYxXx048kiebH5UYkF1pG+ldybDXGdVurP5YMcb+N5YAtZxKcjwvDZ8FTD8N+3DoPKHs9V7utvTWB+dVwhm3yl0bKS/TPr+wihJ0LiXPE5ypT5s9+Ktd4UfJwT1vSZ7tGnZCZxjXqseflVS66Hp+HEQw/skzH0B9fUoa4YS/n89aZ/sfWf8YXKfvXG/U+zPkaXQGQzk6DdyYNPMYm85s26lN/KK6vxxNcCaCmfTp54zFmUY3Yisg4dx4k7gGfQ7YIAxbX4gTNnjBjetqx/I16NqFw9vV14uF8AEt8WJM+2LL1yJwiV7sPfI38kTGT/RajaFikrJSxx4X0Rx5v2zrnc/PhKnwiGD6ajMTQn5irnDt+IjhHZGx8KLdl6fgguOHIyPgCtoaTU8Sh8aTwOaKH4ez41mJc7a9jqPlwFVe7P7fpsWMXuXDGfMlFa+bP6fF97nE1PAf797Rl+9P8H3zr8hEZP0alp+Hct/NjZS6qzJSHEQw/skzHueVxGKddhufCXrexlLKB/mfCN6kr7ttfbNQRlLOPE3iBlkS5A8VOgDwGJzh5VcB7ScXWx32TutcJaURbJNnSa23jvsB6RMZ7REjror89n2O2JCZmEVNYXCuDfsZucXsYeDHxX65oOPPneK0YxAnZikur/R3H8/gg5/UY9PJKeYfl3Jbv8yoXRe8Cn/coM2AnYuw5XGPLZX2cuz1bZslnp4EQx5kyI6fEMWw88LEDOV3V3ogeinvOz1g9LPY2jOUdeiKcp9j7cpzTonpWPncbnI9y/Z62LH9WHIBjIjKWbr3N42aXG3MB+1bHRTD8yDINw8k47TmQ/By327VylEM9OEbmF8+8Y89uf/NGvQVjnenQoydsH9xGehEvEa3Ahf3j5KCBQD9Ys1YnmT45oA7rZaku032ZD/CVP/AhI/a4Qb2S3Z+TxpikDD6HV36mWPzs08pWDB/Cy48r4nPEltZj/T78LplaCE8NYm+wIs4X9gKw/g3ngWOsKSF88dnb1/aMPr6IxHg5HGP5sw8fynd/NriOg9ZIRmz1cYFxWj4Hc1HG5QKf9yjD8jpOrBy/yjMxxvl+vm7j3LhWbHoyCz5bTbj+LoCWueV31PVcUHXL2rvwuWG8whD36xNUjtuusbxLT6huwNzZ3iGov9ev71IGxk7I54Y156Nav5utSI2KyCj/zRgtPfB79epEM5KLQN8SynsA539VzxmuoqzKk8oxzYfjY8g671hXZc8W4c91Mlc16iUYfke+rVtnF/JLcrLwYvNJH5kBNeLjNApEXkj5ekmAezW9AzO8NCcmw1q8pz/P2HUB8bnf/HnSiD/lhKT9LCXGrcmBMq8N3fHnItdn5IBTxJ+G5ywuKD4rn8UzkQwvlktoTi9MT/lqW5tg8Jg9MphTBiBbtbgKtr3Gpu6jx5QKWflPasZtldjIk4v+qIvGzPZnDz4YU3/2DpyCdybYrxEBfwL5avwpebZ83otPBMPHkvHilzzEyWR24sb5YeHM92N+9W/M91zJ2izGYW2Uiaa4VF8eHWTUfjbmy7hyxw76LPJVvnJq/VTvxOdqb4Xhuh56uQIUVL5gbBBIw1jepcfAZ7CFueZj2ZtLBc6DnrjPnUfon/X3vWwVOy0R0Ejw2szwW8hYMehtkXkZ+L7KxZqHzG+XYx9Z5hxXsS7MG/VpXxfofzRXdv3tN+rqZxnp+6S7DO/Tg8maXR2J2Xo0PX7x6/FEfI7IRGxFZO5pK+JPynSuJBaJRXIgcvc1eZI8eXsO5Fz59hj/Ozz+Bxr1XcnIgZMDZxeXUk9yKTmQHEgOJAeSA8mB2zmQjXq7PZuNeg6o2wdUYpgYJgeSA8mB5EByIDmwiwPZqLdGPUm1i1SpJ7mUHEgOJAeSA8mB5EBy4HYOiEY9Ab0d0MQwMUwOJAeSA8mB5EByIDmQHNjBgWzU84r6sYNIqSMLUnIgOZAcSA4kB5IDyYG9HMhGPRv1bNSTA8mB5EByIDmQHEgOJAcekAPZqD9gUvJsdO/ZaOKZeCYHkgPJgeRAciA58B45kI16Nup5Bp0cSA4kB5IDyYHkQHIgOfCAHMhG/QGT8h7P+NLnvFKRHEgOJAeSA8mB5EByYC8HslHPRj3PoJMDyYHkQHIgOZAcSA4kBx6QA9moP2BS8mx079lo4pl4JgeSA8mB5EByIDnwHjmQjXo26nkGnRxIDiQHkgPJgeRAciA58IAc+H8z85eJHgdH/gAAAABJRU5ErkJggg==;" parent="QhBDd5DWaKf9dE4gqBnc-2" vertex="1">
          <mxGeometry x="89.24999999999999" y="252" width="441.51" height="29" as="geometry" />
        </mxCell>
        <mxCell id="QhBDd5DWaKf9dE4gqBnc-5" value="1/" style="text;html=1;align=center;verticalAlign=middle;resizable=0;points=[];autosize=1;strokeColor=none;fillColor=none;" parent="QhBDd5DWaKf9dE4gqBnc-2" vertex="1">
          <mxGeometry x="55" y="85.56" width="30" height="20" as="geometry" />
        </mxCell>
        <mxCell id="QhBDd5DWaKf9dE4gqBnc-6" value="2/" style="text;html=1;align=center;verticalAlign=middle;resizable=0;points=[];autosize=1;strokeColor=none;fillColor=none;" parent="QhBDd5DWaKf9dE4gqBnc-2" vertex="1">
          <mxGeometry x="55" y="115.56" width="30" height="20" as="geometry" />
        </mxCell>
        <mxCell id="QhBDd5DWaKf9dE4gqBnc-7" value="3/" style="text;html=1;align=center;verticalAlign=middle;resizable=0;points=[];autosize=1;strokeColor=none;fillColor=none;" parent="QhBDd5DWaKf9dE4gqBnc-2" vertex="1">
          <mxGeometry x="55" y="145.56" width="30" height="20" as="geometry" />
        </mxCell>
        <mxCell id="FAhXZhJqopOZBhc0oq9q-3" style="edgeStyle=orthogonalEdgeStyle;rounded=0;orthogonalLoop=1;jettySize=auto;html=1;exitX=0.5;exitY=1;exitDx=0;exitDy=0;entryX=0;entryY=0.5;entryDx=0;entryDy=0;" parent="1" source="FAhXZhJqopOZBhc0oq9q-1" target="FAhXZhJqopOZBhc0oq9q-2" edge="1">
          <mxGeometry relative="1" as="geometry" />
        </mxCell>
        <mxCell id="FAhXZhJqopOZBhc0oq9q-8" style="edgeStyle=orthogonalEdgeStyle;rounded=0;orthogonalLoop=1;jettySize=auto;html=1;exitX=0.5;exitY=1;exitDx=0;exitDy=0;entryX=0.5;entryY=0;entryDx=0;entryDy=0;" parent="1" source="FAhXZhJqopOZBhc0oq9q-1" target="FAhXZhJqopOZBhc0oq9q-6" edge="1">
          <mxGeometry relative="1" as="geometry" />
        </mxCell>
        <mxCell id="FAhXZhJqopOZBhc0oq9q-10" value="&lt;div style=&quot;color: rgb(171 , 178 , 191) ; background-color: rgb(40 , 44 , 52) ; font-family: &amp;#34;fira code&amp;#34; , &amp;#34;hack&amp;#34; , &amp;#34;courier new&amp;#34; , monospace , &amp;#34;consolas&amp;#34; , &amp;#34;courier new&amp;#34; , monospace ; line-height: 20px&quot;&gt;&lt;span style=&quot;color: rgb(224 , 108 , 117)&quot;&gt;&lt;font style=&quot;font-size: 10px&quot;&gt;need_restore&lt;/font&gt;&lt;/span&gt;&lt;/div&gt;" style="edgeLabel;html=1;align=center;verticalAlign=middle;resizable=0;points=[];" parent="FAhXZhJqopOZBhc0oq9q-8" vertex="1" connectable="0">
          <mxGeometry x="-0.7283" y="-1" relative="1" as="geometry">
            <mxPoint as="offset" />
          </mxGeometry>
        </mxCell>
        <mxCell id="FAhXZhJqopOZBhc0oq9q-1" value="&lt;div style=&quot;color: rgb(171 , 178 , 191) ; background-color: rgb(40 , 44 , 52) ; font-family: &amp;#34;fira code&amp;#34; , &amp;#34;hack&amp;#34; , &amp;#34;courier new&amp;#34; , monospace , &amp;#34;consolas&amp;#34; , &amp;#34;courier new&amp;#34; , monospace ; font-size: 15px ; line-height: 20px&quot;&gt;&lt;span style=&quot;color: #61afef&quot;&gt;IndexFilePro&lt;/span&gt;&lt;/div&gt;" style="rounded=1;whiteSpace=wrap;html=1;" parent="1" vertex="1">
          <mxGeometry x="120" y="770" width="120" height="30" as="geometry" />
        </mxCell>
        <mxCell id="FAhXZhJqopOZBhc0oq9q-5" style="edgeStyle=orthogonalEdgeStyle;rounded=0;orthogonalLoop=1;jettySize=auto;html=1;exitX=0.5;exitY=1;exitDx=0;exitDy=0;entryX=0;entryY=0.5;entryDx=0;entryDy=0;" parent="1" source="FAhXZhJqopOZBhc0oq9q-2" target="FAhXZhJqopOZBhc0oq9q-4" edge="1">
          <mxGeometry relative="1" as="geometry">
            <mxPoint x="320" y="920" as="targetPoint" />
          </mxGeometry>
        </mxCell>
        <mxCell id="FAhXZhJqopOZBhc0oq9q-9" style="edgeStyle=orthogonalEdgeStyle;rounded=0;orthogonalLoop=1;jettySize=auto;html=1;exitX=0.25;exitY=1;exitDx=0;exitDy=0;entryX=0.5;entryY=0;entryDx=0;entryDy=0;" parent="1" source="FAhXZhJqopOZBhc0oq9q-2" target="FAhXZhJqopOZBhc0oq9q-6" edge="1">
          <mxGeometry relative="1" as="geometry" />
        </mxCell>
        <mxCell id="FAhXZhJqopOZBhc0oq9q-2" value="&lt;div style=&quot;color: rgb(171 , 178 , 191) ; background-color: rgb(40 , 44 , 52) ; font-family: &amp;#34;fira code&amp;#34; , &amp;#34;hack&amp;#34; , &amp;#34;courier new&amp;#34; , monospace , &amp;#34;consolas&amp;#34; , &amp;#34;courier new&amp;#34; , monospace ; font-size: 15px ; line-height: 20px&quot;&gt;&lt;div style=&quot;font-family: &amp;#34;fira code&amp;#34; , &amp;#34;hack&amp;#34; , &amp;#34;courier new&amp;#34; , monospace , &amp;#34;consolas&amp;#34; , &amp;#34;courier new&amp;#34; , monospace ; line-height: 20px&quot;&gt;&lt;div style=&quot;font-family: &amp;#34;fira code&amp;#34; , &amp;#34;hack&amp;#34; , &amp;#34;courier new&amp;#34; , monospace , &amp;#34;consolas&amp;#34; , &amp;#34;courier new&amp;#34; , monospace ; line-height: 20px&quot;&gt;&lt;span style=&quot;color: #61afef&quot;&gt;MatchIndex&lt;/span&gt;&lt;/div&gt;&lt;/div&gt;&lt;/div&gt;" style="rounded=1;whiteSpace=wrap;html=1;" parent="1" vertex="1">
          <mxGeometry x="280" y="840" width="120" height="30" as="geometry" />
        </mxCell>
        <mxCell id="FAhXZhJqopOZBhc0oq9q-4" value="&lt;div style=&quot;color: rgb(171 , 178 , 191) ; background-color: rgb(40 , 44 , 52) ; font-family: &amp;#34;fira code&amp;#34; , &amp;#34;hack&amp;#34; , &amp;#34;courier new&amp;#34; , monospace , &amp;#34;consolas&amp;#34; , &amp;#34;courier new&amp;#34; , monospace ; font-size: 15px ; line-height: 20px&quot;&gt;&lt;div style=&quot;font-family: &amp;#34;fira code&amp;#34; , &amp;#34;hack&amp;#34; , &amp;#34;courier new&amp;#34; , monospace , &amp;#34;consolas&amp;#34; , &amp;#34;courier new&amp;#34; , monospace ; line-height: 20px&quot;&gt;&lt;div style=&quot;font-family: &amp;#34;fira code&amp;#34; , &amp;#34;hack&amp;#34; , &amp;#34;courier new&amp;#34; , monospace , &amp;#34;consolas&amp;#34; , &amp;#34;courier new&amp;#34; , monospace ; line-height: 20px&quot;&gt;&lt;div style=&quot;font-family: &amp;#34;fira code&amp;#34; , &amp;#34;hack&amp;#34; , &amp;#34;courier new&amp;#34; , monospace , &amp;#34;consolas&amp;#34; , &amp;#34;courier new&amp;#34; , monospace ; line-height: 20px&quot;&gt;&lt;span style=&quot;color: #61afef&quot;&gt;CollectRecIndexInfo&lt;/span&gt;&lt;/div&gt;&lt;/div&gt;&lt;/div&gt;&lt;/div&gt;" style="rounded=1;whiteSpace=wrap;html=1;" parent="1" vertex="1">
          <mxGeometry x="440" y="920" width="200" height="30" as="geometry" />
        </mxCell>
        <mxCell id="FAhXZhJqopOZBhc0oq9q-6" value="&lt;div style=&quot;color: rgb(171 , 178 , 191) ; background-color: rgb(40 , 44 , 52) ; font-family: &amp;#34;fira code&amp;#34; , &amp;#34;hack&amp;#34; , &amp;#34;courier new&amp;#34; , monospace , &amp;#34;consolas&amp;#34; , &amp;#34;courier new&amp;#34; , monospace ; font-size: 15px ; line-height: 20px&quot;&gt;&lt;div style=&quot;font-family: &amp;#34;fira code&amp;#34; , &amp;#34;hack&amp;#34; , &amp;#34;courier new&amp;#34; , monospace , &amp;#34;consolas&amp;#34; , &amp;#34;courier new&amp;#34; , monospace ; line-height: 20px&quot;&gt;&lt;span style=&quot;color: #61afef&quot;&gt;IndexGenMultiple&lt;/span&gt;&lt;/div&gt;&lt;/div&gt;" style="rounded=1;whiteSpace=wrap;html=1;" parent="1" vertex="1">
          <mxGeometry x="100" y="1000" width="160" height="30" as="geometry" />
        </mxCell>
        <mxCell id="JCZ9FJtGvqnMU7huJ6hj-12" style="edgeStyle=orthogonalEdgeStyle;rounded=0;orthogonalLoop=1;jettySize=auto;html=1;exitX=1;exitY=0.5;exitDx=0;exitDy=0;fontSize=14;fontColor=#006633;" edge="1" parent="1" source="JCZ9FJtGvqnMU7huJ6hj-1" target="JCZ9FJtGvqnMU7huJ6hj-2">
          <mxGeometry relative="1" as="geometry" />
        </mxCell>
        <mxCell id="JCZ9FJtGvqnMU7huJ6hj-1" value="&lt;div style=&quot;font-family: &amp;#34;fira code&amp;#34; , &amp;#34;hack&amp;#34; , &amp;#34;courier new&amp;#34; , monospace , &amp;#34;consolas&amp;#34; , &amp;#34;courier new&amp;#34; , monospace ; font-size: 15px ; line-height: 20px&quot;&gt;&lt;font color=&quot;#006633&quot; style=&quot;background-color: rgb(255 , 255 , 255)&quot;&gt;export&lt;/font&gt;&lt;/div&gt;" style="rounded=1;whiteSpace=wrap;html=1;" vertex="1" parent="1">
          <mxGeometry x="280" y="1200" width="80" height="30" as="geometry" />
        </mxCell>
        <mxCell id="JCZ9FJtGvqnMU7huJ6hj-13" style="edgeStyle=orthogonalEdgeStyle;rounded=0;orthogonalLoop=1;jettySize=auto;html=1;exitX=0.5;exitY=1;exitDx=0;exitDy=0;entryX=1;entryY=0.5;entryDx=0;entryDy=0;fontSize=14;fontColor=#006633;" edge="1" parent="1" source="JCZ9FJtGvqnMU7huJ6hj-2" target="JCZ9FJtGvqnMU7huJ6hj-11">
          <mxGeometry relative="1" as="geometry" />
        </mxCell>
        <mxCell id="JCZ9FJtGvqnMU7huJ6hj-2" value="&lt;div style=&quot;color: rgb(171 , 178 , 191) ; background-color: rgb(40 , 44 , 52) ; font-family: &amp;#34;fira code&amp;#34; , &amp;#34;hack&amp;#34; , &amp;#34;courier new&amp;#34; , monospace , &amp;#34;consolas&amp;#34; , &amp;#34;courier new&amp;#34; , monospace ; font-size: 15px ; line-height: 20px&quot;&gt;&lt;div style=&quot;font-family: &amp;#34;fira code&amp;#34; , &amp;#34;hack&amp;#34; , &amp;#34;courier new&amp;#34; , monospace , &amp;#34;consolas&amp;#34; , &amp;#34;courier new&amp;#34; , monospace ; line-height: 20px&quot;&gt;&lt;span style=&quot;color: #61afef&quot;&gt;SessionIdValidate&lt;/span&gt;&lt;/div&gt;&lt;/div&gt;" style="rounded=1;whiteSpace=wrap;html=1;" vertex="1" parent="1">
          <mxGeometry x="440" y="1280" width="170" height="30" as="geometry" />
        </mxCell>
        <mxCell id="JCZ9FJtGvqnMU7huJ6hj-11" value="&lt;div style=&quot;color: rgb(171 , 178 , 191) ; background-color: rgb(40 , 44 , 52) ; font-family: &amp;#34;fira code&amp;#34; , &amp;#34;hack&amp;#34; , &amp;#34;courier new&amp;#34; , monospace , &amp;#34;consolas&amp;#34; , &amp;#34;courier new&amp;#34; , monospace ; font-size: 15px ; line-height: 20px&quot;&gt;&lt;div style=&quot;font-family: &amp;#34;fira code&amp;#34; , &amp;#34;hack&amp;#34; , &amp;#34;courier new&amp;#34; , monospace , &amp;#34;consolas&amp;#34; , &amp;#34;courier new&amp;#34; , monospace ; line-height: 20px&quot;&gt;&lt;div style=&quot;font-family: &amp;#34;fira code&amp;#34; , &amp;#34;hack&amp;#34; , &amp;#34;courier new&amp;#34; , monospace , &amp;#34;consolas&amp;#34; , &amp;#34;courier new&amp;#34; , monospace ; line-height: 20px&quot;&gt;&lt;span style=&quot;color: #56b6c2&quot;&gt;ExportProcessor&lt;/span&gt;&lt;/div&gt;&lt;/div&gt;&lt;/div&gt;" style="rounded=1;whiteSpace=wrap;html=1;" vertex="1" parent="1">
          <mxGeometry x="240" y="1360" width="160" height="30" as="geometry" />
        </mxCell>
        <mxCell id="JCZ9FJtGvqnMU7huJ6hj-29" style="edgeStyle=orthogonalEdgeStyle;rounded=0;orthogonalLoop=1;jettySize=auto;html=1;exitX=1;exitY=0.25;exitDx=0;exitDy=0;entryX=0.5;entryY=0;entryDx=0;entryDy=0;fontSize=14;fontColor=#006633;" edge="1" parent="1" source="JCZ9FJtGvqnMU7huJ6hj-16" target="JCZ9FJtGvqnMU7huJ6hj-18">
          <mxGeometry relative="1" as="geometry" />
        </mxCell>
        <mxCell id="JCZ9FJtGvqnMU7huJ6hj-30" style="edgeStyle=orthogonalEdgeStyle;rounded=0;orthogonalLoop=1;jettySize=auto;html=1;exitX=1;exitY=0.25;exitDx=0;exitDy=0;entryX=0.5;entryY=0;entryDx=0;entryDy=0;fontSize=14;fontColor=#006633;" edge="1" parent="1" source="JCZ9FJtGvqnMU7huJ6hj-16" target="JCZ9FJtGvqnMU7huJ6hj-17">
          <mxGeometry relative="1" as="geometry" />
        </mxCell>
        <mxCell id="JCZ9FJtGvqnMU7huJ6hj-16" value="API" style="rounded=1;whiteSpace=wrap;html=1;labelBackgroundColor=#FFFFFF;fontSize=14;fontColor=#006633;" vertex="1" parent="1">
          <mxGeometry x="360" y="1840" width="60" height="400" as="geometry" />
        </mxCell>
        <mxCell id="JCZ9FJtGvqnMU7huJ6hj-17" value="S3" style="rounded=1;whiteSpace=wrap;html=1;labelBackgroundColor=#FFFFFF;fontSize=14;fontColor=#006633;" vertex="1" parent="1">
          <mxGeometry x="720" y="2040" width="120" height="60" as="geometry" />
        </mxCell>
        <mxCell id="JCZ9FJtGvqnMU7huJ6hj-18" value="Local" style="rounded=1;whiteSpace=wrap;html=1;labelBackgroundColor=#FFFFFF;fontSize=14;fontColor=#006633;" vertex="1" parent="1">
          <mxGeometry x="520" y="2040" width="120" height="60" as="geometry" />
        </mxCell>
        <mxCell id="JCZ9FJtGvqnMU7huJ6hj-19" value="Data Type&lt;br&gt;xxx.ts &lt;br&gt;rec.index&lt;br&gt;play.m3u8" style="shape=note;whiteSpace=wrap;html=1;backgroundOutline=1;darkOpacity=0.05;labelBackgroundColor=#FFFFFF;fontSize=14;fontColor=#006633;" vertex="1" parent="1">
          <mxGeometry x="613.5" y="2120" width="133" height="110" as="geometry" />
        </mxCell>
        <mxCell id="JCZ9FJtGvqnMU7huJ6hj-22" value="" style="endArrow=classic;html=1;rounded=0;fontSize=14;fontColor=#006633;entryX=0;entryY=0.2;entryDx=0;entryDy=0;entryPerimeter=0;" edge="1" parent="1" target="JCZ9FJtGvqnMU7huJ6hj-16">
          <mxGeometry width="50" height="50" relative="1" as="geometry">
            <mxPoint x="150" y="1920" as="sourcePoint" />
            <mxPoint x="200" y="1870" as="targetPoint" />
          </mxGeometry>
        </mxCell>
        <mxCell id="JCZ9FJtGvqnMU7huJ6hj-24" value="web" style="text;html=1;align=center;verticalAlign=middle;resizable=0;points=[];autosize=1;strokeColor=none;fillColor=none;fontSize=14;fontColor=#006633;" vertex="1" parent="1">
          <mxGeometry x="100" y="1950" width="40" height="20" as="geometry" />
        </mxCell>
        <mxCell id="JCZ9FJtGvqnMU7huJ6hj-27" value="" style="line;strokeWidth=4;direction=south;html=1;perimeter=backbonePerimeter;points=[];outlineConnect=0;labelBackgroundColor=#FFFFFF;fontSize=14;fontColor=#006633;" vertex="1" parent="1">
          <mxGeometry x="240" y="1885" width="10" height="70" as="geometry" />
        </mxCell>
        <mxCell id="JCZ9FJtGvqnMU7huJ6hj-32" value="" style="endArrow=classic;html=1;rounded=0;fontSize=14;fontColor=#006633;exitX=0;exitY=0.401;exitDx=0;exitDy=0;exitPerimeter=0;" edge="1" parent="1" source="JCZ9FJtGvqnMU7huJ6hj-16">
          <mxGeometry width="50" height="50" relative="1" as="geometry">
            <mxPoint x="150" y="2050" as="sourcePoint" />
            <mxPoint x="150" y="2000" as="targetPoint" />
          </mxGeometry>
        </mxCell>
      </root>
    </mxGraphModel>
  </diagram>
</mxfile>
